<svg width="400" height="164" viewBox="0 0 400 164" fill="none" xmlns="http://www.w3.org/2000/svg">
<circle cx="39.5696" cy="107.989" r="76.5" transform="rotate(20 39.5696 107.989)" stroke="#CBD5E1"/>
<rect x="29.4976" y="12.8281" width="30" height="30" rx="15" transform="rotate(20 29.4976 12.8281)" fill="#C0E9D4"/>
<g clip-path="url(#clip0_6070_30255)">
<path d="M33.21 35.5206L34.743 36.0786C34.9429 36.1514 35.1329 36.2475 35.3094 36.3656L36.7859 37.3488C37.1062 37.5623 37.4694 37.7039 37.8496 37.7642L39.7674 38.0676C40.2741 38.1477 40.7918 38.0795 41.2536 37.8719L42.9694 37.1004C43.4592 36.8807 43.6667 36.3105 43.433 35.8268C43.2225 35.3913 42.7196 35.1678 42.2532 35.3024L40.3842 35.8423C40.1165 35.92 39.8288 35.9095 39.5641 35.8132L38.1381 35.2942L39.0458 35.6245C39.5574 35.8107 40.1186 35.5584 40.2998 35.0607L40.3653 34.8806C40.5157 34.4673 40.3578 34.0017 39.9821 33.7519L38.7051 32.9012C38.4973 32.763 38.2739 32.65 38.0392 32.5646C37.4726 32.3583 36.2761 32.4542 36.2761 32.4542L34.2921 32.5475M32.0337 31.4429L30.7939 34.8493C30.6742 35.1782 30.6143 35.3427 30.6326 35.4916C30.6487 35.6226 30.7058 35.7452 30.7958 35.8417C30.8982 35.9515 31.0626 36.0113 31.3915 36.131L31.8614 36.302C32.1903 36.4218 32.3548 36.4816 32.5037 36.4633C32.6347 36.4473 32.7573 36.3901 32.8538 36.3001C32.9635 36.1978 33.0234 36.0333 33.1431 35.7044L34.3829 32.298C34.5026 31.9691 34.5625 31.8046 34.5442 31.6557C34.5281 31.5247 34.471 31.4021 34.381 31.3056C34.2786 31.1959 34.1142 31.136 33.7853 31.0163L33.3154 30.8453C32.9865 30.7255 32.822 30.6657 32.6731 30.684C32.5421 30.7001 32.4195 30.7572 32.323 30.8472C32.2133 30.9496 32.1534 31.114 32.0337 31.4429ZM43.3088 28.2254C43.2252 27.3643 42.5585 26.6816 41.6361 26.7706C40.7137 26.8596 40.0551 27.6272 40.1 28.5277C40.1277 29.0843 40.3693 30.2334 40.5498 31.0301C40.6165 31.3245 40.6498 31.4717 40.7365 31.5822C40.8109 31.677 40.9195 31.7531 41.0341 31.7906C41.1676 31.8342 41.3173 31.8152 41.6168 31.7772C42.4271 31.6744 43.5896 31.5083 44.1221 31.344C44.9836 31.0782 45.4932 30.1986 45.2478 29.2996C45.0024 28.4006 44.1464 28.0094 43.3088 28.2254Z" stroke="#18A558" stroke-width="1.5" stroke-linecap="round" stroke-linejoin="round"/>
</g>
<rect x="97.0464" y="53.4609" width="30" height="30" rx="15" transform="rotate(20 97.0464 53.4609)" fill="#C6D7FF"/>
<g clip-path="url(#clip1_6070_30255)">
<path d="M107.078 77.0601L108.199 79.4633M108.199 79.4633L110.602 78.3427M108.199 79.4633L109.481 75.9395M109.929 68.3144C110.663 68.9762 110.963 70.0413 110.604 71.0272C110.245 72.0132 109.331 72.6362 108.343 72.6713M105.37 74.4431L103.021 73.5881C101.926 73.1897 101.379 72.9905 100.882 73.0122C100.22 73.0411 99.5958 73.332 99.1478 73.8208C98.8119 74.1874 98.6127 74.7347 98.2143 75.8294M107.961 70.0653C107.489 71.3628 106.054 72.0317 104.757 71.5595C103.459 71.0873 102.79 69.6527 103.263 68.3552C103.735 67.0578 105.169 66.3888 106.467 66.861C107.764 67.3333 108.433 68.7679 107.961 70.0653Z" stroke="#467BFF" stroke-width="1.5" stroke-linecap="round" stroke-linejoin="round"/>
</g>
<rect x="101.935" y="117.922" width="30" height="30" rx="15" transform="rotate(20 101.935 117.922)" fill="#FFE2BB"/>
<g clip-path="url(#clip2_6070_30255)">
<path d="M113.624 131.485L106.109 135.858C105.814 136.03 105.667 136.115 105.628 136.218C105.594 136.308 105.603 136.409 105.652 136.491C105.709 136.586 105.869 136.644 106.189 136.76L110.472 138.319L108.174 142.804L115.69 138.431C115.984 138.259 116.131 138.174 116.171 138.07C116.205 137.981 116.196 137.88 116.146 137.798C116.089 137.703 115.929 137.645 115.609 137.529L111.327 135.97L113.624 131.485Z" stroke="#FF9E0F" stroke-width="1.5" stroke-linecap="round" stroke-linejoin="round"/>
</g>
<path d="M394.137 26.3949C393.913 25.6699 393.596 24.9804 393.195 24.3455C392.992 24.0289 392.73 23.7584 392.426 23.5501C392.121 23.3418 391.779 23.1999 391.421 23.133C390.699 23.0413 389.901 23.4494 389.667 24.171C389.563 22.5475 389.343 20.8825 388.57 19.4719C387.797 18.0613 386.348 16.9553 384.8 17.0529C383.339 17.1475 382.09 18.286 381.396 19.6346C380.702 20.9831 380.462 22.5327 380.234 24.0498C379.67 23.3371 378.511 23.5618 377.933 24.2508C377.355 24.9399 377.211 25.9069 377.087 26.8178H394.5L394.137 26.3949Z" fill="#F5F5F5"/>
<path d="M344.308 37.6843C344.082 36.9593 343.765 36.2691 343.366 35.6319C343.162 35.3153 342.9 35.045 342.595 34.8372C342.29 34.6293 341.948 34.4883 341.589 34.4224C340.87 34.3307 340.072 34.7388 339.835 35.4574C339.734 33.8339 339.514 32.169 338.738 30.7613C337.963 29.3536 336.519 28.2417 334.968 28.3423C333.51 28.4369 332.258 29.5725 331.564 30.9239C330.87 32.2754 330.631 33.8221 330.402 35.3362C329.838 34.6264 328.679 34.8482 328.104 35.5402C327.529 36.2322 327.379 37.1963 327.258 38.1071H344.674L344.308 37.6843Z" fill="#F5F5F5"/>
<path d="M292.261 23.3324C292.037 22.6074 291.72 21.9179 291.319 21.283C291.116 20.9664 290.854 20.6959 290.55 20.4876C290.245 20.2793 289.903 20.1374 289.545 20.0705C288.823 19.9788 288.025 20.3869 287.791 21.1085C287.687 19.485 287.467 17.82 286.694 16.4094C285.921 14.9988 284.472 13.8928 282.924 13.9904C281.463 14.085 280.208 15.2235 279.52 16.5809C278.832 17.9383 278.586 19.4791 278.358 20.9961C277.794 20.2834 276.635 20.5082 276.057 21.1972C275.479 21.8863 275.335 22.8533 275.211 23.7641H292.616L292.261 23.3324Z" fill="#F5F5F5"/>
<path d="M318.168 99.6172H322.723V83.2014H318.168V99.6172Z" fill="#F5F5F5"/>
<path d="M337.714 83.1465C337.714 83.1465 337.491 82.9898 337.982 82.3126C338.472 81.6354 337.714 81.2716 337.714 81.2716C335.562 82.5728 332.559 81.2716 332.559 81.2716C332.559 81.2716 336.101 80.1242 336.549 79.03C336.882 78.2138 336.292 78.1221 335.985 78.128C336.349 78.0896 337.13 77.9536 337.37 77.5188C337.683 76.9451 336.45 76.2679 336.45 76.2679C336.515 76.1298 336.548 75.9781 336.548 75.8243C336.548 75.6706 336.515 75.5189 336.45 75.3807C336.25 74.807 331.631 73.9731 331.631 73.9731C332.976 74.1298 333.47 72.7222 333.47 72.7222C333.47 72.7222 335.757 72.7724 336.29 71.835C336.823 70.8975 335.931 70.6521 334.409 69.8566C332.886 69.0611 329.522 66.157 329.522 66.157C329.522 66.157 331.628 65.9471 332.212 65.4266C332.796 64.9061 332.254 64.7997 332.254 64.7997C334.767 65.0599 333.915 63.6552 333.915 63.6552C331.92 63.0164 330.134 61.8069 328.757 60.1627C328.757 60.1627 330.328 59.7989 331.135 59.0152C331.941 58.2316 330.461 58.0275 330.461 58.0275C330.461 58.0275 333.422 57.6105 331.718 56.4631C330.421 55.5759 328.351 54.4197 327.705 54.0677C328.413 54.3398 330.012 54.0145 330.012 54.0145C331.896 53.1273 330.012 51.8261 330.012 51.8261C327.815 50.522 324.589 47.2394 324.589 47.2394C324.589 47.2394 326.202 48.1266 327.009 47.8634C327.815 47.6002 326.112 46.5622 326.112 46.5622C326.112 46.5622 326.958 46.8224 327.325 46.5622C327.691 46.302 326.383 45.1013 326.383 45.1013C324.448 43.7853 322.065 40.3283 321.07 38.8438C320.074 40.3224 317.686 43.7853 315.757 45.1013C315.757 45.1013 314.457 46.302 314.818 46.5622C315.179 46.8224 316.028 46.5622 316.028 46.5622C316.028 46.5622 314.336 47.6032 315.131 47.8634C315.926 48.1236 317.551 47.2394 317.551 47.2394C317.551 47.2394 314.324 50.522 312.128 51.8261C312.128 51.8261 310.244 53.1273 312.128 54.0145C312.128 54.0145 313.727 54.3398 314.434 54.0677C313.789 54.4197 311.719 55.5907 310.422 56.4631C308.73 57.6105 311.679 58.0275 311.679 58.0275C311.679 58.0275 310.199 58.2345 311.005 59.0152C311.812 59.796 313.383 60.1627 313.383 60.1627C312.006 61.8069 310.22 63.0164 308.225 63.6552C308.225 63.6552 307.379 65.0599 309.886 64.7997C309.886 64.7997 309.347 64.9061 309.931 65.4266C310.515 65.9471 312.618 66.157 312.618 66.157C312.618 66.157 309.257 69.0729 307.734 69.8566C306.211 70.6402 305.312 70.8975 305.85 71.835C306.389 72.7724 308.67 72.7222 308.67 72.7222C308.67 72.7222 309.164 74.1298 310.509 73.9731C310.509 73.9731 305.893 74.807 305.69 75.3807C305.625 75.5189 305.592 75.6706 305.592 75.8243C305.592 75.9781 305.625 76.1298 305.69 76.2679C305.69 76.2679 304.457 76.9451 304.77 77.5188C305.01 77.9536 305.791 78.0896 306.155 78.128C305.833 78.128 305.244 78.2138 305.591 79.03C306.039 80.1242 309.581 81.2716 309.581 81.2716C309.581 81.2716 306.578 82.5728 304.426 81.2716C304.426 81.2716 303.665 81.6354 304.144 82.3126C304.624 82.9898 304.426 83.1465 304.426 83.1465C304.426 83.1465 303.298 82.2593 303.797 83.6167C304.297 84.9741 306.899 85.8051 306.899 85.8051C306.899 85.8051 305.422 86.0653 305.87 86.8993C306.318 87.7332 308.202 88.7239 310.264 88.9309C312.325 89.1379 315.106 88.3572 315.106 88.3572C315.106 88.3572 313.222 89.4011 314.522 89.9748C315.822 90.5485 317.302 89.2444 317.302 89.2444C317.302 89.2444 317.02 90.5781 318.109 90.1316C318.832 89.7975 319.498 89.3431 320.083 88.786C320.083 88.786 320.419 90.7526 321.09 90.2824C321.761 90.7526 322.096 88.786 322.096 88.786C322.681 89.3431 323.348 89.7975 324.07 90.1316C325.148 90.5899 324.877 89.2444 324.877 89.2444C324.877 89.2444 326.357 90.5456 327.657 89.9748C328.958 89.4041 327.074 88.3572 327.074 88.3572C327.074 88.3572 329.854 89.1409 331.916 88.9309C333.977 88.721 335.864 87.748 336.309 86.8993C336.755 86.0505 335.28 85.8051 335.28 85.8051C335.28 85.8051 337.88 84.9711 338.382 83.6167C338.884 82.2623 337.714 83.1465 337.714 83.1465Z" fill="#EBEBEB"/>
<path d="M327.61 51.9857L327.539 51.9531C327.564 51.9591 327.588 51.9701 327.61 51.9857Z" fill="black"/>
<path d="M279.14 99.5703H282.005V89.2376H279.14V99.5703Z" fill="#EBEBEB"/>
<path d="M291.44 89.2006C291.44 89.2006 291.299 89.1 291.612 88.6742C291.653 88.6228 291.682 88.5619 291.696 88.4965C291.709 88.4311 291.707 88.3632 291.69 88.2986C291.674 88.2341 291.642 88.1748 291.598 88.1259C291.555 88.0769 291.501 88.0398 291.44 88.0177C290.087 88.8398 288.197 88.0177 288.197 88.0177C288.197 88.0177 290.425 87.2961 290.707 86.607C290.919 86.0925 290.546 86.0363 290.346 86.0422C290.572 86.0156 291.065 85.9328 291.215 85.6578C291.412 85.297 290.651 84.8711 290.651 84.8711C290.691 84.7822 290.712 84.6847 290.71 84.5862C290.709 84.4877 290.685 84.3909 290.642 84.3033C290.515 83.9425 287.608 83.4161 287.608 83.4161C288.454 83.5137 288.767 82.6266 288.767 82.6266C288.767 82.6266 290.205 82.6591 290.544 82.0706C290.882 81.4821 290.318 81.3165 289.359 80.8226C288.4 80.3288 286.283 78.4953 286.283 78.4953C286.283 78.4953 287.608 78.3622 287.975 78.0339C288.341 77.7057 288.003 77.6406 288.003 77.6406C289.582 77.8062 289.046 76.919 289.046 76.919C287.79 76.5179 286.666 75.7569 285.8 74.7218C285.8 74.7218 286.787 74.4941 287.295 74.0002C287.803 73.5064 286.872 73.3792 286.872 73.3792C286.872 73.3792 288.736 73.116 287.662 72.3944C286.847 71.8444 285.544 71.108 285.124 70.8862C285.569 71.0577 286.576 70.8507 286.576 70.8507C287.763 70.2948 286.576 69.4756 286.576 69.4756C285.194 68.6535 283.161 66.5893 283.161 66.5893C283.161 66.5893 284.179 67.1453 284.687 66.9826C285.194 66.82 284.123 66.1605 284.123 66.1605C284.123 66.1605 284.658 66.3261 284.884 66.1605C285.11 65.9949 284.292 65.2438 284.292 65.2438C283.073 64.4128 281.573 62.2392 280.947 61.3047C280.318 62.2392 278.821 64.4128 277.603 65.2438C277.603 65.2438 276.785 65.9979 277.01 66.1605C277.236 66.3232 277.772 66.1605 277.772 66.1605C277.772 66.1605 276.7 66.817 277.208 66.9826C277.715 67.1482 278.733 66.5893 278.733 66.5893C278.733 66.5893 276.7 68.6594 275.318 69.4756C275.318 69.4756 274.131 70.2948 275.318 70.8507C275.318 70.8507 276.325 71.0577 276.771 70.8862C276.365 71.108 275.059 71.8444 274.233 72.3944C273.161 73.116 275.025 73.3792 275.025 73.3792C275.025 73.3792 274.092 73.5093 274.602 74.0002C275.113 74.4911 276.097 74.7218 276.097 74.7218C275.239 75.7571 274.124 76.5219 272.876 76.9309C272.876 76.9309 272.341 77.8181 273.92 77.6524C273.92 77.6524 273.581 77.7205 273.948 78.0458C274.315 78.3711 275.64 78.5071 275.64 78.5071C275.64 78.5071 273.522 80.3435 272.563 80.8345C271.604 81.3254 271.04 81.491 271.379 82.0824C271.717 82.6739 273.155 82.6384 273.155 82.6384C273.155 82.6384 273.466 83.5256 274.312 83.428C274.312 83.428 271.407 83.9514 271.28 84.3152C271.24 84.4022 271.219 84.4978 271.219 84.5946C271.219 84.6914 271.24 84.787 271.28 84.8741C271.28 84.8741 270.502 85.2999 270.702 85.6607C270.852 85.9357 271.345 86.0185 271.571 86.0452C271.37 86.0452 271.007 86.0954 271.21 86.61C271.492 87.299 273.719 88.0206 273.719 88.0206C273.719 88.0206 271.83 88.8427 270.474 88.0206C270.414 88.0431 270.36 88.0805 270.316 88.1295C270.273 88.1786 270.242 88.238 270.225 88.3025C270.209 88.367 270.207 88.4347 270.221 88.5C270.235 88.5652 270.263 88.626 270.304 88.6771C270.615 89.103 270.474 89.2035 270.474 89.2035C270.474 89.2035 269.769 88.6446 270.079 89.4992C270.389 90.3539 272.03 90.8714 272.03 90.8714C272.03 90.8714 271.1 91.037 271.382 91.5605C271.664 92.0839 272.848 92.7108 274.145 92.8409C275.443 92.9711 277.194 92.4802 277.194 92.4802C277.194 92.4802 276.009 93.1367 276.827 93.4975C277.645 93.8582 278.578 93.0361 278.578 93.0361C278.578 93.0361 278.406 93.876 279.086 93.5891C279.54 93.3784 279.959 93.0929 280.327 92.7434C280.327 92.7434 280.538 93.9795 280.961 93.6838C281.384 93.9795 281.596 92.7434 281.596 92.7434C281.964 93.0929 282.383 93.3784 282.837 93.5891C283.513 93.8849 283.344 93.0361 283.344 93.0361C283.344 93.0361 284.278 93.8582 285.095 93.4975C285.913 93.1367 284.729 92.4802 284.729 92.4802C284.729 92.4802 286.477 92.9711 287.777 92.8409C289.077 92.7108 290.259 92.0868 290.541 91.5605C290.823 91.0341 289.892 90.8714 289.892 90.8714C289.892 90.8714 291.528 90.348 291.841 89.4963C292.154 88.6446 291.44 89.2006 291.44 89.2006Z" fill="#E0E0E0"/>
<path d="M351.54 99.6172H354.405V89.2845H351.54V99.6172Z" fill="#EBEBEB"/>
<path d="M363.841 89.2531C363.841 89.2531 363.7 89.1555 364.01 88.7297C364.051 88.6786 364.08 88.6178 364.094 88.5526C364.108 88.4873 364.106 88.4195 364.089 88.355C364.073 88.2905 364.042 88.2312 363.998 88.1821C363.955 88.133 363.901 88.0957 363.841 88.0732C362.485 88.8923 360.595 88.0732 360.595 88.0732C360.595 88.0732 362.834 87.3516 363.116 86.6714C363.325 86.1569 362.953 86.0977 362.753 86.1036C362.981 86.077 363.472 85.9942 363.624 85.7192C363.821 85.3584 363.06 84.9326 363.06 84.9326C363.1 84.8455 363.121 84.7499 363.121 84.6531C363.121 84.5563 363.1 84.4607 363.06 84.3736C362.933 84.0129 360.026 83.4865 360.026 83.4865C360.872 83.5841 361.182 82.6998 361.182 82.6998C361.182 82.6998 362.62 82.7324 362.958 82.1409C363.297 81.5494 362.733 81.3868 361.774 80.8959C360.815 80.405 358.697 78.5656 358.697 78.5656C358.697 78.5656 360.026 78.4355 360.389 78.1072C360.753 77.7789 360.418 77.7139 360.418 77.7139C361.997 77.8765 361.461 76.9923 361.461 76.9923C360.206 76.5894 359.082 75.8287 358.215 74.7951C358.215 74.7951 359.205 74.5644 359.713 74.0735C360.22 73.5826 359.29 73.4495 359.29 73.4495C359.29 73.4495 361.151 73.1863 360.079 72.4647C359.264 71.9176 357.959 71.1783 357.541 70.9565C357.984 71.1281 358.991 70.924 358.991 70.924C360.178 70.3651 358.991 69.5459 358.991 69.5459C357.609 68.7268 355.579 66.6596 355.579 66.6596C355.579 66.6596 356.594 67.2156 357.101 67.0529C357.609 66.8903 356.537 66.2338 356.537 66.2338C356.537 66.2338 357.073 66.3964 357.299 66.2338C357.524 66.0711 356.707 65.3141 356.707 65.3141C355.488 64.486 353.991 62.3095 353.362 61.375C352.736 62.3095 351.236 64.486 350.02 65.3141C350.02 65.3141 349.2 66.0682 349.425 66.2338C349.651 66.3994 350.189 66.2338 350.189 66.2338C350.189 66.2338 349.115 66.8873 349.625 67.0529C350.136 67.2186 351.151 66.6596 351.151 66.6596C351.151 66.6596 349.118 68.7297 347.736 69.5459C347.736 69.5459 346.552 70.3651 347.736 70.924C347.736 70.924 348.743 71.1281 349.188 70.9565C348.782 71.1783 347.479 71.9176 346.664 72.4647C345.59 73.1863 347.454 73.4495 347.454 73.4495C347.454 73.4495 346.523 73.5796 347.031 74.0735C347.539 74.5673 348.526 74.7951 348.526 74.7951C347.66 75.8301 346.536 76.5911 345.28 76.9923C345.28 76.9923 344.744 77.8795 346.326 77.7139C346.326 77.7139 345.988 77.7789 346.354 78.1072C346.721 78.4355 348.046 78.5656 348.046 78.5656C348.046 78.5656 345.931 80.402 344.97 80.8959C344.008 81.3898 343.447 81.5494 343.785 82.1409C344.124 82.7324 345.562 82.6998 345.562 82.6998C345.562 82.6998 345.872 83.587 346.721 83.4865C346.721 83.4865 343.813 84.0099 343.687 84.3736C343.646 84.4607 343.625 84.5563 343.625 84.6531C343.625 84.7499 343.646 84.8455 343.687 84.9326C343.687 84.9326 342.911 85.3584 343.108 85.7192C343.258 85.9942 343.751 86.077 343.977 86.1036C343.777 86.1036 343.413 86.1569 343.616 86.6714C343.898 87.3605 346.129 88.082 346.129 88.082C346.129 88.082 344.236 88.9012 342.883 88.082C342.823 88.1045 342.769 88.1419 342.726 88.191C342.682 88.2401 342.651 88.2994 342.635 88.3639C342.618 88.4284 342.616 88.4962 342.63 88.5614C342.644 88.6267 342.673 88.6874 342.714 88.7386C343.024 89.1644 342.883 89.262 342.883 89.262C342.883 89.262 342.178 88.7031 342.488 89.5577C342.798 90.4124 344.434 90.9358 344.434 90.9358C344.434 90.9358 343.503 91.0985 343.785 91.6248C344.067 92.1512 345.252 92.7723 346.552 92.9024C347.852 93.0325 349.597 92.5416 349.597 92.5416C349.597 92.5416 348.413 93.1981 349.231 93.5589C350.048 93.9197 350.982 93.1005 350.982 93.1005C350.982 93.1005 350.813 93.9404 351.49 93.6506C351.943 93.4399 352.362 93.1543 352.73 92.8048C352.73 92.8048 352.942 94.0409 353.365 93.7452C353.788 94.0409 353.999 92.8048 353.999 92.8048C354.368 93.1548 354.788 93.4404 355.243 93.6506C355.92 93.9463 355.751 93.1005 355.751 93.1005C355.751 93.1005 356.681 93.9197 357.499 93.5589C358.317 93.1981 357.132 92.5416 357.132 92.5416C357.132 92.5416 358.881 93.0355 360.181 92.9024C361.481 92.7693 362.662 92.1483 362.944 91.6248C363.226 91.1014 362.296 90.9358 362.296 90.9358C362.296 90.9358 363.934 90.4094 364.244 89.5577C364.555 88.706 363.841 89.2531 363.841 89.2531Z" fill="#E0E0E0"/>
<path d="M382.403 99.6172H386.351V85.3868H382.403V99.6172Z" fill="#EBEBEB"/>
<path d="M399.342 85.3443C399.342 85.3443 399.148 85.2083 399.576 84.6228C400.005 84.0372 399.342 83.7178 399.342 83.7178C397.475 84.8475 394.872 83.7178 394.872 83.7178C394.872 83.7178 397.943 82.7242 398.333 81.7779C398.615 81.0681 398.11 80.9883 397.833 80.9942C398.147 80.9617 398.823 80.8434 399.032 80.4678C399.314 79.971 398.234 79.3825 398.234 79.3825C398.289 79.2625 398.317 79.1311 398.317 78.998C398.317 78.8649 398.289 78.7335 398.234 78.6136C398.059 78.1168 394.058 77.3952 394.058 77.3952C395.222 77.5312 395.651 76.3099 395.651 76.3099C395.651 76.3099 397.625 76.3572 398.099 75.544C398.572 74.7307 397.788 74.503 396.466 73.8258C395.143 73.1486 392.236 70.6201 392.236 70.6201C392.236 70.6201 394.063 70.4397 394.568 69.9873C395.073 69.5348 394.607 69.4461 394.607 69.4461C396.782 69.6708 396.046 68.4524 396.046 68.4524C394.316 67.8982 392.768 66.8496 391.576 65.4242C391.576 65.4242 392.935 65.1107 393.635 64.4306C394.334 63.7504 393.051 63.5729 393.051 63.5729C393.051 63.5729 395.617 63.2122 394.139 62.2185C393.011 61.4644 391.223 60.4442 390.665 60.1484C391.277 60.385 392.664 60.1011 392.664 60.1011C394.294 59.3322 392.664 58.2055 392.664 58.2055C390.758 57.0758 387.961 54.231 387.961 54.231C387.961 54.231 389.371 54.9969 390.059 54.7721C390.747 54.5474 389.283 53.6425 389.283 53.6425C389.283 53.6425 390.022 53.8672 390.332 53.6425C390.642 53.4177 389.514 52.3767 389.514 52.3767C387.839 51.2352 385.775 48.2366 384.912 46.9531C384.041 48.2277 381.977 51.2293 380.301 52.3679C380.301 52.3679 379.173 53.4088 379.487 53.6336C379.8 53.8583 380.536 53.6336 380.536 53.6336C380.536 53.6336 379.058 54.5356 379.757 54.7633C380.457 54.991 381.855 54.2221 381.855 54.2221C381.855 54.2221 379.058 57.067 377.154 58.1966C377.154 58.1966 375.522 59.3234 377.154 60.0922C377.154 60.0922 378.542 60.388 379.154 60.1396C378.59 60.4353 376.799 61.4615 375.677 62.2096C374.202 63.2033 376.765 63.5641 376.765 63.5641C376.765 63.5641 375.482 63.7445 376.181 64.4217C376.881 65.0989 378.243 65.4153 378.243 65.4153C377.05 66.8407 375.502 67.8894 373.773 68.4436C373.773 68.4436 373.034 69.662 375.211 69.4372C375.211 69.4372 374.743 69.5259 375.251 69.9784C375.758 70.4308 377.58 70.6112 377.58 70.6112C377.58 70.6112 374.667 73.1397 373.35 73.8169C372.033 74.4941 371.252 74.7218 371.72 75.5351C372.188 76.3483 374.168 76.301 374.168 76.301C374.168 76.301 374.594 77.5224 375.761 77.3863C375.761 77.3863 371.757 78.1079 371.582 78.6047C371.527 78.7247 371.498 78.8561 371.498 78.9892C371.498 79.1223 371.527 79.2537 371.582 79.3736C371.582 79.3736 370.513 79.9651 370.787 80.4589C370.993 80.8345 371.672 80.9528 371.985 80.9853C371.703 80.9853 371.196 81.0593 371.486 81.769C371.875 82.7153 374.943 83.709 374.943 83.709C374.943 83.709 372.341 84.8386 370.477 83.709C370.477 83.709 369.814 84.0254 370.243 84.6139C370.671 85.2024 370.477 85.3355 370.477 85.3355C370.477 85.3355 369.504 84.5695 369.932 85.7435C370.361 86.9176 372.614 87.6392 372.614 87.6392C372.614 87.6392 371.331 87.8669 371.72 88.5884C372.109 89.31 373.739 90.1676 375.527 90.3628C377.315 90.558 379.723 89.866 379.723 89.866C379.723 89.866 378.093 90.7532 379.219 91.2648C380.344 91.7764 381.63 90.6319 381.63 90.6319C381.63 90.6319 381.396 91.7882 382.329 91.3919C382.954 91.1012 383.531 90.7079 384.038 90.2268C384.038 90.2268 384.32 91.9301 384.912 91.522C385.493 91.9301 385.786 90.2268 385.786 90.2268C386.293 90.7087 386.87 91.1021 387.495 91.3919C388.429 91.7882 388.195 90.6319 388.195 90.6319C388.195 90.6319 389.478 91.7616 390.603 91.2648C391.728 90.7679 390.098 89.866 390.098 89.866C390.098 89.866 392.509 90.5432 394.294 90.3628C396.079 90.1824 397.715 89.3218 398.104 88.5884C398.493 87.855 397.21 87.6392 397.21 87.6392C397.21 87.6392 399.466 86.9176 399.892 85.7435C400.318 84.5695 399.342 85.3443 399.342 85.3443Z" fill="#E0E0E0"/>
<path d="M390.584 58.3264L390.524 58.2969C390.546 58.3031 390.566 58.3131 390.584 58.3264Z" fill="black"/>
<path d="M397.803 99.616C397.803 99.6574 369.885 99.6928 335.48 99.6928C301.076 99.6928 273.158 99.6574 273.158 99.616C273.158 99.5746 301.057 99.5391 335.48 99.5391C369.904 99.5391 397.803 99.5716 397.803 99.616Z" fill="#E0E0E0"/>
<path d="M331.188 115.235C330.845 114.987 330.531 114.697 330.252 114.371C329.935 114.082 329.652 113.756 329.406 113.398C329.751 113.645 330.065 113.935 330.342 114.262C330.659 114.551 330.943 114.877 331.188 115.235Z" fill="#E0E0E0"/>
<path d="M331.781 114.884C331.532 114.553 331.354 114.168 331.259 113.758C331.117 113.362 331.059 112.938 331.09 112.516C331.132 112.516 331.206 113.063 331.4 113.713C331.595 114.364 331.815 114.864 331.781 114.884Z" fill="#E0E0E0"/>
<path d="M333.171 112.5C333.096 112.931 332.976 113.351 332.813 113.754C332.691 114.173 332.525 114.575 332.316 114.955C332.387 114.523 332.507 114.102 332.675 113.701C332.792 113.281 332.959 112.877 333.171 112.5Z" fill="#E0E0E0"/>
<path d="M280.716 108.466C280.362 108.243 280.052 107.951 279.802 107.606C279.519 107.29 279.292 106.924 279.134 106.523C279.414 106.836 279.679 107.163 279.926 107.505C280.349 108.041 280.744 108.434 280.716 108.466Z" fill="#E0E0E0"/>
<path d="M281.336 108.553C281.261 107.765 281.284 106.97 281.404 106.188C281.463 106.579 281.476 106.976 281.443 107.37C281.455 107.768 281.419 108.165 281.336 108.553Z" fill="#E0E0E0"/>
<path d="M283.857 106.555C283.678 106.932 283.456 107.285 283.197 107.607C282.975 107.958 282.715 108.281 282.422 108.569C282.599 108.191 282.819 107.837 283.079 107.516C283.3 107.163 283.561 106.84 283.857 106.555Z" fill="#E0E0E0"/>
<path d="M287.608 124.014C287.229 123.783 286.875 123.508 286.554 123.195C286.202 122.921 285.88 122.607 285.595 122.258C285.974 122.49 286.327 122.764 286.649 123.077C287.001 123.351 287.323 123.666 287.608 124.014Z" fill="#E0E0E0"/>
<path d="M288.35 123.762C288.252 123.122 288.252 122.469 288.35 121.828C288.447 122.469 288.447 123.122 288.35 123.762Z" fill="#E0E0E0"/>
<path d="M290.609 121.914C290.495 122.385 290.296 122.828 290.022 123.219C289.79 123.638 289.481 124.006 289.114 124.301C289.083 124.268 289.489 123.792 289.901 123.136C290.312 122.479 290.569 121.897 290.609 121.914Z" fill="#E0E0E0"/>
<path d="M349.198 106.538C348.938 106.36 348.708 106.141 348.515 105.887C348.291 105.667 348.101 105.413 347.951 105.133C348.211 105.309 348.442 105.529 348.634 105.783C348.859 106.002 349.049 106.256 349.198 106.538Z" fill="#E0E0E0"/>
<path d="M349.922 106.251C349.752 105.992 349.626 105.705 349.547 105.402C349.422 105.117 349.343 104.812 349.312 104.5C349.479 104.76 349.605 105.047 349.685 105.349C349.809 105.634 349.889 105.939 349.922 106.251Z" fill="#E0E0E0"/>
<path d="M350.903 106.273C350.942 105.638 351.077 105.013 351.304 104.422C351.31 104.741 351.267 105.06 351.177 105.365C351.133 105.681 351.041 105.988 350.903 106.273Z" fill="#E0E0E0"/>
<path d="M347.705 125.708C347.324 125.461 346.97 125.17 346.65 124.841C346.298 124.551 345.976 124.222 345.691 123.859C346.071 124.108 346.425 124.399 346.746 124.726C347.099 125.016 347.42 125.345 347.705 125.708Z" fill="#E0E0E0"/>
<path d="M348.402 125.7C348.239 125.393 348.121 125.062 348.052 124.719C347.935 124.39 347.864 124.045 347.841 123.695C348.003 124.003 348.122 124.334 348.193 124.677C348.309 125.006 348.38 125.351 348.402 125.7Z" fill="#E0E0E0"/>
<path d="M349.967 125.775C349.982 125.145 350.095 124.521 350.302 123.93C350.287 124.56 350.174 125.183 349.967 125.775Z" fill="#E0E0E0"/>
<path d="M390.364 114.192C389.735 113.65 389.172 113.03 388.688 112.344C389.018 112.595 389.318 112.888 389.58 113.216C389.877 113.507 390.14 113.835 390.364 114.192Z" fill="#E0E0E0"/>
<path d="M391.466 114.088C391.364 113.388 391.364 112.676 391.466 111.977C391.564 112.677 391.564 113.388 391.466 114.088Z" fill="#E0E0E0"/>
<path d="M393.17 114.113C393.13 114.092 393.305 113.678 393.432 113.146C393.559 112.614 393.593 112.161 393.635 112.164C393.699 112.503 393.678 112.854 393.573 113.181C393.517 113.523 393.378 113.844 393.17 114.113Z" fill="#E0E0E0"/>
<path d="M397.803 132.319C397.803 132.363 369.885 132.396 335.48 132.396C301.076 132.396 273.158 132.363 273.158 132.319C273.158 132.275 301.057 132.242 335.48 132.242C369.904 132.242 397.803 132.278 397.803 132.319Z" fill="#263238"/>
<path d="M332.661 120.454C332.934 120.549 333.186 120.701 333.401 120.901C333.617 121.101 333.792 121.344 333.916 121.616C334.161 122.165 334.282 122.765 334.271 123.37C334.285 124.535 333.8 125.777 333.236 126.783C332.215 126.058 331.826 124.612 331.674 123.867C331.434 122.684 331.674 120.401 332.661 120.454Z" fill="#467BFF"/>
<path d="M334.53 128.54C334.429 128.22 334.41 127.877 334.476 127.546C334.541 127.215 334.688 126.908 334.903 126.656C335.121 126.409 335.385 126.21 335.678 126.071C335.971 125.932 336.287 125.855 336.609 125.846C336.756 125.825 336.906 125.837 337.048 125.883C337.19 125.928 337.321 126.005 337.432 126.109C337.518 126.224 337.573 126.361 337.593 126.505C337.612 126.649 337.594 126.796 337.542 126.931C337.431 127.2 337.255 127.433 337.032 127.609C336.293 128.239 335.469 128.706 334.53 128.54Z" fill="#467BFF"/>
<path d="M333.766 132.216C333.759 132.136 333.759 132.056 333.766 131.977C333.766 131.805 333.786 131.586 333.8 131.323C333.819 130.599 333.949 129.883 334.186 129.203C334.437 128.521 334.855 127.921 335.399 127.464C335.565 127.33 335.746 127.217 335.937 127.127C336.002 127.094 336.059 127.076 336.095 127.062L336.152 127.047C335.897 127.176 335.656 127.331 335.432 127.511C334.912 127.977 334.511 128.573 334.268 129.244C334.035 129.918 333.898 130.625 333.862 131.341C333.839 131.613 333.819 131.838 333.803 131.991C333.796 132.067 333.783 132.142 333.766 132.216Z" fill="#263238"/>
<path d="M332.616 122.211C332.627 122.244 332.635 122.279 332.638 122.314L332.692 122.61C332.734 122.864 332.793 123.237 332.861 123.695C332.999 124.612 333.171 125.884 333.332 127.289C333.493 128.693 333.614 129.974 333.684 130.899C333.721 131.361 333.749 131.736 333.763 131.997C333.763 132.118 333.763 132.215 333.78 132.292C333.784 132.327 333.784 132.361 333.78 132.396C333.771 132.362 333.765 132.327 333.763 132.292C333.763 132.215 333.744 132.118 333.732 131.997C333.707 131.73 333.67 131.358 333.628 130.905C333.541 129.98 333.414 128.705 333.253 127.3C333.092 125.896 332.929 124.624 332.805 123.704C332.745 123.252 332.695 122.882 332.661 122.616C332.644 122.495 332.633 122.394 332.624 122.32C332.617 122.284 332.614 122.248 332.616 122.211Z" fill="#263238"/>
<path d="M333.018 129.439C332.824 128.757 332.478 128.132 332.009 127.618C331.539 127.104 330.959 126.714 330.317 126.482C329.99 126.367 329.575 126.319 329.349 126.592C329.124 126.864 329.234 127.292 329.397 127.609C329.75 128.268 330.282 128.802 330.924 129.145C331.566 129.487 332.291 129.623 333.007 129.534" fill="#467BFF"/>
<path d="M330.596 127.562C330.666 127.577 330.735 127.599 330.802 127.628C330.883 127.653 330.962 127.685 331.039 127.722C331.142 127.766 331.242 127.815 331.34 127.87C331.461 127.935 331.579 128.006 331.693 128.083C331.826 128.169 331.954 128.263 332.076 128.364C332.356 128.598 332.609 128.864 332.832 129.156C333.05 129.455 333.235 129.778 333.382 130.121C333.444 130.27 333.499 130.423 333.546 130.579C333.59 130.713 333.625 130.85 333.65 130.99C333.676 131.104 333.695 131.219 333.706 131.336C333.72 131.424 333.729 131.513 333.732 131.602C333.738 131.677 333.738 131.752 333.732 131.827C333.712 131.827 333.706 131.505 333.593 131.005C333.563 130.868 333.525 130.732 333.481 130.6C333.433 130.447 333.376 130.298 333.311 130.153C333.018 129.48 332.577 128.888 332.026 128.426C331.908 128.32 331.785 128.221 331.656 128.13C331.546 128.05 331.431 127.977 331.312 127.911C330.883 127.675 330.59 127.58 330.596 127.562Z" fill="#263238"/>
<path d="M280.011 132.355C279.738 132.062 279.503 131.734 279.309 131.379C279.075 131.053 278.881 130.697 278.73 130.32C279.002 130.614 279.238 130.942 279.433 131.296C279.666 131.623 279.861 131.978 280.011 132.355Z" fill="#263238"/>
<path d="M280.208 129.539C280.333 129.987 280.41 130.448 280.437 130.914C280.513 131.375 280.542 131.843 280.522 132.31C280.397 131.862 280.32 131.401 280.293 130.935C280.217 130.474 280.188 130.006 280.208 129.539Z" fill="#263238"/>
<path d="M282.148 130.32C282.063 130.682 281.929 131.029 281.748 131.349C281.488 131.894 281.356 132.364 281.316 132.355C281.33 131.976 281.434 131.607 281.618 131.281C281.755 130.939 281.933 130.616 282.148 130.32Z" fill="#263238"/>
<path d="M346.431 132.256C345.923 131.637 345.493 130.952 345.15 130.219C345.422 130.513 345.658 130.84 345.853 131.195C346.087 131.522 346.281 131.879 346.431 132.256Z" fill="#263238"/>
<path d="M346.627 129.438C346.752 129.887 346.828 130.349 346.856 130.816C346.932 131.276 346.961 131.744 346.94 132.211C346.815 131.763 346.738 131.3 346.712 130.833C346.636 130.373 346.607 129.905 346.627 129.438Z" fill="#263238"/>
<path d="M348.567 130.219C348.483 130.581 348.348 130.927 348.167 131.248C347.907 131.792 347.775 132.262 347.735 132.256C347.748 131.878 347.851 131.509 348.034 131.183C348.173 130.839 348.352 130.515 348.567 130.219Z" fill="#263238"/>
<path d="M392.831 132.386C392.559 132.093 392.324 131.765 392.132 131.41C391.896 131.084 391.701 130.729 391.551 130.352C391.823 130.644 392.059 130.972 392.253 131.327C392.488 131.653 392.682 132.009 392.831 132.386Z" fill="#263238"/>
<path d="M393.031 129.586C393.153 130.034 393.23 130.495 393.259 130.961C393.336 131.422 393.363 131.89 393.341 132.357C393.218 131.908 393.142 131.447 393.113 130.982C393.036 130.521 393.009 130.053 393.031 129.586Z" fill="#263238"/>
<path d="M394.983 130.352C394.898 130.714 394.762 131.061 394.579 131.381C394.32 131.925 394.187 132.395 394.151 132.386C394.114 132.377 394.182 131.872 394.447 131.316C394.586 130.972 394.766 130.648 394.983 130.352Z" fill="#263238"/>
<path d="M349.733 23.7996L347.195 24.2727C346.255 25.3907 345.034 26.2102 343.673 26.6385C342.009 27.1681 340.224 27.0912 338.608 26.4206C336.991 25.7499 335.639 24.5249 334.772 22.9453C333.904 21.3656 333.572 19.5244 333.83 17.7217C334.088 15.919 334.921 14.261 336.192 13.018C337.464 11.775 339.099 11.0202 340.832 10.8766C342.565 10.7331 344.293 11.2092 345.735 12.2274C347.177 13.2456 348.247 14.7458 348.772 16.4837C349.297 18.2216 349.245 20.0946 348.625 21.7975L349.733 23.7996Z" fill="#FAFAFA"/>
<path d="M349.732 23.7993L349.665 23.6751L349.456 23.2907L348.641 21.7884C348.638 21.7853 348.633 21.7835 348.628 21.7835C348.624 21.7835 348.619 21.7853 348.616 21.7884L348.65 21.8091C349.107 20.5643 349.264 19.2203 349.106 17.8966C349.058 17.4793 348.977 17.0669 348.864 16.6634C348.808 16.4535 348.726 16.2494 348.658 16.0335C348.586 15.8175 348.499 15.607 348.399 15.4036C347.99 14.5065 347.427 13.6963 346.738 13.0142C345.942 12.2302 344.997 11.631 343.966 11.2554C342.934 10.8799 341.839 10.7365 340.751 10.8347C339.55 10.9594 338.392 11.3712 337.367 12.0383C337.102 12.2083 336.847 12.396 336.605 12.6002C336.478 12.6948 336.371 12.819 336.253 12.9255C336.134 13.0319 336.016 13.1443 335.912 13.2655C335.692 13.5061 335.486 13.7609 335.297 14.0285C335.204 14.1646 335.105 14.2976 335.015 14.4366L334.767 14.8684C334.161 15.9641 333.808 17.1931 333.736 18.4572C333.664 19.7214 333.875 20.9857 334.352 22.1492C334.779 23.1789 335.405 24.1047 336.191 24.8682C336.976 25.6317 337.903 26.2162 338.915 26.5851C339.805 26.9033 340.744 27.0467 341.684 27.0079C342.11 26.9946 342.534 26.9471 342.953 26.866C343.341 26.7764 343.723 26.6628 344.098 26.5259C345.302 26.0666 346.377 25.2968 347.223 24.2873L349.118 23.9235L349.597 23.8289L349.758 23.7934L349.589 23.823L349.101 23.9087L347.192 24.2666C346.348 25.2603 345.282 26.0184 344.09 26.4727C343.72 26.6048 343.343 26.7144 342.962 26.8009C342.546 26.8812 342.126 26.9277 341.704 26.9399C340.18 26.9795 338.679 26.5421 337.393 25.6836C336.106 24.8251 335.093 23.5844 334.482 22.1196C334.008 20.9711 333.796 19.7223 333.863 18.4727C333.93 17.223 334.274 16.0071 334.868 14.9216L335.111 14.4928C335.201 14.3568 335.297 14.2237 335.393 14.0906C335.568 13.8244 335.757 13.5687 335.96 13.3247C336.064 13.2034 336.188 13.0999 336.298 12.9876C336.409 12.8748 336.526 12.7682 336.648 12.6682C336.888 12.4663 337.139 12.2797 337.401 12.1093C338.417 11.4525 339.563 11.0479 340.751 10.9264C342.301 10.7818 343.856 11.1355 345.21 11.9406C346.563 12.7457 347.651 13.9639 348.328 15.4332C348.428 15.6356 348.513 15.8451 348.585 16.0602C348.655 16.2701 348.734 16.4742 348.793 16.6841C348.906 17.0838 348.988 17.4922 349.039 17.9055C349.2 19.2195 349.051 20.5549 348.604 21.7943C348.602 21.7983 348.601 21.8029 348.601 21.8076C348.601 21.8123 348.602 21.8169 348.604 21.8209C348.608 21.8233 348.612 21.8246 348.616 21.8246C348.62 21.8246 348.624 21.8233 348.627 21.8209H348.599L349.428 23.2995L349.645 23.684C349.704 23.755 349.732 23.7993 349.732 23.7993Z" fill="#263238"/>
<path d="M339.087 19.1454C339.088 18.9828 339.043 18.8237 338.957 18.6881C338.871 18.5526 338.749 18.4468 338.606 18.384C338.463 18.3213 338.306 18.3044 338.153 18.3355C338.001 18.3667 337.861 18.4445 337.751 18.559C337.641 18.6736 337.566 18.8198 337.535 18.9791C337.504 19.1385 337.519 19.3039 337.578 19.4543C337.637 19.6048 337.737 19.7335 337.866 19.8243C337.994 19.9152 338.146 19.964 338.301 19.9645C338.404 19.9653 338.506 19.9447 338.601 19.9039C338.697 19.8631 338.784 19.8029 338.857 19.7267C338.93 19.6506 338.988 19.56 339.027 19.4602C339.067 19.3605 339.087 19.2535 339.087 19.1454Z" fill="#263238"/>
<path d="M342.215 19.1473C342.215 18.9853 342.169 18.8269 342.083 18.6922C341.997 18.5575 341.875 18.4525 341.732 18.3905C341.59 18.3285 341.433 18.3123 341.281 18.3439C341.13 18.3755 340.99 18.4535 340.881 18.5681C340.772 18.6826 340.697 18.8286 340.667 18.9875C340.637 19.1464 340.653 19.3111 340.712 19.4608C340.771 19.6104 340.871 19.7384 341 19.8284C341.128 19.9184 341.279 19.9664 341.433 19.9664C341.641 19.9664 341.839 19.8801 341.986 19.7265C342.132 19.5729 342.215 19.3645 342.215 19.1473Z" fill="#263238"/>
<path d="M345.334 19.5526C345.412 19.4126 345.448 19.2515 345.439 19.0896C345.429 18.9278 345.374 18.7725 345.281 18.6435C345.187 18.5144 345.059 18.4174 344.913 18.3647C344.767 18.3121 344.609 18.3061 344.459 18.3476C344.31 18.389 344.175 18.4761 344.073 18.5977C343.971 18.7193 343.905 18.87 343.885 19.0307C343.864 19.1914 343.89 19.3549 343.958 19.5005C344.026 19.646 344.134 19.7671 344.268 19.8484C344.356 19.9025 344.454 19.9378 344.555 19.9523C344.657 19.9668 344.76 19.9601 344.859 19.9326C344.958 19.9051 345.051 19.8574 345.132 19.7922C345.214 19.727 345.282 19.6456 345.334 19.5526Z" fill="#263238"/>
<path d="M312.503 26.1736L314.829 26.6084C315.999 27.9978 317.622 28.8782 319.379 29.0763C321.136 29.2745 322.901 28.7762 324.325 27.6793C325.75 26.5825 326.731 24.9664 327.077 23.149C327.423 21.3315 327.108 19.4441 326.194 17.8578C325.28 16.2715 323.834 15.1011 322.139 14.5767C320.444 14.0524 318.623 14.212 317.034 15.0241C315.446 15.8363 314.204 17.2423 313.554 18.9657C312.904 20.6891 312.892 22.6051 313.521 24.3372L312.503 26.1736Z" fill="#FAFAFA"/>
<path d="M312.502 26.1716L312.565 26.0533L312.753 25.7014L313.504 24.3233C313.505 24.3215 313.507 24.32 313.509 24.319C313.511 24.318 313.513 24.3174 313.515 24.3174C313.517 24.3174 313.519 24.318 313.521 24.319C313.523 24.32 313.525 24.3215 313.526 24.3233L313.495 24.3411C312.934 22.8297 312.865 21.1665 313.298 19.6095C313.351 19.4172 313.425 19.228 313.487 19.0328C313.552 18.83 313.631 18.6323 313.724 18.4413C314.098 17.6198 314.615 16.8778 315.246 16.253C315.976 15.5343 316.842 14.9848 317.787 14.6404C318.733 14.2959 319.737 14.1642 320.734 14.2539C321.835 14.3692 322.896 14.7465 323.836 15.3569C324.078 15.5143 324.311 15.6871 324.533 15.8744C324.651 15.9602 324.747 16.0726 324.857 16.1702C324.967 16.2678 325.074 16.3713 325.17 16.4836C325.371 16.7046 325.559 16.9376 325.734 17.1816C325.819 17.3058 325.909 17.43 325.993 17.5571L326.219 17.9534C326.771 18.9598 327.09 20.0877 327.151 21.2468C327.213 22.4058 327.014 23.5638 326.572 24.6279C326.184 25.5719 325.613 26.4211 324.896 27.122C324.179 27.823 323.331 28.3603 322.406 28.7001C321.599 28.9944 320.748 29.1307 319.894 29.1023C319.504 29.0899 319.115 29.0464 318.732 28.9722C318.376 28.8954 318.025 28.7967 317.68 28.6764C316.577 28.2561 315.592 27.5525 314.815 26.63L313.078 26.2958L312.638 26.2071L312.491 26.1775L312.646 26.2042L313.095 26.2811L314.821 26.5768C315.597 27.4891 316.578 28.1843 317.674 28.5995C318.017 28.7194 318.367 28.8182 318.721 28.8953C319.102 28.9661 319.487 29.0076 319.874 29.0195C321.119 29.0578 322.351 28.748 323.443 28.1219C324.536 27.4957 325.45 26.5758 326.091 25.4566C326.733 24.3375 327.078 23.0594 327.093 21.7537C327.107 20.4481 326.79 19.1619 326.174 18.0273L325.948 17.634C325.867 17.5098 325.779 17.3886 325.694 17.2673C325.521 17.0239 325.333 16.7927 325.13 16.5753C325.037 16.4629 324.925 16.3713 324.823 16.2796C324.722 16.1879 324.62 16.0696 324.502 15.9839C324.283 15.7985 324.053 15.6285 323.814 15.4752C322.883 14.8692 321.832 14.4949 320.743 14.381C319.756 14.2918 318.762 14.421 317.826 14.7603C316.89 15.0996 316.032 15.6414 315.308 16.3506C314.682 16.9672 314.169 17.7001 313.797 18.5123C313.705 18.6975 313.626 18.8892 313.56 19.086C313.495 19.2783 313.422 19.4675 313.368 19.6568C313.266 20.0239 313.191 20.3986 313.143 20.7776C312.999 21.9768 313.135 23.1947 313.54 24.3263C313.543 24.3296 313.545 24.3338 313.545 24.3381C313.545 24.3425 313.543 24.3467 313.54 24.35C313.537 24.3521 313.534 24.3533 313.53 24.3533C313.527 24.3533 313.523 24.3521 313.521 24.35H313.546L312.787 25.7073L312.573 26.0386L312.502 26.1716Z" fill="#263238"/>
<path d="M322.26 21.8977C322.259 21.7484 322.301 21.6023 322.38 21.4779C322.458 21.3535 322.57 21.2564 322.702 21.1989C322.833 21.1413 322.978 21.126 323.117 21.1548C323.257 21.1835 323.386 21.2551 323.486 21.3605C323.587 21.4658 323.656 21.6002 323.684 21.7465C323.712 21.8929 323.698 22.0447 323.644 22.1826C323.589 22.3206 323.497 22.4385 323.379 22.5215C323.26 22.6045 323.121 22.6488 322.979 22.6488C322.885 22.6492 322.791 22.6301 322.704 22.5925C322.617 22.5549 322.537 22.4997 322.471 22.4299C322.404 22.3601 322.351 22.2771 322.315 22.1858C322.278 22.0945 322.26 21.9966 322.26 21.8977Z" fill="#263238"/>
<path d="M319.406 21.8996C319.406 21.751 319.448 21.6058 319.527 21.4823C319.606 21.3587 319.718 21.2625 319.848 21.2056C319.979 21.1488 320.123 21.1339 320.262 21.1629C320.401 21.1919 320.529 21.2634 320.629 21.3684C320.729 21.4735 320.797 21.6073 320.825 21.753C320.853 21.8988 320.839 22.0498 320.784 22.187C320.73 22.3243 320.638 22.4416 320.52 22.5241C320.403 22.6067 320.264 22.6507 320.123 22.6507C319.933 22.6507 319.75 22.5716 319.616 22.4307C319.482 22.2899 319.406 22.0988 319.406 21.8996Z" fill="#263238"/>
<path d="M316.535 22.2751C316.465 22.1464 316.432 21.9986 316.441 21.8504C316.45 21.7021 316.501 21.5601 316.588 21.4423C316.674 21.3244 316.791 21.236 316.926 21.1883C317.06 21.1405 317.204 21.1356 317.341 21.174C317.478 21.2125 317.601 21.2926 317.694 21.4043C317.788 21.516 317.847 21.6543 317.866 21.8015C317.884 21.9488 317.861 22.0986 317.798 22.2318C317.736 22.365 317.637 22.4758 317.514 22.5501C317.432 22.5994 317.342 22.6314 317.249 22.6443C317.156 22.6572 317.061 22.6507 316.97 22.6251C316.879 22.5996 316.794 22.5555 316.72 22.4955C316.645 22.4354 316.582 22.3605 316.535 22.2751Z" fill="#263238"/>
<path d="M361.616 121.823L361.93 128.625C361.93 128.625 355.528 131.251 355.472 132.517L367.911 132.357L367.835 121.711L361.616 121.823Z" fill="#263238"/>
<path d="M365.765 128.019C365.886 128.056 365.99 128.139 366.056 128.251C366.122 128.364 366.146 128.498 366.124 128.628C366.095 128.756 366.02 128.867 365.915 128.938C365.81 129.01 365.683 129.036 365.56 129.012C365.431 128.972 365.322 128.883 365.253 128.763C365.184 128.642 365.159 128.5 365.185 128.362C365.228 128.232 365.318 128.124 365.435 128.063C365.553 128.002 365.688 127.991 365.813 128.033" fill="#E0E0E0"/>
<path d="M367.911 132.36L367.866 131.289L355.966 131.854C355.966 131.854 355.402 132.117 355.484 132.531L367.911 132.36Z" fill="#455A64"/>
<path d="M361.726 128.576C361.726 128.641 362.034 128.668 362.333 128.872C362.632 129.076 362.798 129.345 362.852 129.318C362.905 129.292 362.815 128.919 362.445 128.68C362.076 128.44 361.707 128.517 361.726 128.576Z" fill="white"/>
<path d="M360.429 129.168C360.415 129.23 360.68 129.336 360.889 129.605C361.098 129.875 361.171 130.164 361.222 130.161C361.272 130.158 361.318 129.792 361.052 129.461C360.787 129.129 360.429 129.106 360.429 129.168Z" fill="white"/>
<path d="M359.711 130.844C359.764 130.844 359.846 130.533 359.685 130.181C359.525 129.829 359.24 129.69 359.214 129.746C359.189 129.803 359.367 129.986 359.496 130.279C359.626 130.572 359.649 130.838 359.711 130.844Z" fill="white"/>
<path d="M361.817 127.019C361.842 127.075 362.121 126.983 362.463 127.004C362.804 127.025 363.077 127.134 363.105 127.078C363.134 127.022 362.877 126.797 362.474 126.782C362.071 126.767 361.786 126.965 361.817 127.019Z" fill="white"/>
<path d="M376.261 124.102L376.935 132.323L375.706 138.988C375.684 139.101 375.685 139.218 375.708 139.33C375.731 139.443 375.776 139.549 375.84 139.643C375.903 139.737 375.984 139.816 376.078 139.876C376.172 139.936 376.277 139.975 376.386 139.991C376.511 140.007 376.639 139.992 376.758 139.945C376.877 139.899 376.983 139.823 377.068 139.725C378.176 138.438 382.229 133.686 382.144 133.089C382.051 132.394 381.975 124.365 381.975 124.365L376.261 124.102Z" fill="#263238"/>
<path d="M376.386 139.989L382.116 132.531L382.136 132.88C382.156 133.181 382.073 133.48 381.902 133.723C381.448 134.371 380.159 136.13 377.091 139.72C377.004 139.823 376.894 139.902 376.771 139.949C376.648 139.996 376.515 140.01 376.386 139.989Z" fill="#455A64"/>
<g opacity="0.6">
<path d="M380.367 129.987C380.276 130.069 380.217 130.183 380.2 130.308C380.183 130.432 380.211 130.559 380.277 130.664C380.348 130.763 380.453 130.829 380.57 130.848C380.687 130.867 380.807 130.837 380.903 130.765C381 130.678 381.063 130.558 381.08 130.425C381.097 130.293 381.067 130.159 380.996 130.049C380.911 129.953 380.794 129.897 380.67 129.891C380.546 129.886 380.425 129.932 380.333 130.019" fill="white"/>
</g>
<path d="M377.936 136.277C377.735 136.034 377.492 135.833 377.22 135.685C376.929 135.585 376.623 135.543 376.317 135.564C376.317 135.546 376.405 135.475 376.582 135.434C376.819 135.39 377.063 135.419 377.285 135.516C377.508 135.614 377.699 135.777 377.835 135.987C377.936 136.146 377.956 136.268 377.936 136.277Z" fill="white"/>
<path d="M377.451 137.415C377.222 137.301 376.987 137.202 376.746 137.119C376.494 137.085 376.239 137.067 375.985 137.066C375.959 137.025 376.32 136.827 376.783 136.942C377.245 137.057 377.499 137.388 377.451 137.415Z" fill="white"/>
<path d="M378.875 134.781C378.842 134.822 378.438 134.435 377.815 134.228C377.192 134.021 376.656 134.077 376.653 134.024C376.651 133.97 377.203 133.826 377.869 134.056C378.276 134.165 378.632 134.422 378.875 134.781Z" fill="white"/>
<path d="M378.867 132.275C378.85 132.326 378.413 132.166 377.854 132.181C377.296 132.196 376.864 132.37 376.845 132.32C377.146 132.119 377.493 132.008 377.85 132C378.206 131.993 378.558 132.088 378.867 132.275Z" fill="white"/>
<path d="M378.729 129.849C378.707 129.899 378.261 129.653 377.674 129.721C377.325 129.786 376.986 129.902 376.668 130.067C376.654 130.05 376.73 129.94 376.902 129.819C377.13 129.666 377.388 129.571 377.657 129.541C377.927 129.511 378.199 129.551 378.45 129.656C378.642 129.748 378.738 129.849 378.729 129.849Z" fill="white"/>
<path d="M377.66 129.251C377.63 129.151 377.62 129.045 377.632 128.941C377.641 128.654 377.704 128.372 377.815 128.11C377.881 127.911 378.007 127.741 378.174 127.625C378.232 127.592 378.298 127.58 378.363 127.589C378.428 127.598 378.489 127.628 378.537 127.675C378.627 127.773 378.679 127.903 378.684 128.039C378.689 128.318 378.599 128.589 378.432 128.806C378.264 129.022 378.029 129.169 377.767 129.222C377.512 129.266 377.25 129.229 377.015 129.116C376.779 129.003 376.582 128.818 376.448 128.586C376.414 128.526 376.392 128.46 376.384 128.391C376.376 128.322 376.383 128.253 376.403 128.187C376.428 128.123 376.473 128.069 376.529 128.033C376.586 127.997 376.652 127.982 376.718 127.988C376.912 128.02 377.095 128.106 377.246 128.237C377.465 128.398 377.656 128.598 377.81 128.828C377.873 128.909 377.919 129.003 377.945 129.103C377.726 128.808 377.467 128.548 377.175 128.332C377.04 128.224 376.881 128.154 376.713 128.127C376.677 128.123 376.64 128.131 376.609 128.15C376.577 128.169 376.552 128.199 376.538 128.234C376.528 128.278 376.527 128.324 376.535 128.369C376.543 128.414 376.559 128.456 376.583 128.494C376.704 128.691 376.878 128.847 377.082 128.943C377.286 129.038 377.513 129.069 377.734 129.032C377.951 128.986 378.148 128.864 378.291 128.685C378.434 128.507 378.516 128.284 378.523 128.051C378.522 127.956 378.49 127.864 378.433 127.79C378.407 127.764 378.373 127.747 378.337 127.742C378.301 127.737 378.265 127.743 378.233 127.761C378.092 127.859 377.983 128 377.923 128.166C377.777 128.509 377.689 128.876 377.66 129.251Z" fill="white"/>
<path d="M355.785 66.1C355.186 68.9265 354.984 71.8296 355.184 74.7174C355.317 76.5509 361.106 127.218 361.106 127.218H368.943L366.741 79.6058L367.384 79.7537C367.384 79.7537 371.662 100.064 372.011 103.353C372.324 106.31 376.165 129.539 376.165 129.539L383.559 129.453L380.81 99.4668L378.145 72.2126L377.144 64.2812L355.785 66.1Z" fill="#263238"/>
<path d="M369.053 33.5703L369.222 19.1448C369.374 15.5576 367.513 12.4762 364.09 12.4141L363.771 12.4288C362.234 12.4946 360.777 13.165 359.691 14.3066C358.604 15.4482 357.968 16.9771 357.908 18.5888C357.79 21.6999 357.699 25.1362 357.787 26.7982C357.962 30.2375 361.267 30.6426 361.267 30.6426C361.267 30.6426 361.287 32.7364 361.284 33.7478L360.514 36.1136L363.215 35.4245L369.053 33.5703Z" fill="#AE7461"/>
<path d="M361.267 30.6254C362.785 30.5577 364.253 30.0342 365.497 29.1172C365.497 29.1172 364.569 31.7492 361.284 31.5806L361.267 30.6254Z" fill="#6F4439"/>
<path d="M358.955 21.5506C358.959 21.679 359.011 21.8005 359.1 21.8894C359.188 21.9783 359.306 22.0275 359.429 22.0267C359.489 22.0287 359.548 22.0182 359.604 21.9958C359.66 21.9735 359.711 21.9397 359.754 21.8965C359.797 21.8533 359.832 21.8016 359.856 21.7442C359.88 21.6868 359.893 21.625 359.894 21.5624C359.89 21.4345 359.838 21.3134 359.75 21.2246C359.663 21.1358 359.545 21.0862 359.423 21.0863C359.363 21.0839 359.303 21.0941 359.247 21.1163C359.191 21.1384 359.14 21.1721 359.096 21.2153C359.053 21.2586 359.018 21.3105 358.993 21.368C358.969 21.4256 358.956 21.4877 358.955 21.5506Z" fill="#263238"/>
<path d="M358.664 20.081C358.726 20.1431 359.07 19.8504 359.575 19.8297C360.08 19.809 360.46 20.0574 360.511 19.9923C360.562 19.9273 360.474 19.8474 360.308 19.7321C360.083 19.5837 359.82 19.5114 359.555 19.5251C359.292 19.5348 359.039 19.6322 358.833 19.8031C358.684 19.9361 358.636 20.0544 358.664 20.081Z" fill="#263238"/>
<path d="M363.492 21.5508C363.495 21.6792 363.546 21.8012 363.634 21.8903C363.723 21.9794 363.841 22.0285 363.963 22.0269C364.023 22.0293 364.083 22.0191 364.139 21.9969C364.195 21.9747 364.246 21.941 364.289 21.8977C364.333 21.8544 364.367 21.8025 364.391 21.745C364.415 21.6874 364.428 21.6254 364.428 21.5627C364.425 21.4353 364.375 21.3142 364.288 21.2252C364.201 21.1363 364.085 21.0865 363.963 21.0865C363.903 21.0833 363.843 21.093 363.786 21.1148C363.729 21.1366 363.677 21.1702 363.633 21.2136C363.589 21.2569 363.554 21.3091 363.53 21.3671C363.506 21.425 363.493 21.4875 363.492 21.5508Z" fill="#263238"/>
<path d="M363.616 19.9873C363.676 20.0494 364.02 19.7566 364.524 19.7359C365.029 19.7152 365.41 19.9666 365.461 19.8986C365.511 19.8305 365.424 19.7537 365.258 19.6383C365.033 19.4899 364.77 19.4177 364.505 19.4313C364.242 19.4411 363.989 19.5384 363.783 19.7093C363.633 19.8335 363.585 19.9607 363.616 19.9873Z" fill="#263238"/>
<path d="M361.966 24.1294C361.697 24.0537 361.419 24.013 361.14 24.0081C361.01 24.0081 360.886 23.9785 360.858 23.8869C360.839 23.7487 360.863 23.6078 360.926 23.4847C361.036 23.1505 361.149 22.8045 361.267 22.4378C361.738 20.9592 362.074 19.7319 362.017 19.7112C361.961 19.6905 361.532 20.8941 361.061 22.3727C360.946 22.7394 360.838 23.0884 360.737 23.4226C360.661 23.5883 360.644 23.7771 360.689 23.9549C360.71 24.0016 360.74 24.0429 360.778 24.0756C360.816 24.1084 360.861 24.1318 360.909 24.1441C360.981 24.1611 361.055 24.1691 361.129 24.1678C361.408 24.1917 361.69 24.1788 361.966 24.1294Z" fill="#263238"/>
<path d="M363.399 18.358C363.473 18.4881 363.963 18.3255 364.55 18.287C365.136 18.2486 365.647 18.3225 365.703 18.1806C365.726 18.1125 365.621 17.9972 365.407 17.8848C365.124 17.7664 364.818 17.7168 364.514 17.7399C364.21 17.7629 363.914 17.858 363.65 18.0179C363.442 18.148 363.354 18.2782 363.399 18.358Z" fill="#263238"/>
<path d="M358.58 18.5211C358.69 18.6394 359.096 18.5034 359.592 18.4827C360.088 18.462 360.506 18.5388 360.599 18.4117C360.638 18.3496 360.571 18.2283 360.384 18.116C360.129 17.9811 359.844 17.9208 359.558 17.9415C359.274 17.9509 358.998 18.0419 358.76 18.2047C358.588 18.3525 358.535 18.4649 358.58 18.5211Z" fill="#263238"/>
<path d="M369.052 21.7034C369.109 21.6767 371.28 20.9079 371.308 23.2618C371.337 25.6158 369.069 25.1545 369.052 25.0894C369.036 25.0244 369.052 21.7034 369.052 21.7034Z" fill="#AE7461"/>
<path d="M369.739 24.1813C369.739 24.1813 369.778 24.2108 369.843 24.2404C369.934 24.2783 370.035 24.2783 370.125 24.2404C370.362 24.1458 370.559 23.7495 370.565 23.3236C370.572 23.1197 370.532 22.917 370.449 22.7322C370.428 22.6624 370.391 22.5989 370.342 22.5465C370.293 22.4942 370.233 22.4545 370.167 22.4305C370.122 22.419 370.074 22.4242 370.032 22.4452C369.99 22.4662 369.956 22.5017 369.936 22.5459C369.908 22.6109 369.922 22.6583 369.911 22.6642C369.899 22.6701 369.863 22.6228 369.88 22.5252C369.891 22.4667 369.922 22.4143 369.967 22.3773C369.997 22.3523 370.031 22.3339 370.068 22.3232C370.105 22.3125 370.144 22.3098 370.181 22.3152C370.274 22.3343 370.36 22.3773 370.432 22.4404C370.505 22.5034 370.561 22.5844 370.596 22.676C370.692 22.8799 370.741 23.105 370.737 23.3325C370.737 23.8086 370.497 24.2552 370.173 24.3557C370.113 24.3745 370.05 24.379 369.988 24.3687C369.926 24.3585 369.867 24.3339 369.815 24.2966C369.742 24.2404 369.73 24.1872 369.739 24.1813Z" fill="#6F4439"/>
<path d="M353.371 15.4872C353.412 15.3486 353.501 15.2307 353.619 15.156C353.883 15.0262 354.176 14.9741 354.465 15.0052C355.181 14.981 355.882 14.7868 356.516 14.4374C356.291 14.3266 356.086 14.1788 355.906 13.9997C355.713 13.8177 355.572 13.5833 355.498 13.3224C355.424 13.0615 355.42 12.7842 355.486 12.5211C355.496 12.4721 355.517 12.4262 355.547 12.3872C355.577 12.3481 355.615 12.317 355.658 12.2963C355.805 12.246 355.94 12.3939 356.036 12.5122C356.164 12.6983 356.338 12.8447 356.539 12.9358C356.74 13.0269 356.961 13.0593 357.178 13.0297C357.476 13.0064 357.766 12.9124 358.024 12.7547L358.05 12.7221L358.391 12.3554C359.237 11.4683 359.947 10.8502 360.692 10.5249C361.783 10.0488 363.616 9.83881 364.764 10.1405C365.912 10.4421 366.95 11.4032 367.122 12.6305C367.756 12.039 368.721 12.039 369.505 12.3673H369.524C370.398 12.6837 370.903 13.6419 371.168 14.5704C371.185 14.6207 371.197 14.671 371.211 14.7213C371.508 15.2103 371.915 15.6162 372.395 15.9042C372.48 15.9544 372.576 16.0165 372.587 16.1171C372.584 16.1677 372.57 16.2169 372.544 16.2599C372.518 16.3029 372.483 16.3382 372.44 16.3625C372.232 16.5214 371.993 16.6295 371.741 16.679C371.818 16.8985 371.913 17.1112 372.023 17.3148C372.124 17.4893 372.243 17.6963 372.158 17.8796C372.12 17.9471 372.063 18.0006 371.995 18.0328C371.927 18.0651 371.851 18.0746 371.777 18.06C371.631 18.028 371.492 17.9634 371.371 17.8707C371.47 18.1132 371.569 18.3557 371.67 18.5982C371.355 18.6577 371.03 18.6394 370.723 18.545C370.545 19.4322 370.424 21.0291 370.218 21.6235C369.62 21.6412 369.476 21.5732 369.177 21.6827C368.788 21.8216 368.943 22.5432 368.436 22.3451C368.176 22.2416 367.77 21.2213 367.68 20.9493C367.087 19.1211 366.877 17.1806 367.062 15.2595C366.697 14.8595 366.261 14.5372 365.779 14.3102L365.819 14.3457C364.897 14.0233 363.845 13.7069 362.999 14.1682C362.325 14.529 361.936 15.2683 361.436 15.8628C361.016 16.4035 360.491 16.8446 359.896 17.1571C359.301 17.4696 358.65 17.6463 357.985 17.6756C357.866 18.7165 357.849 20.4169 357.81 21.3899L356.998 19.4558C356.933 19.3405 356.879 19.2281 356.826 19.1128L356.809 19.0773C356.73 18.8893 356.641 18.7057 356.544 18.5273C356.442 18.6449 356.301 18.7155 356.15 18.7236C355.999 18.7316 355.851 18.6764 355.739 18.5701C355.626 18.4639 355.559 18.3152 355.551 18.1569C355.544 17.9985 355.596 17.8435 355.698 17.7258C355.777 17.6129 355.872 17.5132 355.98 17.4301C355.867 17.5471 355.728 17.6315 355.575 17.6751C355.423 17.7186 355.262 17.7198 355.108 17.6785C354.957 17.6313 354.825 17.5333 354.733 17.3998C354.64 17.2662 354.592 17.1044 354.595 16.9392C354.602 16.8268 354.638 16.7186 354.699 16.6255C354.759 16.5325 354.842 16.458 354.939 16.4099C354.531 16.449 354.122 16.3594 353.763 16.1526C353.529 16.0165 353.298 15.7918 353.371 15.4872Z" fill="#263238"/>
<path d="M366.096 13.0312C366.215 13.1198 366.328 13.2187 366.431 13.327C366.694 13.6537 366.871 14.0458 366.947 14.4655C367.007 14.7572 367.038 15.0544 367.04 15.3527C367.04 15.6721 367.026 16.0122 367.007 16.37C366.979 16.7469 366.974 17.1252 366.992 17.5026C367.006 17.7016 367.034 17.8992 367.074 18.0941C367.106 18.3042 367.187 18.5025 367.311 18.6708C367.369 18.7372 367.443 18.7867 367.525 18.8141C367.607 18.8416 367.695 18.8462 367.779 18.8275C367.94 18.7943 368.086 18.7058 368.194 18.5761C368.37 18.3143 368.476 18.0081 368.501 17.6889H368.431C368.533 17.9482 368.67 18.1904 368.84 18.4076C369.002 18.6091 369.232 18.7372 369.483 18.7654C369.599 18.7757 369.716 18.7533 369.821 18.7003C369.919 18.6456 369.998 18.5611 370.049 18.4578C370.096 18.3671 370.119 18.2652 370.117 18.1621C370.11 18.062 370.072 17.9672 370.007 17.893L369.973 17.9285C370.172 18.1608 370.415 18.3471 370.687 18.4756C370.758 18.5092 370.832 18.5378 370.907 18.5613L370.983 18.582C370.983 18.582 370.96 18.5672 370.909 18.5495C370.859 18.5318 370.788 18.4992 370.695 18.4519C370.434 18.3151 370.2 18.1263 370.007 17.8959L369.973 17.9285C370.028 18 370.06 18.0878 370.066 18.1795C370.071 18.2713 370.048 18.3624 370.001 18.4401C369.955 18.531 369.883 18.6052 369.796 18.653C369.7 18.7002 369.594 18.7196 369.488 18.7092C369.255 18.6799 369.041 18.5582 368.89 18.3691C368.729 18.1562 368.597 17.9202 368.498 17.6682L368.45 17.5559L368.428 17.6771C368.406 17.9782 368.309 18.268 368.146 18.517C368.049 18.6337 367.918 18.7138 367.774 18.7447C367.702 18.7601 367.627 18.7557 367.558 18.7318C367.488 18.708 367.425 18.6655 367.376 18.6086C367.261 18.4514 367.185 18.2663 367.156 18.0704C367.116 17.8756 367.089 17.6779 367.077 17.479C367.054 17.1058 367.054 16.7314 367.077 16.3582C367.094 15.9974 367.111 15.6573 367.105 15.335C367.1 15.0362 367.065 14.7388 367.001 14.4478C366.914 14.0303 366.724 13.6439 366.451 13.327C366.35 13.2075 366.23 13.1074 366.096 13.0312Z" fill="#455A64"/>
<path d="M355.96 16.4974C355.96 16.4974 355.96 16.4974 355.985 16.5211L356.067 16.5773C356.113 16.6103 356.16 16.6409 356.208 16.669C356.274 16.7096 356.341 16.7462 356.411 16.7784C356.854 16.9819 357.339 17.0672 357.821 17.0268C358.538 16.9667 359.223 16.6916 359.795 16.2342C360.488 15.6721 361.063 14.9677 361.487 14.1642C361.724 13.7442 361.913 13.3125 362.125 12.9162C362.311 12.5255 362.551 12.1649 362.835 11.8457C363.096 11.5623 363.419 11.351 363.777 11.2306C363.939 11.1819 364.108 11.1599 364.276 11.1655C364.432 11.1721 364.587 11.2009 364.736 11.2513C364.992 11.3398 365.226 11.485 365.424 11.6771C365.575 11.8208 365.703 11.9896 365.802 12.1769C365.879 12.3406 365.938 12.5133 365.977 12.6914C365.977 12.6914 365.977 12.6914 365.977 12.656C365.977 12.6205 365.977 12.5909 365.96 12.5495C365.932 12.4153 365.888 12.2853 365.83 12.1621C365.735 11.968 365.609 11.7921 365.458 11.6416C365.256 11.4431 365.017 11.2918 364.756 11.198C364.602 11.1445 364.443 11.1126 364.282 11.1034C364.107 11.0949 363.932 11.1159 363.763 11.1655C363.393 11.2851 363.059 11.5008 362.79 11.7924C362.495 12.1109 362.245 12.4725 362.048 12.8659C361.837 13.2652 361.645 13.6969 361.414 14.1109C360.999 14.9104 360.435 15.6143 359.756 16.181C359.194 16.634 358.521 16.9099 357.816 16.9765C357.341 17.0212 356.863 16.9451 356.422 16.7547C356.263 16.68 356.108 16.594 355.96 16.4974Z" fill="#455A64"/>
<path d="M355.645 14.9931C355.645 14.9931 355.684 15.0286 355.763 15.0788C355.875 15.1483 355.992 15.2086 356.113 15.2592C356.295 15.3382 356.484 15.3996 356.677 15.4426C356.909 15.496 357.146 15.5267 357.384 15.5343C357.624 15.5367 357.862 15.5169 358.098 15.4751C358.29 15.4383 358.478 15.3849 358.662 15.3154C358.785 15.2689 358.905 15.2126 359.02 15.1469C359.064 15.1273 359.105 15.1014 359.141 15.07C359.141 15.0552 358.955 15.1557 358.645 15.2622C358.46 15.3228 358.272 15.3692 358.081 15.4012C357.851 15.4384 357.618 15.4552 357.384 15.4515C357.151 15.4445 356.918 15.4178 356.688 15.3716C356.501 15.3308 356.317 15.2755 356.138 15.206C355.828 15.0877 355.65 14.9813 355.645 14.9931Z" fill="#455A64"/>
<path d="M362.012 25.3582C362.051 25.3582 363.786 24.6484 363.786 24.6484C363.786 24.6484 364.287 25.6983 363.678 26.1803C363.069 26.6623 362.333 26.3607 362.218 26.0709C362.131 25.8394 362.062 25.6011 362.012 25.3582Z" fill="#6F4439"/>
<path d="M362.404 26.2836C362.483 26.3153 362.564 26.3419 362.647 26.3635C362.873 26.3957 363.102 26.3816 363.323 26.3221C363.435 26.2888 363.54 26.2316 363.63 26.1541C363.72 26.0766 363.794 25.9804 363.847 25.8716C363.9 25.7627 363.931 25.6436 363.938 25.5217C363.945 25.3997 363.927 25.2775 363.887 25.1628C363.849 25.0006 363.792 24.8437 363.718 24.6956L363.808 24.7281C363.281 24.9351 362.819 25.1096 362.486 25.2308C362.312 25.3076 362.13 25.3622 361.944 25.3935C362.105 25.2896 362.276 25.2043 362.455 25.1392C362.776 24.9943 363.233 24.7991 363.755 24.5862L363.814 24.5625L363.845 24.6187C363.926 24.7788 363.989 24.9486 364.031 25.1244C364.073 25.2711 364.087 25.4252 364.071 25.5775C364.056 25.7299 364.012 25.8774 363.941 26.0116C363.8 26.2243 363.593 26.3783 363.354 26.4463C363.118 26.5044 362.872 26.5044 362.635 26.4463C362.46 26.3783 362.396 26.2866 362.404 26.2836Z" fill="#263238"/>
<path d="M346.694 54.4112L352.616 58.3148C354.75 59.4977 356.299 58.6401 356.812 56.7475L356.758 49.8038C356.758 49.8038 352.994 47.7012 352.421 47.6095C352.229 47.58 351.945 51.6432 351.945 51.6432L346.234 49.9665L344.793 53.0272L346.694 54.4112Z" fill="#AE7461"/>
<path d="M346.177 49.1496C346.14 49.0816 344.547 46.426 343.639 45.4294C342.731 44.4328 342.714 43.3445 342.071 43.2558C341.428 43.1671 341.313 44.1105 341.62 45.0804C341.927 46.0504 342.748 46.5591 342.522 46.8991C342.297 47.2392 337.147 46.3373 337.147 46.3373C337.147 46.3373 336.482 45.6246 335.96 46.2219C335.96 46.2219 335.131 46.0149 335.196 46.6921C335.261 47.3694 336.767 47.4433 336.767 47.4433L337.514 48.8391L339.246 49.5134C339.327 49.9992 339.544 50.4489 339.869 50.8057C340.156 51.1268 340.482 51.4071 340.839 51.6396C340.909 51.6544 342.452 52.6481 343.236 52.8492C344.02 53.0503 345.063 53.2218 345.063 53.2218L346.487 50.2349C346.482 49.85 346.375 49.4741 346.177 49.1496Z" fill="#AE7461"/>
<path d="M339.272 49.6143C339.125 49.218 339.059 48.7939 339.077 48.3693C339.139 47.7985 339.641 45.2701 339.887 45.2198C340.132 45.1695 340.524 45.0246 340.634 45.7107C340.744 46.3968 340.369 48.0144 340.369 48.0528C340.518 48.4015 340.613 48.7728 340.651 49.1529" fill="#AE7461"/>
<path d="M340.653 49.1576C340.62 49.042 340.594 48.9245 340.574 48.8057C340.542 48.6703 340.502 48.537 340.456 48.4064C340.427 48.3325 340.393 48.2526 340.357 48.1669L340.329 48.0989C340.319 48.0672 340.319 48.033 340.329 48.0013L340.357 47.8505C340.449 47.3774 340.518 46.8996 340.563 46.4191C340.597 46.1433 340.587 45.8632 340.532 45.5911C340.519 45.5292 340.493 45.4709 340.457 45.42C340.421 45.3691 340.376 45.3266 340.323 45.2954C340.195 45.2529 340.057 45.2529 339.928 45.2954C339.9 45.2806 339.869 45.3545 339.838 45.4196C339.807 45.4846 339.782 45.5586 339.756 45.6296C339.708 45.7715 339.666 45.9253 339.626 46.0584C339.55 46.3541 339.483 46.6232 339.421 46.8893C339.302 47.4217 339.201 47.9037 339.139 48.3088C339.101 48.6293 339.121 48.9543 339.198 49.267C339.23 49.3825 339.256 49.5001 339.274 49.6189C339.213 49.5144 339.169 49.4007 339.141 49.2818C339.042 48.9636 339.006 48.6273 339.037 48.294C339.091 47.88 339.181 47.4069 339.294 46.8568C339.35 46.5877 339.415 46.3068 339.491 46.017C339.531 45.8721 339.573 45.7212 339.621 45.5793C339.646 45.5024 339.674 45.4285 339.705 45.3545C339.723 45.3146 339.744 45.276 339.767 45.2392C339.782 45.2172 339.799 45.1973 339.818 45.18C339.835 45.1662 339.854 45.1561 339.875 45.1505H339.9C340.057 45.0957 340.228 45.0957 340.385 45.1505C340.457 45.1919 340.52 45.2494 340.568 45.3188C340.617 45.3883 340.651 45.4681 340.667 45.5527C340.727 45.8443 340.736 46.1447 340.695 46.4398C340.642 46.9254 340.562 47.4073 340.456 47.883L340.422 48.0309C340.422 48.0634 340.422 48.0604 340.422 48.0723L340.447 48.1373C340.481 48.2231 340.509 48.3088 340.534 48.3887C340.579 48.5235 340.612 48.662 340.633 48.8027C340.657 48.9193 340.663 49.0389 340.653 49.1576Z" fill="#6F4439"/>
<path d="M344.801 50.2474C344.543 50.1586 344.279 50.0885 344.012 50.0374C343.71 50.0002 343.405 50.0294 343.115 50.1231C342.747 50.2442 342.414 50.4609 342.147 50.753L342.026 50.8861V50.7028C342.026 50.2207 342.026 49.6973 342.049 49.1502C342.049 49.097 342.049 49.0378 342.049 48.9816C342.078 48.6697 342.051 48.3547 341.97 48.0531C341.933 47.9258 341.85 47.8189 341.739 47.7557C341.627 47.6925 341.496 47.6782 341.375 47.7159C341.322 47.735 341.275 47.7676 341.237 47.8106C341.205 47.8589 341.184 47.9147 341.177 47.9732C341.149 48.1004 341.129 48.2335 341.11 48.3577L341.005 49.0585C340.949 49.4666 340.901 49.8067 340.864 50.0788C340.854 50.2049 340.829 50.3292 340.788 50.4484C340.784 50.322 340.79 50.1954 340.805 50.0699C340.825 49.8274 340.856 49.4785 340.904 49.0467C340.926 48.8279 340.955 48.5913 340.988 48.337C341.005 48.2098 341.025 48.0797 341.051 47.9436C341.051 47.9082 341.067 47.8727 341.076 47.8372C341.088 47.795 341.108 47.7558 341.135 47.7219C341.187 47.6587 341.254 47.6108 341.33 47.5829C341.405 47.5541 341.485 47.5423 341.565 47.5485C341.644 47.5546 341.722 47.5784 341.792 47.6183C341.938 47.7007 342.049 47.8366 342.105 47.9998C342.196 48.3209 342.227 48.6573 342.195 48.9905C342.195 49.0497 342.195 49.1118 342.181 49.168C342.181 49.715 342.159 50.2385 342.147 50.7205L342.029 50.6732C342.32 50.3515 342.688 50.1185 343.095 49.9989C343.4 49.9076 343.721 49.8884 344.034 49.9428C344.151 49.9596 344.267 49.9894 344.378 50.0315C344.462 50.0548 344.543 50.0875 344.621 50.1291C344.685 50.1615 344.745 50.2012 344.801 50.2474Z" fill="#6F4439"/>
<path d="M339.067 47.8864C338.717 47.7938 338.374 47.6702 338.044 47.5167H338.027V47.496C337.899 47.2864 337.755 47.0886 337.595 46.9046C337.415 46.693 337.221 46.4953 337.014 46.3131C336.864 46.1768 336.678 46.0895 336.481 46.0618C336.397 46.0559 336.312 46.0711 336.234 46.106C336.156 46.141 336.087 46.1947 336.033 46.2628V46.183C336.267 46.5497 336.462 46.8602 336.597 47.0702C336.676 47.1812 336.74 47.3024 336.789 47.431C336.691 47.3391 336.605 47.2336 336.535 47.1175C336.383 46.9075 336.174 46.6088 335.929 46.2481L335.9 46.2096L335.929 46.1712C335.995 46.0821 336.081 46.011 336.179 45.9637C336.277 45.9163 336.385 45.8942 336.493 45.8991C336.72 45.9252 336.934 46.0232 337.107 46.18C337.322 46.3709 337.521 46.5806 337.702 46.807C337.865 46.9992 338.011 47.2071 338.137 47.428L338.106 47.3984C338.438 47.5334 338.76 47.6966 339.067 47.8864Z" fill="#6F4439"/>
<path d="M354.99 36.0938C354.012 36.8538 353.216 37.9154 352.968 39.8554L351.451 49.3186L355.769 50.6021L357.26 39.8406L354.99 36.0938Z" fill="#467BFF"/>
<path d="M359.823 33.2701L354.99 36.0943C354.584 38.9215 355.196 54.8818 355.196 54.8818L354.97 70.1827C361.738 73.6989 369.552 72.4125 377.835 69.5912C377.92 69.0016 377.86 68.3989 377.66 67.8405L376.332 54.4293C376.332 54.4293 376.676 44.0789 376.676 43.869C376.676 43.659 377.417 34.0242 377.417 34.0242L369.465 31.5312C369.465 31.5312 366.081 34.4678 363.402 34.6068C361.084 34.7281 361.205 32.5367 361.205 32.5367L359.823 33.2701Z" fill="#467BFF"/>
<path d="M354.852 39.8672C354.875 40.0207 354.884 40.1761 354.88 40.3315C354.88 40.6568 354.88 41.0797 354.905 41.5913C354.905 42.6855 354.934 44.1434 354.953 45.7551C354.973 47.3668 355.007 48.8514 355.044 49.916C355.061 50.4276 355.075 50.8505 355.086 51.1758C355.101 51.3301 355.101 51.4857 355.086 51.6401C355.057 51.4889 355.038 51.3357 355.03 51.1817C355.001 50.886 354.97 50.4542 354.939 49.9219C354.877 48.8573 354.826 47.3846 354.807 45.7581C354.787 44.1316 354.79 42.6588 354.807 41.5913C354.807 41.0797 354.824 40.6568 354.829 40.3315C354.823 40.1763 354.831 40.0209 354.852 39.8672Z" fill="#263238"/>
<path d="M368.266 57.5157C368.165 57.7848 365.68 59.1747 365.68 59.1747H364.552C364.552 59.1747 363.828 58.119 363.87 57.9622C363.912 57.8055 364.341 56.0814 363.74 56.1701C363.14 56.2589 362.736 57.3767 362.652 57.6695C362.62 57.9293 362.658 58.1931 362.759 58.4324C362.759 58.4324 361.732 57.1105 361.027 57.4477C360.322 57.7848 360.664 58.255 360.664 58.255L362.717 60.1151C362.717 60.1151 361.326 59.9347 361.346 61.0023L362.587 61.5938L364.609 61.9545C364.853 61.9978 365.104 61.9765 365.339 61.8924L365.833 61.712C366.464 61.6407 367.087 61.5111 367.697 61.3246C368.359 61.0792 369.053 60.2689 369.053 60.2689L371.65 57.2673C371.65 57.2673 372.014 55.7206 371.179 55.2948C370.345 54.8689 370.615 55.2741 370.348 54.8689C370.08 54.4638 368.991 53.9818 368.938 55.1824C368.895 56.1228 369.282 56.3476 369.344 56.3476C369.406 56.3476 368.672 56.4392 368.266 57.5157Z" fill="#AE7461"/>
<path d="M364.685 59.1699C364.318 59.1659 363.954 59.1143 363.599 59.0162L363.568 58.9955C363.046 58.6435 362.649 58.2828 362.708 58.2266C362.708 58.2266 362.807 58.2975 362.99 58.4129L363.625 58.8742L363.653 58.8949H363.627C363.99 58.9377 364.345 59.0302 364.685 59.1699Z" fill="#6F4439"/>
<path d="M368.038 58.9824C368.038 58.9824 367.954 59.0061 367.818 59.0593C367.633 59.1378 367.468 59.2627 367.339 59.4231C367.22 59.6301 367.091 59.8519 366.953 60.0825V60.1062H366.924C366.785 60.1549 366.649 60.2112 366.515 60.2748C366.277 60.3836 366.053 60.5248 365.85 60.6947C365.768 60.752 365.699 60.8287 365.651 60.9185C365.602 61.0083 365.573 61.1089 365.568 61.2122C365.587 61.3546 365.648 61.4871 365.743 61.5907C365.81 61.6706 365.853 61.709 365.847 61.7179C365.841 61.7268 365.788 61.7031 365.703 61.6322C365.577 61.5313 365.492 61.3847 365.464 61.2211C365.45 61.1026 365.475 60.9829 365.534 60.881C365.599 60.7698 365.68 60.67 365.774 60.5853C365.981 60.3989 366.214 60.2463 366.465 60.1328C366.605 60.0657 366.749 60.0074 366.896 59.9583L366.857 59.9909L367.26 59.3462C367.413 59.1767 367.608 59.0558 367.824 58.9972C367.951 58.9529 368.038 58.9706 368.038 58.9824Z" fill="#6F4439"/>
<path d="M369.335 56.3433C369.349 56.3255 369.411 56.3433 369.51 56.361C369.641 56.3832 369.773 56.3941 369.905 56.3936C370.098 56.3714 370.294 56.3783 370.486 56.4143C370.486 56.4557 370.238 56.5503 369.902 56.5473C369.757 56.5494 369.614 56.5223 369.479 56.4675C369.375 56.4172 369.321 56.361 369.335 56.3433Z" fill="#6F4439"/>
<path d="M371.645 57.2674C371.645 57.2674 372.982 56.8859 374.361 56.4423L377.432 55.286L376.478 49.4986L382.925 47.1328C382.925 47.1328 384.036 55.5847 383.771 57.7376C383.506 59.8431 382.386 60.3429 380.818 60.8782C379.251 61.4134 367.779 60.8161 367.618 61.0763C367.457 61.3365 369.183 58.6957 369.183 58.6957L371.645 57.2674Z" fill="#AE7461"/>
<path d="M369.542 59.6419C369.405 59.9876 369.189 60.2924 368.913 60.5291C368.669 60.8005 368.365 61.0038 368.027 61.1206C368.005 61.0821 368.397 60.8248 368.811 60.4138C369.226 60.0027 369.508 59.6153 369.542 59.6419Z" fill="#6F4439"/>
<path d="M380.275 56.4155C379.854 56.1063 379.407 55.8371 378.941 55.6111C378.454 55.4328 377.953 55.3031 377.443 55.2237C377.969 55.1768 378.497 55.2594 378.987 55.4648C379.477 55.6701 379.914 55.9927 380.263 56.4066L380.275 56.4155Z" fill="#6F4439"/>
<path d="M366.047 59.7109C366.047 59.7316 365.779 59.847 365.351 60.0717L365.004 60.2551L364.806 60.3615L364.756 60.3881H364.725C364.708 60.3929 364.69 60.3929 364.674 60.3881H364.555L363.529 60.2758L362.996 60.2137C362.833 60.188 362.67 60.1732 362.505 60.1693C362.235 60.1502 361.964 60.2107 361.724 60.3438C361.568 60.4384 361.451 60.59 361.394 60.7696C361.355 60.8998 361.352 60.9766 361.341 60.9796C361.329 60.9826 361.312 60.8998 361.341 60.7549C361.361 60.652 361.401 60.5545 361.458 60.4682C361.516 60.3818 361.589 60.3084 361.673 60.2521C361.928 60.0908 362.222 60.0125 362.519 60.0274C362.687 60.0275 362.855 60.0394 363.021 60.0629L363.549 60.122L364.572 60.2462L364.688 60.261C364.688 60.261 364.739 60.2403 364.767 60.2285L364.964 60.1338L365.322 59.9623C365.551 59.8429 365.796 59.7583 366.047 59.7109Z" fill="#6F4439"/>
<path d="M377.417 34.0156C377.601 34.0807 379.755 34.7461 380.928 37.9843C382.102 41.2225 383.653 49.6773 383.653 49.6773L376.298 51.2358L375.195 40.7552L377.417 34.0156Z" fill="#467BFF"/>
<path d="M374.743 41.6172C374.779 41.7394 374.803 41.8653 374.814 41.9928C374.851 42.2678 374.898 42.6108 374.955 43.0219C375.07 43.8913 375.237 45.092 375.46 46.408C375.682 47.7239 375.905 48.9157 376.077 49.7733C376.156 50.1814 376.221 50.5215 376.275 50.7936C376.308 50.9158 376.327 51.042 376.331 51.1691C376.283 51.0519 376.246 50.9301 376.221 50.8054C376.156 50.5688 376.072 50.214 375.976 49.797C375.778 48.9423 375.536 47.7565 375.316 46.4346C375.096 45.1127 374.941 43.9091 374.851 43.0367C374.805 42.599 374.772 42.2441 374.755 41.9987C374.739 41.8722 374.735 41.7444 374.743 41.6172Z" fill="#263238"/>
<path d="M377.217 34.9062C376.569 35.3126 376.004 35.849 375.554 36.4849C375.104 37.1208 374.778 37.8435 374.595 38.6117C374.596 38.3749 374.635 38.14 374.71 37.9167C374.864 37.3682 375.11 36.8526 375.435 36.3938C375.76 35.9301 376.16 35.5297 376.617 35.2108C376.798 35.0722 377.001 34.969 377.217 34.9062Z" fill="#263238"/>
<path d="M297.693 123.336L298.124 130.336L296.322 136.389C296.291 136.492 296.28 136.601 296.291 136.709C296.302 136.816 296.334 136.92 296.385 137.014C296.435 137.108 296.504 137.19 296.586 137.255C296.669 137.32 296.763 137.367 296.863 137.392C296.98 137.421 297.102 137.421 297.219 137.391C297.336 137.361 297.444 137.303 297.535 137.22C298.702 136.147 302.98 132.175 302.963 131.601C302.941 130.948 303.082 123.475 303.082 123.475L297.693 123.336Z" fill="#263238"/>
<path d="M296.872 137.377L302.994 131.078L302.98 131.403C302.967 131.685 302.861 131.953 302.678 132.16C302.188 132.713 300.8 134.207 297.563 137.206C297.47 137.292 297.359 137.353 297.238 137.382C297.118 137.412 296.992 137.411 296.872 137.377Z" fill="#455A64"/>
<path d="M298.694 134.09C298.652 134.108 298.505 133.697 298.076 133.46C297.809 133.336 297.523 133.264 297.23 133.251C297.23 133.233 297.321 133.177 297.493 133.159C297.72 133.143 297.947 133.197 298.147 133.313C298.346 133.427 298.51 133.6 298.618 133.809C298.705 133.972 298.714 134.084 298.694 134.09Z" fill="white"/>
<path d="M298.127 135.104C298.091 135.137 297.868 134.873 297.493 134.743C297.257 134.685 297.019 134.641 296.779 134.61C296.896 134.543 297.026 134.505 297.16 134.5C297.293 134.496 297.426 134.524 297.546 134.584C297.975 134.734 298.167 135.086 298.127 135.104Z" fill="white"/>
<path d="M299.723 132.822C299.424 132.587 299.108 132.378 298.778 132.195C298.214 131.926 297.701 131.929 297.701 131.876C298.089 131.814 298.486 131.871 298.844 132.038C299.203 132.206 299.508 132.478 299.723 132.822Z" fill="white"/>
<path d="M299.948 130.484C299.926 130.528 299.528 130.33 299.004 130.286C298.479 130.241 298.05 130.354 298.039 130.306C298.343 130.151 298.681 130.086 299.017 130.117C299.353 130.148 299.675 130.275 299.948 130.484Z" fill="white"/>
<path d="M315.501 121.826L315.281 128.61C315.281 128.61 321.767 131.121 321.857 132.381L309.3 132.407L309.227 121.82L315.501 121.826Z" fill="#263238"/>
<path d="M311.396 128.052C311.275 128.091 311.173 128.174 311.108 128.287C311.043 128.4 311.02 128.535 311.043 128.664C311.075 128.789 311.151 128.897 311.256 128.966C311.36 129.035 311.486 129.061 311.607 129.037C311.735 128.996 311.843 128.906 311.911 128.786C311.98 128.666 312.003 128.523 311.977 128.386C311.93 128.256 311.837 128.151 311.718 128.091C311.599 128.031 311.462 128.023 311.336 128.067" fill="#E0E0E0"/>
<path d="M309.3 132.411L309.331 131.344L321.361 131.716C321.361 131.716 321.925 131.971 321.857 132.385L309.3 132.411Z" fill="#455A64"/>
<path d="M315.484 128.546C315.484 128.611 315.174 128.64 314.875 128.841C314.576 129.042 314.413 129.32 314.356 129.294C314.3 129.267 314.39 128.898 314.76 128.652C315.129 128.407 315.498 128.486 315.484 128.546Z" fill="white"/>
<path d="M316.801 129.116C316.815 129.178 316.55 129.291 316.344 129.563C316.138 129.835 316.076 130.134 316.022 130.134C315.969 130.134 315.921 129.767 316.186 129.433C316.451 129.099 316.801 129.057 316.801 129.116Z" fill="white"/>
<path d="M317.554 130.768C317.497 130.768 317.413 130.472 317.554 130.108C317.695 129.745 317.996 129.614 318.025 129.668C318.053 129.721 317.872 129.91 317.743 130.2C317.613 130.49 317.613 130.762 317.554 130.768Z" fill="white"/>
<path d="M315.372 126.991C315.344 127.05 315.064 126.962 314.718 126.991C314.371 127.021 314.1 127.13 314.069 127.077C314.038 127.024 314.295 126.781 314.703 126.766C315.112 126.752 315.4 126.941 315.372 126.991Z" fill="white"/>
<path d="M316.259 76.3838L315.413 70.1411L292.495 69.0469L291.796 76.4696L294.263 98.8709C294.585 100.761 294.379 109.573 294.717 111.936C294.802 112.528 297.23 128.692 297.23 128.692H303.434C303.434 128.692 303.792 112.723 303.843 111.392C303.894 110.061 304.125 101.145 304.125 98.8679C304.125 96.1058 305.253 81.8637 305.253 81.8637L306.843 101.118C306.843 101.118 306.714 106.953 306.843 108.189C307.055 110.348 308.643 128.189 308.643 128.189L315.605 128.334C315.605 128.334 317.055 107.521 317.097 103.493C317.165 98.862 316.248 76.6914 316.259 76.3838Z" fill="#263238"/>
<path d="M310.479 35.3281C310.479 35.3281 314.164 36.3484 315.49 41.0593C316.446 44.4572 318.214 49.2982 318.214 49.2982L312.241 50.3481L310.479 35.3281Z" fill="#455A64"/>
<path d="M291.144 36.2318C291.144 36.2318 293.874 34.8567 297.094 33.6797H298.121L304.325 34.0907C306.406 34.3233 308.465 34.7348 310.481 35.321C310.481 35.321 312.252 47.4458 312.602 49.8323C312.977 52.4258 313.352 55.0991 313.352 55.0991L315.343 69.0486C315.974 69.9091 315.811 70.7993 315.721 71.6864C308.772 74.8773 301.057 75.4688 292.182 71.8106C292.064 71.5868 292.006 71.3337 292.014 71.0781C292.022 70.8225 292.096 70.5739 292.227 70.3586C292.317 67.5197 292.509 61.3478 292.644 59.4493C292.644 59.4493 291.666 53.6797 290.952 51.4647C290.106 48.8209 288.674 44.5713 288.674 42.3918C288.668 40.3868 291.144 36.2318 291.144 36.2318Z" fill="#455A64"/>
<path opacity="0.3" d="M295.854 60.2336C295.854 60.2336 298.11 62.3036 299.548 62.2208C300.986 62.138 304.838 58.7993 304.838 58.7993C304.838 58.7993 310.867 61.1355 312.212 61.1651C313.558 61.1947 314.215 61.1651 314.215 61.1651V57.8766L305.278 54.875L297.08 56.1466L295.854 60.2336Z" fill="black"/>
<path d="M311.081 39.3047C311.121 39.3047 311.662 42.8179 312.288 47.1621C312.914 51.5064 313.388 55.0373 313.349 55.0462C313.309 55.0551 312.768 51.533 312.142 47.1858C311.516 42.8386 311.042 39.3106 311.081 39.3047Z" fill="#263238"/>
<path d="M292.947 54.084C292.89 54.1047 291.872 54.4773 291.819 55.1191C291.765 55.7608 292.383 56.3996 292.383 56.3996C292.29 56.4979 292.219 56.6162 292.174 56.7462C292.129 56.8763 292.112 57.015 292.123 57.1528C292.134 57.2906 292.174 57.4242 292.239 57.5443C292.304 57.6644 292.394 57.7683 292.501 57.8486C292.501 57.8486 291.937 58.9931 293.485 59.3273C293.485 59.3273 293.322 60.4392 294.303 60.6758C295.285 60.9124 295.792 60.3534 295.863 60.2381C295.912 60.1832 295.939 60.1108 295.939 60.0355C295.939 59.9602 295.912 59.8878 295.863 59.8329L297.693 59.5964C297.693 59.5964 301.773 59.1262 302.225 58.6885C302.676 58.2508 301.999 54.2822 301.226 54.0752C300.454 53.8682 294.151 53.6197 292.947 54.084Z" fill="#FFBF9D"/>
<path d="M294.574 58.2637C294.574 58.3081 294.266 58.4353 293.967 58.728C293.668 59.0208 293.522 59.3431 293.479 59.3195C293.538 59.0469 293.673 58.7994 293.869 58.6097C294.064 58.4201 294.31 58.2973 294.574 58.2578V58.2637Z" fill="#FF9A6C"/>
<path d="M293.693 57.125C293.71 57.1694 293.411 57.2877 293.062 57.468C292.712 57.6484 292.515 57.9057 292.481 57.8791C292.447 57.8525 292.616 57.5331 292.991 57.332C293.203 57.1962 293.446 57.1246 293.693 57.125Z" fill="#FF9A6C"/>
<path d="M293.279 55.7897C293.279 55.8341 293.039 55.9376 292.774 56.1357C292.509 56.3338 292.334 56.5409 292.298 56.5172C292.261 56.4935 292.402 56.2215 292.69 56.0085C292.852 55.8594 293.063 55.7811 293.279 55.7897Z" fill="#FF9A6C"/>
<path d="M317.918 49.3516C317.876 49.3516 319.159 53.8525 319.159 53.8525L313.499 55.3312L313.017 52.7554L312.718 50.2624L317.918 49.3516Z" fill="#FFBF9D"/>
<path d="M301.403 52.0547C301.598 52.1582 313.45 52.7082 313.45 52.7082C313.45 52.7082 317.83 52.5367 318.972 53.2021C318.972 53.2021 320.444 57.4813 318.69 59.2408C317.257 60.6899 315.836 60.6544 314.012 60.3676C311.947 60.0423 302.794 56.5497 302.794 56.5497L301.403 52.0547Z" fill="#FFBF9D"/>
<path d="M317.529 53.4423C316.834 53.2001 316.126 53.0026 315.408 52.8509C314.683 52.749 313.952 52.6976 313.22 52.6971C313.428 52.6307 313.645 52.5988 313.863 52.6025C314.916 52.55 315.968 52.7345 316.948 53.1437C317.154 53.2128 317.35 53.3134 317.529 53.4423Z" fill="#FF9A6C"/>
<path d="M309.864 43.7004C310.084 43.3695 310.282 43.0227 310.456 42.6624C310.617 42.2721 310.656 40.8437 311.054 40.4415C311.451 40.0393 312.678 38.8269 313.146 38.3714C313.614 37.916 313.761 37.6144 314.049 37.9219C314.198 38.1155 314.285 38.3535 314.297 38.602C314.31 38.8505 314.248 39.0968 314.119 39.3059C313.854 39.8175 312.935 40.687 313.07 41.1927C313.205 41.6984 313.191 42.1745 314.026 42.1686C314.861 42.1627 317.167 41.4352 318.295 41.1542C319.88 40.758 320.244 41.2932 320.244 41.2932C320.244 41.2932 321.034 41.098 321.197 41.4707C321.361 41.8433 320.805 42.3283 320.56 42.5323C320.315 42.7364 320.512 43.5585 318.764 44.6615C318.532 44.8065 319.06 45.2234 317.325 46.0278C316.336 46.4862 315.664 46.9475 314.528 47.1663C312.122 47.6336 311.082 49.0856 311.082 49.0856C311.025 49.0856 307.656 45.6641 308.282 45.1081L309.864 43.7004Z" fill="#FFBF9D"/>
<path d="M320.236 41.2344C320.236 41.2344 320.296 41.2787 320.298 41.4059C320.289 41.4926 320.261 41.5759 320.216 41.6493C320.171 41.7227 320.11 41.7841 320.039 41.8288C319.593 42.0936 319.128 42.3229 318.649 42.5149C318.174 42.7117 317.689 42.8805 317.196 43.0206C316.995 43.0922 316.785 43.1349 316.573 43.1477C316.573 43.1034 317.493 42.8313 318.595 42.37C319.142 42.1393 319.647 41.9175 319.98 41.7401C320.045 41.7084 320.103 41.6628 320.15 41.6063C320.197 41.5498 320.232 41.4835 320.253 41.4118C320.253 41.2994 320.222 41.2373 320.236 41.2344Z" fill="#FF9A6C"/>
<path d="M320.512 42.5953C320.358 42.7546 320.183 42.8909 319.993 43.0005C319.553 43.292 319.094 43.5518 318.62 43.7782C318.147 44.0106 317.658 44.2083 317.159 44.3697C316.955 44.4471 316.743 44.4967 316.527 44.5176C316.527 44.4702 317.461 44.1834 318.558 43.654C319.655 43.1247 320.489 42.5599 320.512 42.5953Z" fill="#FF9A6C"/>
<path d="M316.938 45.5829C317.216 45.3781 317.515 45.2074 317.83 45.0743C318.124 44.8955 318.437 44.7527 318.763 44.6484C318.506 44.887 318.212 45.0781 317.894 45.2133C317.599 45.3948 317.275 45.5199 316.938 45.5829Z" fill="#FF9A6C"/>
<path d="M292.18 52.9173C292.18 52.9173 295.564 60.3104 298.494 60.7333C301.424 61.1562 303.663 57.8086 304.698 56.5754C306.034 54.9903 312.594 47.3635 312.594 47.3635L309.119 44.4062L300.194 51.0601L298.502 48.1028L292.18 52.9173Z" fill="#FFBF9D"/>
<path d="M296.768 59.8053C296.669 59.7628 296.574 59.7093 296.486 59.6456C296.386 59.5744 296.291 59.4943 296.204 59.4061C296.076 59.2947 295.955 59.1741 295.843 59.0453C295.201 58.301 294.626 57.4962 294.126 56.6411C293.531 55.6474 293.04 54.7188 292.716 54.0387C292.546 53.6986 292.414 53.4206 292.326 53.2254C292.275 53.1326 292.235 53.0332 292.208 52.9297C292.274 53.0218 292.331 53.1209 292.377 53.2254C292.496 53.4383 292.637 53.7015 292.806 54.012C293.167 54.6774 293.672 55.5971 294.264 56.5849C294.761 57.4323 295.319 58.239 295.933 58.998C296.039 59.1281 296.152 59.2515 296.272 59.3677C296.361 59.4593 296.455 59.5452 296.554 59.6249C296.632 59.6757 296.704 59.7363 296.768 59.8053Z" fill="#FF9A6C"/>
<path d="M307.981 52.7422C307.933 52.842 307.875 52.9353 307.806 53.0202C307.684 53.1946 307.504 53.4401 307.273 53.7358C306.807 54.3273 306.145 55.1228 305.389 55.9834C304.633 56.8439 303.942 57.6128 303.432 58.1599C303.178 58.4349 302.969 58.6538 302.823 58.8016C302.752 58.8857 302.671 58.9603 302.583 59.0234C302.64 58.9285 302.706 58.8402 302.78 58.7602L303.359 58.086L305.282 55.8798C306.032 55.0193 306.709 54.2356 307.194 53.6649L307.758 52.9847C307.822 52.8943 307.897 52.8128 307.981 52.7422Z" fill="#FF9A6C"/>
<path d="M295.718 41.879C297.605 45.5667 299.725 49.4141 299.725 49.4141L291.753 54.0984C291.753 54.0984 288.626 46.6875 288.601 46.4893C288.601 46.4893 287.492 41.947 288.51 39.3919C289.082 38.0928 289.996 36.9919 291.144 36.2188" fill="#455A64"/>
<path d="M291.144 36.2422L291.105 36.2747L290.978 36.3693C290.871 36.4522 290.696 36.5793 290.51 36.7538C289.935 37.2537 289.436 37.8408 289.027 38.4956C288.743 38.9591 288.527 39.4645 288.386 39.995C288.235 40.6214 288.157 41.265 288.155 41.9113C288.147 43.4505 288.32 44.985 288.668 46.4802C288.753 46.7198 288.871 47.0066 288.979 47.2728C289.086 47.5389 289.204 47.8169 289.317 48.0949L290.025 49.7894C290.507 50.9427 291.009 52.1375 291.525 53.3618L291.821 54.0686L291.72 54.0331L299.689 49.3577L299.666 49.4464C298.468 47.1752 297.475 45.2885 296.776 43.9606L295.978 42.4288C295.893 42.2573 295.823 42.1331 295.775 42.0207C295.748 41.9763 295.726 41.9286 295.71 41.8787C295.71 41.8787 295.738 41.9231 295.792 42.0118L296.012 42.4081C296.206 42.7689 296.485 43.2775 296.838 43.9252C297.549 45.2471 298.558 47.122 299.771 49.3813L299.802 49.4375L299.748 49.47L291.79 54.175L291.72 54.2164L291.686 54.1336L291.404 53.4268L289.906 49.8545L289.204 48.154L288.852 47.3319C288.742 47.0362 288.635 46.8085 288.536 46.5039C288.186 44.9959 288.017 43.4483 288.031 41.8965C288.039 41.2407 288.122 40.5883 288.279 39.9536C288.431 39.4234 288.657 38.92 288.95 38.4601C289.372 37.8053 289.886 37.2219 290.476 36.7301C290.682 36.5586 290.848 36.4344 290.961 36.3605L291.091 36.2777L291.144 36.2422Z" fill="#263238"/>
<path d="M299.17 55.3024C299.11 55.0886 299.084 54.8657 299.094 54.6429C299.078 53.5595 299.359 52.494 299.903 51.5733C300.005 51.3766 300.136 51.1988 300.292 51.0469C299.934 51.6916 299.645 52.376 299.429 53.0874C299.264 53.8132 299.177 54.5562 299.17 55.3024Z" fill="#FF9A6C"/>
<path d="M293.541 29.4709C293.879 29.1575 294.359 29.0717 294.7 28.7701C294.865 28.6067 294.997 28.4102 295.088 28.1922C295.179 27.9743 295.227 27.7393 295.23 27.5014C295.232 27.0249 295.168 26.5505 295.038 26.0938L298.704 31.0324C298.441 31.5904 298.08 32.0919 297.641 32.511C297.423 32.7183 297.158 32.8631 296.871 32.9315C296.584 32.9999 296.285 32.9895 296.003 32.9014C295.439 32.6884 295.078 31.961 295.332 31.3932C295.082 31.634 294.755 31.7677 294.416 31.7677C294.077 31.7677 293.751 31.634 293.501 31.3932C293.268 31.1302 293.142 30.7825 293.15 30.4237C293.157 30.0649 293.297 29.7232 293.541 29.4709Z" fill="#263238"/>
<path d="M304.148 15.0391C305.039 15.737 305.185 16.429 305.219 16.8134C305.219 16.9228 305.219 17.0618 305.115 17.1091C305.068 17.1252 305.018 17.1252 304.971 17.1091L301.993 16.1392" fill="#263238"/>
<path d="M295.922 27.4817C295.219 26.2113 294.619 24.8807 294.131 23.5041C293.644 22.1157 293.484 20.6242 293.666 19.157C293.699 18.9352 294.055 17.4299 294.261 17.4062C294.41 17.4062 294.261 18.7577 294.371 18.8849C295.31 20.0293 295.781 21.5464 295.947 23.0576C296.094 24.5327 296.085 26.0203 295.922 27.4935" fill="#263238"/>
<path d="M307.436 27.5104C307.233 25.81 306.545 22.3471 305.888 19.2301C305.568 17.6258 304.681 16.2082 303.404 15.2632C302.127 14.3181 300.556 13.916 299.007 14.1377L298.689 14.185C295.305 14.9184 293.999 18.405 294.774 22.007L297.101 34.0992L297.318 34.321C298.81 35.8558 300.538 36.6868 302.394 36.6365C303.046 36.6152 303.668 36.3399 304.137 35.8642C304.606 35.3885 304.89 34.7467 304.932 34.0637C304.949 34.0253 304.65 32.0824 304.65 32.0824C304.65 32.0824 307.862 31.0266 307.436 27.5104Z" fill="#FFBF9D"/>
<path d="M304.655 32.075C303.139 32.297 301.594 32.0482 300.211 31.3594C300.211 31.3594 301.587 33.8435 304.813 33.0302L304.655 32.075Z" fill="#FF9A6C"/>
<path d="M305.284 22.6475C305.304 22.777 305.275 22.9095 305.203 23.0171C305.132 23.1247 305.023 23.199 304.901 23.2241C304.841 23.2379 304.78 23.2389 304.72 23.2272C304.66 23.2154 304.603 23.1912 304.553 23.1558C304.502 23.1205 304.459 23.0748 304.426 23.0215C304.392 22.9682 304.37 22.9083 304.359 22.8456C304.338 22.716 304.367 22.5831 304.439 22.4753C304.51 22.3675 304.619 22.2934 304.743 22.269C304.802 22.2552 304.863 22.2542 304.923 22.2659C304.983 22.2777 305.04 22.3019 305.09 22.3373C305.141 22.3726 305.184 22.4183 305.217 22.4716C305.251 22.5249 305.273 22.5848 305.284 22.6475Z" fill="#263238"/>
<path d="M305.397 20.8713C305.346 20.9452 304.954 20.7175 304.452 20.7974C303.95 20.8772 303.606 21.1996 303.552 21.1434C303.499 21.0872 303.552 20.9896 303.708 20.8476C303.904 20.6549 304.152 20.53 304.418 20.4898C304.681 20.4502 304.949 20.5 305.182 20.6318C305.352 20.7264 305.422 20.8388 305.397 20.8713Z" fill="#263238"/>
<path d="M300.944 23.2969C300.964 23.426 300.935 23.5582 300.863 23.6653C300.792 23.7724 300.683 23.8461 300.561 23.8706C300.501 23.8843 300.44 23.8853 300.38 23.8736C300.321 23.8619 300.264 23.8376 300.213 23.8022C300.163 23.7669 300.119 23.7212 300.086 23.6679C300.053 23.6146 300.03 23.5548 300.019 23.492C300.007 23.4268 300.008 23.3597 300.021 23.2947C300.034 23.2297 300.059 23.1679 300.094 23.113C300.13 23.0581 300.175 23.011 300.228 22.9746C300.281 22.9381 300.341 22.913 300.403 22.9006C300.463 22.8874 300.526 22.8873 300.586 22.9003C300.647 22.9134 300.704 22.9392 300.755 22.9763C300.806 23.0134 300.849 23.061 300.881 23.1161C300.914 23.1712 300.935 23.2327 300.944 23.2969Z" fill="#263238"/>
<path d="M300.476 21.7571C300.428 21.831 300.036 21.6033 299.531 21.6831C299.026 21.763 298.685 22.0853 298.631 22.0291C298.578 21.9729 298.631 21.8753 298.789 21.7334C298.984 21.5373 299.233 21.411 299.5 21.3726C299.762 21.333 300.029 21.3828 300.261 21.5146C300.433 21.6033 300.512 21.7245 300.476 21.7571Z" fill="#263238"/>
<path d="M302.831 25.6312C303.084 25.4965 303.352 25.3971 303.629 25.3354C303.756 25.3029 303.874 25.2556 303.883 25.158C303.875 25.015 303.826 24.8779 303.742 24.7647C303.578 24.4483 303.406 24.117 303.223 23.771C302.498 22.3575 301.954 21.1864 302.008 21.1568C302.061 21.1272 302.693 22.2481 303.418 23.6616L303.922 24.6612C304.024 24.8162 304.073 25.0028 304.061 25.1905C304.048 25.2417 304.025 25.2893 303.993 25.3297C303.961 25.3702 303.92 25.4025 303.874 25.4242C303.806 25.4569 303.734 25.4798 303.66 25.4922C303.39 25.5754 303.112 25.6221 302.831 25.6312Z" fill="#263238"/>
<path d="M300.416 20.0424C300.366 20.1902 299.852 20.1193 299.26 20.1961C298.668 20.273 298.183 20.4475 298.104 20.3144C298.067 20.2494 298.152 20.1104 298.347 19.9684C298.605 19.7922 298.898 19.6816 299.204 19.6457C299.51 19.6097 299.82 19.6494 300.109 19.7614C300.326 19.8561 300.439 19.9714 300.416 20.0424Z" fill="#263238"/>
<path d="M305.346 19.9956C305.258 20.1346 304.83 20.0784 304.339 20.1553C303.848 20.2322 303.442 20.3889 303.327 20.2765C303.276 20.2233 303.327 20.0902 303.487 19.9424C303.717 19.7572 303.989 19.6407 304.277 19.6052C304.563 19.5588 304.856 19.5966 305.123 19.7146C305.306 19.827 305.382 19.9276 305.346 19.9956Z" fill="#263238"/>
<path d="M295.386 24.5519C295.327 24.5341 293.04 24.1793 293.429 26.5687C293.818 28.9582 295.967 28.0474 295.967 27.9793C295.967 27.9113 295.386 24.5519 295.386 24.5519Z" fill="#FFBF9D"/>
<path d="M295.155 27.2179C295.155 27.2179 295.118 27.2534 295.059 27.2978C294.976 27.3553 294.875 27.3775 294.777 27.3599C294.529 27.3096 294.264 26.9459 294.182 26.5171C294.141 26.3143 294.141 26.1047 294.182 25.902C294.19 25.8234 294.217 25.7482 294.259 25.6828C294.301 25.6174 294.358 25.5637 294.424 25.5264C294.467 25.5053 294.515 25.5009 294.56 25.514C294.605 25.527 294.644 25.5566 294.67 25.5974C294.712 25.6595 294.706 25.7097 294.718 25.7097C294.729 25.7097 294.76 25.6624 294.718 25.5678C294.696 25.511 294.656 25.464 294.605 25.4347C294.571 25.4151 294.533 25.4031 294.494 25.3996C294.455 25.396 294.416 25.4009 294.379 25.414C294.29 25.4497 294.211 25.5085 294.149 25.5851C294.087 25.6617 294.045 25.7534 294.027 25.8517C293.965 26.0756 293.955 26.312 293.999 26.5407C294.092 27.0198 294.396 27.4279 294.735 27.4693C294.798 27.4766 294.861 27.4687 294.921 27.4462C294.981 27.4236 295.035 27.387 295.079 27.3392C295.155 27.2653 295.155 27.2179 295.155 27.2179Z" fill="#FF9A6C"/>
<path d="M303.769 15.5568C304.094 15.2611 302.797 14.2349 301.838 13.9777C300.388 13.5903 298.276 13.5903 297.106 14.2083C295.696 14.9536 294.599 15.9827 294.102 17.5855C293.635 19.2043 293.579 20.9229 293.939 22.5715C294.008 23.0802 294.202 23.5613 294.503 23.9673C294.903 24.4345 295.394 24.609 295.656 25.3838C295.709 25.6421 295.832 25.8787 296.012 26.064C296.499 26.4484 296.922 25.9161 297.078 25.4311C297.408 24.402 297.269 23.2753 297.131 22.1959C297.069 21.4239 296.89 20.6672 296.601 19.9543C296.423 19.5758 296.184 19.2357 296.037 18.8483C295.947 18.6598 295.896 18.4534 295.888 18.2427C295.881 18.0321 295.916 17.8221 295.992 17.6269C296.033 17.5447 296.082 17.4674 296.139 17.3963C296.395 17.0465 296.737 16.7759 297.128 16.613C297.519 16.4501 297.945 16.4009 298.361 16.4706C299.697 16.7013 301.959 16.9882 302.441 16.4233C303.132 15.6071 303.253 15.1428 303.253 15.1428L303.769 15.5568Z" fill="#263238"/>
<path d="M293.824 24.7603C293.773 24.7278 293.711 24.7337 293.663 24.7012C290.575 22.5335 292.222 19.5289 292.118 18.7394C291.977 17.6274 290.99 19.2628 290.581 17.8522C290.042 15.9595 291.816 14.7618 294.027 13.4725C294.955 12.9313 297.354 12.3487 299.56 12.4108C301.534 12.464 303.034 13.6558 303.942 14.6228C304.17 14.6861 304.383 14.8001 304.565 14.957C305.011 15.5485 304.906 15.8442 304.906 15.8442C304.906 15.8442 300.324 14.339 297.34 18.0888C294.357 21.8386 295.442 24.3552 294.52 24.5711L293.824 24.7603Z" fill="#455A64"/>
<path d="M295.081 14.9609C295.028 15.0052 294.972 15.0447 294.912 15.0792C294.856 15.1177 294.788 15.162 294.712 15.2182C294.636 15.2744 294.546 15.3336 294.453 15.4104C294.232 15.5871 294.023 15.7788 293.827 15.9842C293.586 16.2332 293.362 16.5 293.158 16.7826C292.958 17.0649 292.777 17.3613 292.617 17.6698C292.489 17.9285 292.376 18.1951 292.278 18.4683C292.233 18.5836 292.202 18.693 292.174 18.7876C292.146 18.8823 292.12 18.9621 292.103 19.0301C292.093 19.1006 292.076 19.1699 292.053 19.2371C292.062 19.1655 292.075 19.0944 292.092 19.0242C292.108 18.9404 292.128 18.8575 292.151 18.7758C292.18 18.6782 292.205 18.5688 292.247 18.4505C292.34 18.173 292.45 17.9022 292.577 17.6402C292.736 17.3205 292.918 17.0141 293.122 16.7235C293.326 16.4376 293.552 16.1696 293.798 15.922C293.999 15.7201 294.214 15.5342 294.441 15.3661C294.527 15.2993 294.615 15.2371 294.706 15.1798C294.785 15.1236 294.856 15.0822 294.912 15.0497C294.966 15.0145 295.022 14.9847 295.081 14.9609Z" fill="#263238"/>
<path d="M304.068 14.6668C304.068 14.6668 304.054 14.6668 304.026 14.6668L303.905 14.6401C303.8 14.6135 303.642 14.581 303.442 14.5396C303.242 14.4982 302.991 14.4568 302.7 14.4272C302.372 14.3922 302.041 14.3794 301.711 14.3888C300.85 14.412 299.999 14.5901 299.195 14.9152C298.719 15.1055 298.261 15.3431 297.827 15.6249C297.362 15.9288 296.927 16.2816 296.53 16.6777C296.132 17.0786 295.776 17.5227 295.467 18.0025C295.182 18.4528 294.937 18.93 294.737 19.428C294.404 20.284 294.164 21.1769 294.023 22.0895C293.896 22.8643 293.843 23.5001 293.806 23.9407C293.789 24.1566 293.778 24.3252 293.767 24.4464C293.767 24.4997 293.767 24.544 293.767 24.5765C293.767 24.6091 293.767 24.6239 293.767 24.6239C293.767 24.6239 293.767 24.6061 293.767 24.5765C293.767 24.547 293.767 24.4997 293.767 24.4464C293.767 24.3281 293.767 24.1507 293.792 23.9378C293.82 23.4971 293.868 22.8613 293.989 22.0806C294.126 21.1679 294.362 20.2748 294.694 19.4191C294.894 18.9149 295.138 18.4316 295.425 17.9759C295.736 17.4925 296.095 17.0454 296.496 16.6422C296.897 16.2424 297.335 15.8867 297.805 15.5806C298.242 15.2983 298.704 15.0597 299.184 14.8678C299.995 14.5446 300.854 14.3706 301.722 14.3533C302.053 14.3458 302.385 14.3626 302.714 14.4036C302.996 14.4361 303.256 14.4864 303.456 14.5248C303.656 14.5633 303.814 14.6106 303.919 14.6401L304.037 14.6756L304.068 14.6668Z" fill="#263238"/>
<path d="M295.053 23.3012C294.857 23.3824 294.642 23.3969 294.438 23.3426C294.225 23.3081 294.028 23.2047 293.874 23.0469C294.056 23.1345 294.245 23.2057 294.438 23.2598C294.641 23.295 294.847 23.3088 295.053 23.3012Z" fill="#263238"/>
<path d="M295.862 20.9547C295.784 20.9723 295.704 20.9723 295.626 20.9547C295.238 20.8821 294.885 20.6736 294.624 20.3633C294.564 20.3052 294.516 20.2347 294.483 20.1562C294.843 20.5787 295.33 20.8586 295.862 20.9488V20.9547Z" fill="#263238"/>
<path d="M297.433 17.9392C297.271 17.7301 297.095 17.5325 296.908 17.3477C296.709 17.191 296.5 17.0487 296.282 16.9219C296.53 17.0033 296.759 17.135 296.958 17.3096C297.157 17.4841 297.321 17.6981 297.441 17.9392H297.433Z" fill="#263238"/>
<path d="M299.266 16.4714C299.173 16.2464 299.065 16.0281 298.945 15.8178C298.81 15.6189 298.663 15.4292 298.505 15.25C298.709 15.3809 298.88 15.5627 299.001 15.7794C299.141 15.9845 299.232 16.2218 299.266 16.4714Z" fill="#263238"/>
<path d="M302.267 15.6585C302.26 15.4135 302.21 15.1719 302.12 14.9458C302.011 14.73 301.866 14.5366 301.691 14.375C301.758 14.3988 301.819 14.4383 301.869 14.4903C302.001 14.6072 302.106 14.7524 302.179 14.9162C302.252 15.0803 302.292 15.2586 302.295 15.4396C302.303 15.5139 302.293 15.589 302.267 15.6585Z" fill="#263238"/>
<path d="M304.178 15.7741C304.176 15.5822 304.163 15.3906 304.139 15.2004C304.093 15.0156 304.037 14.8339 303.97 14.6562C304.097 14.8052 304.178 14.9906 304.204 15.1886C304.25 15.3821 304.241 15.5857 304.178 15.7741Z" fill="#263238"/>
<path d="M303.18 26.9821C303.146 26.9821 301.665 26.3906 301.665 26.3906C301.665 26.3906 301.237 27.2778 301.756 27.7007C302.274 28.1236 302.906 27.8545 303.005 27.609C303.079 27.4054 303.138 27.1957 303.18 26.9821Z" fill="#FF9A6C"/>
<path d="M302.848 27.759C302.848 27.759 302.8 27.8448 302.653 27.8921C302.45 27.9414 302.239 27.9414 302.035 27.8921C301.829 27.8324 301.649 27.6997 301.525 27.5165C301.465 27.402 301.427 27.276 301.414 27.146C301.401 27.0161 301.413 26.8847 301.449 26.7595C301.484 26.6069 301.538 26.4598 301.61 26.3218L301.638 26.2656L301.697 26.2893C302.228 26.4826 302.744 26.7168 303.242 26.9902C302.696 26.8493 302.161 26.6654 301.641 26.4401L301.728 26.4076C301.665 26.5326 301.617 26.6659 301.587 26.8038C301.524 27.0175 301.542 27.2487 301.638 27.4485C301.742 27.6066 301.893 27.725 302.066 27.7857C302.25 27.8358 302.442 27.8498 302.63 27.8271C302.704 27.8088 302.777 27.7861 302.848 27.759Z" fill="#263238"/>
<defs>
<clipPath id="clip0_6070_30255">
<rect width="15" height="15" fill="white" transform="translate(33.98 22.4375) rotate(20)"/>
</clipPath>
<clipPath id="clip1_6070_30255">
<rect width="15" height="15" fill="white" transform="translate(101.529 63.0703) rotate(20)"/>
</clipPath>
<clipPath id="clip2_6070_30255">
<rect width="15" height="15" fill="white" transform="translate(106.417 127.531) rotate(20)"/>
</clipPath>
</defs>
</svg>
