<svg width="1440" height="720" viewBox="0 0 1440 720" fill="none" xmlns="http://www.w3.org/2000/svg">
<line y1="50.9287" x2="1440" y2="50.9287" stroke="#F1F5F9"/>
<line y1="102.357" x2="1440" y2="102.357" stroke="#F1F5F9"/>
<line y1="153.786" x2="1440" y2="153.786" stroke="#F1F5F9"/>
<line y1="205.214" x2="1440" y2="205.214" stroke="#F1F5F9"/>
<line y1="256.643" x2="1440" y2="256.643" stroke="#F1F5F9"/>
<line y1="308.071" x2="1440" y2="308.071" stroke="#F1F5F9"/>
<line y1="359.5" x2="1440" y2="359.5" stroke="#F1F5F9"/>
<line y1="410.929" x2="1440" y2="410.929" stroke="#F1F5F9"/>
<line y1="462.357" x2="1440" y2="462.357" stroke="#F1F5F9"/>
<line y1="513.785" x2="1440" y2="513.785" stroke="#F1F5F9"/>
<line y1="565.214" x2="1440" y2="565.214" stroke="#F1F5F9"/>
<line y1="616.643" x2="1440" y2="616.643" stroke="#F1F5F9"/>
<line y1="668.071" x2="1440" y2="668.071" stroke="#F1F5F9"/>
<line y1="719.5" x2="1440" y2="719.5" stroke="#F1F5F9"/>
<line x1="120.5" y1="2.18557e-08" x2="120.5" y2="732" stroke="#F1F5F9"/>
<line x1="206.214" y1="2.18557e-08" x2="206.214" y2="732" stroke="#F1F5F9"/>
<line x1="291.929" y1="2.18557e-08" x2="291.929" y2="732" stroke="#F1F5F9"/>
<line x1="377.643" y1="2.18557e-08" x2="377.643" y2="732" stroke="#F1F5F9"/>
<line x1="463.357" y1="2.18557e-08" x2="463.357" y2="732" stroke="#F1F5F9"/>
<line x1="549.071" y1="2.18557e-08" x2="549.071" y2="732" stroke="#F1F5F9"/>
<line x1="634.786" y1="2.18557e-08" x2="634.786" y2="732" stroke="#F1F5F9"/>
<line x1="720.5" y1="2.18557e-08" x2="720.5" y2="732" stroke="#F1F5F9"/>
<line x1="806.214" y1="2.18557e-08" x2="806.214" y2="732" stroke="#F1F5F9"/>
<line x1="891.929" y1="2.18557e-08" x2="891.929" y2="732" stroke="#F1F5F9"/>
<line x1="977.643" y1="2.18557e-08" x2="977.643" y2="732" stroke="#F1F5F9"/>
<line x1="1063.36" y1="2.18557e-08" x2="1063.36" y2="732" stroke="#F1F5F9"/>
<line x1="1149.07" y1="2.18557e-08" x2="1149.07" y2="732" stroke="#F1F5F9"/>
<line x1="1234.79" y1="2.18557e-08" x2="1234.79" y2="732" stroke="#F1F5F9"/>
<line x1="1320.5" y1="2.18557e-08" x2="1320.5" y2="732" stroke="#F1F5F9"/>
</svg>
