<svg width="77" height="83" viewBox="0 0 77 83" fill="none" xmlns="http://www.w3.org/2000/svg">
<g clip-path="url(#clip0_9347_9105)">
<path d="M80.798 76.4834H73.2305V76.5405H80.798V76.4834Z" fill="#EBEBEB"/>
<path d="M53.6809 77.1055H51.6953V77.1626H53.6809V77.1055Z" fill="#EBEBEB"/>
<path d="M73.0019 74.3633H68.6172V74.4204H73.0019V74.3633Z" fill="#EBEBEB"/>
<path d="M29.4439 75.7109H8.03906V75.7681H29.4439V75.7109Z" fill="#EBEBEB"/>
<path d="M6.43667 38.8015L5.89743 38.9112C5.77378 38.9387 5.66506 39.0118 5.59305 39.1161C5.52103 39.2203 5.49101 39.3478 5.509 39.4732L5.89287 41.9866C5.90091 42.0469 5.9214 42.1048 5.95302 42.1567C5.98463 42.2086 6.0267 42.2534 6.07654 42.2882C6.12638 42.323 6.18291 42.3471 6.24255 42.3589C6.30218 42.3707 6.36362 42.37 6.42296 42.3568L6.96219 42.2448C7.08567 42.2178 7.19435 42.1451 7.2664 42.0412C7.33846 41.9374 7.36854 41.8101 7.35062 41.685L6.96676 39.1716C6.95871 39.1114 6.93823 39.0535 6.90661 39.0015C6.87499 38.9496 6.83293 38.9048 6.78308 38.87C6.73324 38.8352 6.67671 38.8112 6.61708 38.7994C6.55744 38.7876 6.49601 38.7883 6.43667 38.8015Z" fill="#E6E6E6"/>
<path d="M6.43667 38.8015L5.89743 38.9112C5.77378 38.9387 5.66506 39.0118 5.59305 39.1161C5.52103 39.2203 5.49101 39.3478 5.509 39.4732L5.89287 41.9866C5.90091 42.0469 5.9214 42.1048 5.95302 42.1567C5.98463 42.2086 6.0267 42.2534 6.07654 42.2882C6.12638 42.323 6.18291 42.3471 6.24255 42.3589C6.30218 42.3707 6.36362 42.37 6.42296 42.3568L6.96219 42.2448C7.08567 42.2178 7.19435 42.1451 7.2664 42.0412C7.33846 41.9374 7.36854 41.8101 7.35062 41.685L6.96676 39.1716C6.95871 39.1114 6.93823 39.0535 6.90661 39.0015C6.87499 38.9496 6.83293 38.9048 6.78308 38.87C6.73324 38.8352 6.67671 38.8112 6.61708 38.7994C6.55744 38.7876 6.49601 38.7883 6.43667 38.8015Z" fill="#E6E6E6"/>
<path d="M8.05658 42.1161C7.89744 42.117 7.7434 42.06 7.62317 41.9558C7.50294 41.8515 7.42472 41.7071 7.4031 41.5494L7.04437 39.2029C7.01784 39.016 7.04892 38.8255 7.13348 38.6568L7.86693 37.2013L7.70013 36.1091L8.4313 35.956C8.58603 35.9223 8.7478 35.9474 8.88507 36.0263C9.02234 36.1053 9.1253 36.2326 9.17388 36.3833L9.3841 37.0208C9.42071 37.1329 9.42779 37.2525 9.40466 37.3681L9.25843 38.0993L10.7185 37.7977L11.2508 38.2752L11.212 40.5761C11.2101 40.7186 11.1707 40.8581 11.0978 40.9805L10.9401 41.2524C10.8824 41.3522 10.8044 41.4388 10.7111 41.5065C10.6178 41.5742 10.5113 41.6215 10.3986 41.6454L8.19595 42.1024C8.15003 42.1114 8.10337 42.116 8.05658 42.1161ZM7.95833 36.2874L8.10456 37.2379L7.33684 38.7596C7.27309 38.8858 7.24995 39.0287 7.27058 39.1686L7.6293 41.5152C7.63707 41.5742 7.65714 41.631 7.68824 41.6817C7.71933 41.7325 7.76076 41.7762 7.80981 41.8099C7.90985 41.8767 8.03218 41.9013 8.15026 41.8785L10.3529 41.4215C10.4344 41.404 10.5113 41.3695 10.5786 41.3203C10.646 41.2711 10.7022 41.2082 10.7436 41.1359L10.9013 40.8663C10.953 40.7773 10.9813 40.6767 10.9835 40.5738L11.0201 38.3757L10.6522 38.0444L8.96596 38.394L9.18074 37.3247C9.19563 37.2486 9.19091 37.17 9.16703 37.0962L8.95682 36.461C8.92563 36.3635 8.85916 36.2811 8.77041 36.2299C8.68167 36.1788 8.57704 36.1626 8.477 36.1845L7.95833 36.2874Z" fill="#E6E6E6"/>
<path d="M8.46693 14.2087L7.92999 14.0922C7.80614 14.067 7.67735 14.0891 7.56906 14.1543C7.46076 14.2194 7.38083 14.3228 7.34505 14.444L6.6733 16.8934C6.65662 16.9518 6.65211 17.013 6.66007 17.0733C6.66803 17.1335 6.68828 17.1914 6.71956 17.2435C6.75084 17.2955 6.79248 17.3406 6.84191 17.3759C6.89134 17.4112 6.94749 17.436 7.00689 17.4487L7.54384 17.5652C7.66799 17.5903 7.79703 17.5678 7.90537 17.5022C8.01372 17.4366 8.09345 17.3327 8.12877 17.211L8.80053 14.7639C8.81721 14.7055 8.82171 14.6443 8.81375 14.5841C8.80579 14.5239 8.78554 14.4659 8.75426 14.4139C8.72298 14.3618 8.68134 14.3167 8.63191 14.2814C8.58248 14.2461 8.52633 14.2214 8.46693 14.2087Z" fill="#E6E6E6"/>
<path d="M8.46693 14.2087L7.92999 14.0922C7.80614 14.067 7.67735 14.0891 7.56906 14.1543C7.46076 14.2194 7.38083 14.3228 7.34505 14.444L6.6733 16.8934C6.65662 16.9518 6.65211 17.013 6.66007 17.0733C6.66803 17.1335 6.68828 17.1914 6.71956 17.2435C6.75084 17.2955 6.79248 17.3406 6.84191 17.3759C6.89134 17.4112 6.94749 17.436 7.00689 17.4487L7.54384 17.5652C7.66799 17.5903 7.79703 17.5678 7.90537 17.5022C8.01372 17.4366 8.09345 17.3327 8.12877 17.211L8.80053 14.7639C8.81721 14.7055 8.82171 14.6443 8.81375 14.5841C8.80579 14.5239 8.78554 14.4659 8.75426 14.4139C8.72298 14.3618 8.68134 14.3167 8.63191 14.2814C8.58248 14.2461 8.52633 14.2214 8.46693 14.2087Z" fill="#E6E6E6"/>
<path d="M11.0943 18.4429C11.0367 18.4425 10.9793 18.4364 10.9229 18.4247L8.72715 17.9425C8.6384 17.9241 8.55442 17.8875 8.48047 17.835C8.40653 17.7826 8.34422 17.7154 8.29745 17.6378C8.25068 17.5601 8.22047 17.4736 8.2087 17.3837C8.19692 17.2939 8.20385 17.2025 8.22905 17.1154L8.85739 14.8305C8.90948 14.6507 9.01556 14.4912 9.16128 14.3736L10.4248 13.3408L10.7173 12.2783L11.4484 12.4383C11.6023 12.4702 11.7389 12.5578 11.8321 12.6843C11.9253 12.8109 11.9685 12.9673 11.9534 13.1237L11.8849 13.7909C11.8726 13.9083 11.8292 14.0203 11.7592 14.1154L11.3296 14.7231L12.7874 15.043L13.0776 15.6965L12.1019 17.7826C12.0417 17.911 11.9497 18.0219 11.8346 18.1048L11.5787 18.2876C11.4373 18.3885 11.268 18.4429 11.0943 18.4429ZM10.8818 12.5365L10.6259 13.4642L9.30294 14.5404C9.19266 14.6297 9.11283 14.751 9.07445 14.8877L8.44383 17.1725C8.42769 17.2298 8.42342 17.2897 8.43128 17.3486C8.43914 17.4076 8.45896 17.4643 8.48952 17.5153C8.52002 17.5661 8.56075 17.61 8.60914 17.6442C8.65752 17.6784 8.71249 17.7022 8.77056 17.7141L10.9686 18.1962C11.0501 18.2128 11.1342 18.2125 11.2156 18.1952C11.297 18.1779 11.3739 18.144 11.4416 18.0956L11.6952 17.9128C11.7789 17.8545 11.8465 17.7759 11.8917 17.6844L12.8217 15.6919L12.6206 15.235L10.9366 14.8648L11.5695 13.976C11.6154 13.9129 11.6438 13.8388 11.6518 13.7612L11.7204 13.094C11.7346 12.9909 11.709 12.8861 11.6487 12.8012C11.5884 12.7163 11.498 12.6576 11.3959 12.637L10.8818 12.5365Z" fill="#E6E6E6"/>
<path d="M68.0238 41.054L68.1494 41.006L68.2134 40.9832C68.2955 40.9557 68.3756 40.9229 68.4533 40.8849L68.5036 40.8644C68.7223 40.7512 68.9164 40.5959 69.0748 40.4074C69.0954 40.3822 69.1159 40.3571 69.1342 40.3297C69.3245 40.079 69.4365 39.7778 69.4564 39.4637C69.4564 39.4294 69.4564 39.3952 69.4564 39.3609C69.4551 39.0913 69.3652 38.8295 69.2005 38.616C68.7778 38.0768 67.9666 37.9877 67.2972 38.3761C67.1167 37.6244 66.4952 37.0966 65.812 37.1628C65.5433 37.1912 65.2913 37.3067 65.0945 37.4919L65.0214 37.5627C64.8087 37.7947 64.6681 38.0837 64.617 38.3944C64.617 38.4264 64.6056 38.4584 64.601 38.4904C64.5861 38.6263 64.5861 38.7634 64.601 38.8993C64.6121 39.0098 64.6327 39.1192 64.6627 39.2261L64.681 39.2718C64.7072 39.3572 64.74 39.4405 64.7792 39.5208L64.8044 39.5802L64.8569 39.7059L65.3687 40.9306L65.4213 41.0563L65.7892 41.9314L66.6734 41.5932L66.7991 41.5452L68.0238 41.054Z" fill="#EBEBEB"/>
<path d="M67.4467 15.3305L67.5084 15.2094L67.5381 15.15C67.5807 15.0765 67.6181 15.0002 67.6501 14.9215L67.6729 14.8712C67.7104 14.7673 67.7387 14.6603 67.7575 14.5514C67.7816 14.4157 67.7901 14.2777 67.7826 14.1401V14.0441C67.753 13.7304 67.6331 13.432 67.4376 13.185L67.3713 13.1096C67.1898 12.9124 66.9493 12.7794 66.6859 12.7303C66.0004 12.6138 65.3515 13.0936 65.1161 13.8316C64.4764 13.3952 63.6607 13.4249 63.2014 13.9344C63.0216 14.1346 62.9124 14.3883 62.8907 14.6565C62.8907 14.6907 62.8907 14.725 62.8907 14.7593C62.8885 15.0744 62.9782 15.3832 63.1489 15.6481C63.1649 15.6755 63.1831 15.7029 63.2014 15.7281C63.2808 15.8396 63.3719 15.9422 63.4733 16.0342C63.5553 16.1093 63.644 16.1766 63.7384 16.2353L63.7818 16.2559C63.8595 16.3014 63.9404 16.3411 64.024 16.3747L64.0811 16.4021L64.2045 16.4592L65.4086 17.0213L65.532 17.0784L66.3911 17.4806L66.8184 16.6352L66.8778 16.5141L67.4467 15.3305Z" fill="#EBEBEB"/>
<path d="M35.1219 83.0001C59.5891 83.0001 79.4236 81.8421 79.4236 80.4136C79.4236 78.9852 59.5891 77.8271 35.1219 77.8271C10.6548 77.8271 -9.17969 78.9852 -9.17969 80.4136C-9.17969 81.8421 10.6548 83.0001 35.1219 83.0001Z" fill="#F5F5F5"/>
<path d="M61.6249 77.7735C61.2593 80.1497 60.5327 81.7789 57.6218 81.7789C54.7108 81.7789 53.9819 80.1497 53.6163 77.7735C53.1594 74.8648 54.7588 70.0186 57.6218 70.0186C60.4847 70.0186 62.0818 74.8648 61.6249 77.7735Z" fill="#263238"/>
<path d="M57.5398 70.6586C57.0091 70.5828 56.5004 70.3956 56.0472 70.1093C55.5939 69.823 55.2063 69.4441 54.9099 68.9975C54.2468 68.029 53.9489 66.8566 54.069 65.689C55.2115 65.2914 56.4088 65.3394 57.2199 66.5001C57.6126 67.1129 57.8473 67.8134 57.9032 68.5391C57.959 69.2648 57.8341 69.993 57.5398 70.6586Z" fill="#467BFF"/>
<path opacity="0.3" d="M57.5398 70.6586C57.0091 70.5828 56.5004 70.3956 56.0472 70.1093C55.5939 69.823 55.2063 69.4441 54.9099 68.9975C54.2468 68.029 53.9489 66.8566 54.069 65.689C55.2115 65.2914 56.4088 65.3394 57.2199 66.5001C57.6126 67.1129 57.8473 67.8134 57.9032 68.5391C57.959 69.2648 57.8341 69.993 57.5398 70.6586Z" fill="black"/>
<path d="M55.4574 69.3011C55.2449 67.8571 53.7117 66.8745 52.2586 66.8928C51.3183 66.929 50.4058 67.2214 49.6195 67.7382C49.4376 67.8522 49.285 68.0074 49.174 68.1912C49.063 68.3749 48.9967 68.5822 48.9805 68.7963C48.9643 69.0104 48.9985 69.2253 49.0806 69.4237C49.1626 69.6221 49.2901 69.7985 49.4527 69.9386C50.0344 70.444 50.7584 70.7569 51.5251 70.8343C52.9029 70.9691 54.4886 70.2905 55.4574 69.3011Z" fill="#467BFF"/>
<path opacity="0.2" d="M55.4574 69.3011C55.2449 67.8571 53.7117 66.8745 52.2586 66.8928C51.3183 66.929 50.4058 67.2214 49.6195 67.7382C49.4376 67.8522 49.285 68.0074 49.174 68.1912C49.063 68.3749 48.9967 68.5822 48.9805 68.7963C48.9643 69.0104 48.9985 69.2253 49.0806 69.4237C49.1626 69.6221 49.2901 69.7985 49.4527 69.9386C50.0344 70.444 50.7584 70.7569 51.5251 70.8343C52.9029 70.9691 54.4886 70.2905 55.4574 69.3011Z" fill="black"/>
<path d="M56.4774 70.4118C56.4692 70.1753 56.4052 69.9441 56.2906 69.7371C56.176 69.53 56.014 69.353 55.818 69.2205C55.622 69.0879 55.3974 69.0036 55.1625 68.9744C54.9277 68.9452 54.6893 68.9719 54.4667 69.0523C53.6056 69.3562 52.8606 69.9209 52.3352 70.6678C51.8098 71.4147 51.5302 72.3068 51.5352 73.22C51.5334 73.4661 51.585 73.7097 51.6865 73.934C51.788 74.1582 51.9371 74.3578 52.1233 74.5188C52.3095 74.6798 52.5284 74.7984 52.765 74.8665C53.0015 74.9346 53.2501 74.9505 53.4934 74.9131C53.9246 74.8472 54.3372 74.6915 54.7044 74.4561C55.5188 73.886 56.0991 73.0402 56.338 72.0752C56.4641 71.5303 56.511 70.9701 56.4774 70.4118Z" fill="#467BFF"/>
<path d="M56.4774 70.4118C56.4692 70.1753 56.4052 69.9441 56.2906 69.7371C56.176 69.53 56.014 69.353 55.818 69.2205C55.622 69.0879 55.3974 69.0036 55.1625 68.9744C54.9277 68.9452 54.6893 68.9719 54.4667 69.0523C53.6056 69.3562 52.8606 69.9209 52.3352 70.6678C51.8098 71.4147 51.5302 72.3068 51.5352 73.22C51.5334 73.4661 51.585 73.7097 51.6865 73.934C51.788 74.1582 51.9371 74.3578 52.1233 74.5188C52.3095 74.6798 52.5284 74.7984 52.765 74.8665C53.0015 74.9346 53.2501 74.9505 53.4934 74.9131C53.9246 74.8472 54.3372 74.6915 54.7044 74.4561C55.5188 73.886 56.0991 73.0402 56.338 72.0752C56.4641 71.5303 56.511 70.9701 56.4774 70.4118Z" fill="#467BFF"/>
<path d="M61.9829 66.338C61.0729 65.9862 60.062 66.0018 59.1633 66.3814C58.8332 66.5229 58.5254 66.7115 58.2494 66.9412C58.0168 67.1305 57.8386 67.3782 57.7331 67.6589C57.6277 67.9397 57.5987 68.2434 57.6491 68.539C57.6995 68.8347 57.8276 69.1116 58.0202 69.3415C58.2128 69.5714 58.463 69.7461 58.7452 69.8475C59.0757 69.9724 59.4279 70.0301 59.781 70.0172C60.1341 70.0042 60.4811 69.9209 60.8016 69.7721C62.1154 69.1324 62.73 67.5901 61.9829 66.338Z" fill="#467BFF"/>
<path opacity="0.3" d="M61.9829 66.338C61.0729 65.9862 60.062 66.0018 59.1633 66.3814C58.8332 66.5229 58.5254 66.7115 58.2494 66.9412C58.0168 67.1305 57.8386 67.3782 57.7331 67.6589C57.6277 67.9397 57.5987 68.2434 57.6491 68.539C57.6995 68.8347 57.8276 69.1116 58.0202 69.3415C58.2128 69.5714 58.463 69.7461 58.7452 69.8475C59.0757 69.9724 59.4279 70.0301 59.781 70.0172C60.1341 70.0042 60.4811 69.9209 60.8016 69.7721C62.1154 69.1324 62.73 67.5901 61.9829 66.338Z" fill="black"/>
<path d="M60.7833 67.7342C60.4017 68.0655 60.011 68.4196 59.8259 68.9429C59.7532 69.1502 59.7297 69.3715 59.7574 69.5895C59.851 70.2452 60.3651 70.4555 60.8313 70.5811C62.4107 70.9999 64.078 70.9499 65.6295 70.4372C65.7718 70.3916 65.9007 70.3118 66.005 70.2048C66.1093 70.0978 66.1858 69.9668 66.2277 69.8234C66.2697 69.68 66.2758 69.5285 66.2456 69.3821C66.2154 69.2358 66.1498 69.0991 66.0545 68.984C65.5571 68.3533 64.9163 67.8504 64.1855 67.5171C63.203 67.1012 61.6264 67.003 60.7833 67.7342Z" fill="#467BFF"/>
<path opacity="0.2" d="M60.7833 67.7342C60.4017 68.0655 60.011 68.4196 59.8259 68.9429C59.7532 69.1502 59.7297 69.3715 59.7574 69.5895C59.851 70.2452 60.3651 70.4555 60.8313 70.5811C62.4107 70.9999 64.078 70.9499 65.6295 70.4372C65.7718 70.3916 65.9007 70.3118 66.005 70.2048C66.1093 70.0978 66.1858 69.9668 66.2277 69.8234C66.2697 69.68 66.2758 69.5285 66.2456 69.3821C66.2154 69.2358 66.1498 69.0991 66.0545 68.984C65.5571 68.3533 64.9163 67.8504 64.1855 67.5171C63.203 67.1012 61.6264 67.003 60.7833 67.7342Z" fill="black"/>
<path d="M61.399 69.3885C61.0678 69.3091 60.7186 69.3624 60.4262 69.537C60.1337 69.7116 59.9211 69.9937 59.8339 70.323C59.7181 70.779 59.7348 71.2585 59.8818 71.7053C60.0444 72.1341 60.294 72.5245 60.6149 72.8521C60.9358 73.1796 61.321 73.4372 61.7463 73.6086C62.2016 73.8007 62.6828 73.9239 63.1744 73.9742C63.3452 73.9952 63.5186 73.9773 63.6816 73.9218C63.8446 73.8663 63.9929 73.7748 64.1155 73.6539C64.2381 73.5331 64.3318 73.3861 64.3896 73.2239C64.4474 73.0618 64.4678 72.8887 64.4493 72.7175C64.376 71.9768 64.1123 71.2676 63.6839 70.6589C63.1584 69.9483 62.2764 69.6032 61.399 69.3885Z" fill="#467BFF"/>
<path d="M61.399 69.3885C61.0678 69.3091 60.7186 69.3624 60.4262 69.537C60.1337 69.7116 59.9211 69.9937 59.8339 70.323C59.7181 70.779 59.7348 71.2585 59.8818 71.7053C60.0444 72.1341 60.294 72.5245 60.6149 72.8521C60.9358 73.1796 61.321 73.4372 61.7463 73.6086C62.2016 73.8007 62.6828 73.9239 63.1744 73.9742C63.3452 73.9952 63.5186 73.9773 63.6816 73.9218C63.8446 73.8663 63.9929 73.7748 64.1155 73.6539C64.2381 73.5331 64.3318 73.3861 64.3896 73.2239C64.4474 73.0618 64.4678 72.8887 64.4493 72.7175C64.376 71.9768 64.1123 71.2676 63.6839 70.6589C63.1584 69.9483 62.2764 69.6032 61.399 69.3885Z" fill="#467BFF"/>
<path d="M58.6556 69.3725C58.0547 68.687 56.862 68.7327 56.1902 69.3611C55.5185 69.9894 55.3426 71.0176 55.5619 71.9087C55.7813 72.7998 56.3388 73.5698 56.9603 74.2439C57.2276 74.5295 57.5063 74.8037 57.8011 75.0641C58.0221 75.2589 58.2892 75.394 58.577 75.4567C58.8649 75.5193 59.164 75.5073 59.4459 75.422C59.7279 75.3366 59.9834 75.1807 60.1881 74.9689C60.3929 74.7571 60.5402 74.4965 60.6161 74.2119V74.189C60.8743 73.2614 61.1325 72.2971 60.9748 71.3489C60.8171 70.4007 59.6016 69.4707 58.6556 69.3725Z" fill="#467BFF"/>
<path opacity="0.1" d="M58.6556 69.3725C58.0547 68.687 56.862 68.7327 56.1902 69.3611C55.5185 69.9894 55.3426 71.0176 55.5619 71.9087C55.7813 72.7998 56.3388 73.5698 56.9603 74.2439C57.2276 74.5295 57.5063 74.8037 57.8011 75.0641C58.0221 75.2589 58.2892 75.394 58.577 75.4567C58.8649 75.5193 59.164 75.5073 59.4459 75.422C59.7279 75.3366 59.9834 75.1807 60.1881 74.9689C60.3929 74.7571 60.5402 74.4965 60.6161 74.2119V74.189C60.8743 73.2614 61.1325 72.2971 60.9748 71.3489C60.8171 70.4007 59.6016 69.4707 58.6556 69.3725Z" fill="white"/>
<path opacity="0.2" d="M58.8576 70.03C59.4582 71.5207 59.6697 73.1397 59.4723 74.7346C59.3724 73.0345 59.0197 71.3588 58.4258 69.7627C58.5151 69.7644 58.6024 69.7902 58.6783 69.8372C58.7543 69.8842 58.8162 69.9508 58.8576 70.03Z" fill="white"/>
<path opacity="0.2" d="M55.037 69.886C54.0429 70.9459 53.3187 72.2297 52.9258 73.6287C53.0993 72.2265 53.7073 70.9138 54.6646 69.8746C54.772 69.7786 54.9113 69.8243 55.037 69.886Z" fill="white"/>
<path opacity="0.2" d="M53.9907 68.5775C53.4842 68.285 52.9306 68.0832 52.3547 67.9811C51.5139 67.8806 50.6844 68.2622 49.8984 68.5843C50.5402 68.2279 51.2285 67.9626 51.9434 67.796C52.302 67.7149 52.6735 67.709 53.0345 67.7786C53.3955 67.8482 53.7382 67.9918 54.0409 68.2005C54.0272 68.3307 54.0021 68.4449 53.9907 68.5775Z" fill="white"/>
<path opacity="0.2" d="M63.5823 72.5049C63.2854 71.9166 62.9261 71.362 62.5107 70.8506C62.0882 70.338 61.5097 69.9777 60.8633 69.8247C61.0529 69.8247 61.2837 69.7676 61.4733 69.7676C62.51 70.3931 63.271 71.3884 63.6029 72.5529C63.6211 72.5117 63.564 72.5483 63.5823 72.5049Z" fill="white"/>
<path opacity="0.2" d="M56.8292 68.632C56.439 67.5152 55.6702 66.5702 54.6562 65.9609C55.4186 66.5328 55.9885 67.3235 56.2899 68.2275C56.3402 68.3783 56.3402 68.5588 56.3951 68.7074C56.4668 68.7387 56.5463 68.7483 56.6234 68.7349C56.7006 68.7215 56.7722 68.6857 56.8292 68.632Z" fill="white"/>
<path opacity="0.2" d="M61.3966 66.6191C60.8573 66.7883 60.362 67.0742 59.9458 67.4565C59.5296 67.8387 59.2026 68.308 58.9883 68.8309C59.0683 68.872 59.0683 68.9109 59.1505 68.952C59.251 68.3968 59.6943 67.9627 60.1353 67.6108C60.5763 67.2589 60.9761 67.003 61.3966 66.6191Z" fill="white"/>
<path opacity="0.2" d="M65.5937 69.3081C65.0682 68.5061 64.0879 68.0811 63.1283 68.0537C62.1632 68.0631 61.2161 68.3162 60.375 68.7894V69.1162C61.1311 68.5785 62.0463 68.3112 62.9729 68.3576C63.9267 68.3807 64.8468 68.7145 65.5937 69.3081Z" fill="white"/>
<path d="M47.5703 39.2951V36.3248C47.5703 36.2781 47.5795 36.2318 47.5975 36.1887C47.6154 36.1456 47.6417 36.1065 47.6748 36.0735C47.708 36.0406 47.7473 36.0146 47.7905 35.9969C47.8337 35.9793 47.8801 35.9703 47.9268 35.9706H48.5185L48.5322 34.4512L50.1659 35.9706H53.6892C53.7832 35.9706 53.8732 36.0079 53.9397 36.0744C54.0061 36.1408 54.0434 36.2308 54.0434 36.3248V39.2951C54.0428 39.3889 54.0053 39.4786 53.939 39.5449C53.8727 39.6112 53.783 39.6487 53.6892 39.6493H47.9176C47.8251 39.6469 47.7371 39.6086 47.6722 39.5425C47.6074 39.4764 47.5709 39.3877 47.5703 39.2951Z" fill="#467BFF"/>
<path d="M51.7832 38.2143L51.8403 38.1617L51.8677 38.132C51.905 38.0993 51.9401 38.0642 51.9728 38.0269L51.9934 38.0041C52.0336 37.9547 52.0695 37.9019 52.1008 37.8464C52.1393 37.774 52.1692 37.6973 52.1899 37.6179C52.1963 37.6 52.2016 37.5817 52.2059 37.5631C52.2477 37.3866 52.2382 37.2019 52.1784 37.0307C52.1718 37.012 52.1642 36.9937 52.1556 36.9759C52.0929 36.8342 51.9864 36.7165 51.8517 36.64C51.6673 36.5546 51.4583 36.5383 51.2629 36.5941C51.0674 36.6499 50.8985 36.774 50.7869 36.9439C50.6758 36.7742 50.5073 36.6501 50.3122 36.5943C50.1172 36.5385 49.9086 36.5547 49.7245 36.64C49.5886 36.7157 49.4811 36.8336 49.4183 36.9759L49.3955 37.0307C49.3365 37.2021 49.3278 37.3869 49.3703 37.5631L49.384 37.6179C49.4055 37.6974 49.4362 37.774 49.4754 37.8464C49.5059 37.9024 49.5419 37.9552 49.5828 38.0041L49.6034 38.0246C49.6364 38.0645 49.6731 38.1013 49.7131 38.1343L49.7382 38.1617L49.7953 38.2143L50.346 38.7489L50.4008 38.8015L50.7961 39.1831L51.1868 38.8015L51.2416 38.7489L51.7832 38.2143Z" fill="white"/>
<path d="M49 6.77454V10.1425C49 10.2497 49.0426 10.3526 49.1184 10.4284C49.1943 10.5043 49.2972 10.5469 49.4044 10.5469H50.0762L50.0945 12.2743L51.9498 10.5469H55.9552C56.0623 10.5463 56.1648 10.5035 56.2405 10.4278C56.3162 10.3521 56.359 10.2495 56.3596 10.1425V6.77454C56.359 6.66747 56.3162 6.56495 56.2405 6.48923C56.1648 6.41352 56.0623 6.37072 55.9552 6.37012H49.4044C49.2972 6.37012 49.1943 6.41273 49.1184 6.48857C49.0426 6.56442 49 6.66728 49 6.77454Z" fill="#467BFF"/>
<path d="M53.7877 8.77366L53.8517 8.71196L53.8837 8.67998C53.9267 8.64308 53.9665 8.60256 54.0025 8.55888L54.0277 8.53374C54.0724 8.47666 54.1129 8.41633 54.1488 8.35324C54.1911 8.2738 54.2256 8.19038 54.2516 8.10419C54.258 8.08391 54.2633 8.06332 54.2676 8.04249C54.3155 7.84195 54.3052 7.63189 54.2379 7.437L54.2127 7.37531C54.1395 7.21285 54.0151 7.07883 53.8586 6.99373C53.6494 6.89573 53.4118 6.87668 53.1897 6.94009C52.9675 7.0035 52.7758 7.14509 52.6499 7.33875C52.5236 7.14546 52.3319 7.00418 52.1099 6.9408C51.8879 6.87743 51.6504 6.89622 51.4412 6.99373C51.2895 7.07835 51.1692 7.20981 51.0984 7.36845C51.0984 7.38902 51.0802 7.40958 51.0733 7.43014C51.0041 7.62458 50.9929 7.83498 51.0413 8.03564C51.0477 8.05591 51.053 8.0765 51.0573 8.09733C51.0831 8.18395 51.1183 8.26747 51.1624 8.34638C51.1966 8.41046 51.2372 8.47093 51.2835 8.52689L51.3064 8.54974C51.3446 8.5944 51.3858 8.63639 51.4297 8.67541L51.4617 8.70511L51.5234 8.7668L52.1518 9.3723L52.2157 9.43399L52.6613 9.86583L53.1068 9.43399L53.1708 9.3723L53.7877 8.77366Z" fill="white"/>
<path d="M21.9268 32.1841C22.0011 31.8545 22.0523 31.5201 22.0799 31.1834C22.2216 30.0523 22.8911 29.1795 23.7365 29.0059L24.3442 28.8825C24.3442 28.8825 23.3892 28.8825 22.9893 28.6037C22.1439 28.0119 21.9497 26.2617 21.9497 26.2617C21.9497 26.2617 21.7212 28.0119 20.8667 28.6037C20.4668 28.8825 19.5117 28.8825 19.5117 28.8825L20.1195 29.0059C20.9649 29.1795 21.6344 30.0523 21.776 31.1834C21.8049 31.5198 21.8553 31.8541 21.9268 32.1841Z" fill="#467BFF"/>
<g opacity="0.7">
<path d="M21.9268 32.1841C22.0011 31.8545 22.0523 31.5201 22.0799 31.1834C22.2216 30.0523 22.8911 29.1795 23.7365 29.0059L24.3442 28.8825C24.3442 28.8825 23.3892 28.8825 22.9893 28.6037C22.1439 28.0119 21.9497 26.2617 21.9497 26.2617C21.9497 26.2617 21.7212 28.0119 20.8667 28.6037C20.4668 28.8825 19.5117 28.8825 19.5117 28.8825L20.1195 29.0059C20.9649 29.1795 21.6344 30.0523 21.776 31.1834C21.8049 31.5198 21.8553 31.8541 21.9268 32.1841Z" fill="white"/>
</g>
<path d="M52.1518 32.273C52.2237 31.9429 52.2748 31.6087 52.3049 31.2722C52.4442 30.1298 53.1137 29.2684 53.9591 29.0947L54.5692 28.9713C54.5692 28.9713 53.6118 28.9713 53.212 28.6926C52.3666 28.1008 52.1723 26.3506 52.1723 26.3506C52.1723 26.3506 51.9439 28.1008 51.0893 28.6926C50.6917 28.9713 49.7344 28.9713 49.7344 28.9713L50.3444 29.0947C51.1876 29.2684 51.8593 30.1412 51.9987 31.2722C52.0261 31.609 52.0773 31.9434 52.1518 32.273Z" fill="#467BFF"/>
<g opacity="0.7">
<path d="M52.1518 32.273C52.2237 31.9429 52.2748 31.6087 52.3049 31.2722C52.4442 30.1298 53.1137 29.2684 53.9591 29.0947L54.5692 28.9713C54.5692 28.9713 53.6118 28.9713 53.212 28.6926C52.3666 28.1008 52.1723 26.3506 52.1723 26.3506C52.1723 26.3506 51.9439 28.1008 51.0893 28.6926C50.6917 28.9713 49.7344 28.9713 49.7344 28.9713L50.3444 29.0947C51.1876 29.2684 51.8593 30.1412 51.9987 31.2722C52.0261 31.609 52.0773 31.9434 52.1518 32.273Z" fill="white"/>
</g>
<path d="M47.0971 51.009C47.1691 50.6797 47.2202 50.3462 47.2502 50.0105C47.3896 48.8795 48.059 48.0067 48.9044 47.833L49.5145 47.7096C49.5145 47.7096 48.5571 47.7096 48.1573 47.4286C47.3119 46.8368 47.1177 45.0889 47.1177 45.0889C47.1177 45.0889 46.8892 46.8368 46.0346 47.4286C45.6371 47.7096 44.6797 47.7096 44.6797 47.7096L45.2898 47.833C46.1329 48.0067 46.8046 48.8795 46.944 50.0105C46.9726 50.3464 47.0238 50.68 47.0971 51.009Z" fill="#467BFF"/>
<g opacity="0.7">
<path d="M47.0971 51.01C47.1691 50.6807 47.2202 50.3472 47.2502 50.0115C47.3896 48.8805 48.059 48.0076 48.9044 47.834L49.5145 47.7106C49.5145 47.7106 48.5571 47.7106 48.1573 47.4296C47.3119 46.8378 47.1177 45.0898 47.1177 45.0898C47.1177 45.0898 46.8892 46.8378 46.0346 47.4296C45.6371 47.7106 44.6797 47.7106 44.6797 47.7106L45.2898 47.834C46.1329 48.0076 46.8046 48.8805 46.944 50.0115C46.9726 50.3474 47.0238 50.681 47.0971 51.01Z" fill="white"/>
</g>
<path d="M65.4398 19.4209H55.4571C55.3763 19.4206 55.2962 19.4363 55.2215 19.4671C55.1468 19.4979 55.079 19.5431 55.0218 19.6003C54.9647 19.6574 54.9194 19.7253 54.8886 19.8C54.8579 19.8747 54.8422 19.9547 54.8425 20.0355V21.2282H51.9727L54.8036 23.8627L54.8333 23.849V25.1742C54.8333 25.3373 54.8981 25.4936 55.0134 25.6089C55.1286 25.7241 55.285 25.7889 55.448 25.7889H65.4398C65.6026 25.7883 65.7586 25.7233 65.8737 25.6082C65.9888 25.4931 66.0538 25.3371 66.0544 25.1742V20.0355C66.0544 19.8725 65.9896 19.7162 65.8744 19.6009C65.7591 19.4857 65.6028 19.4209 65.4398 19.4209Z" fill="white"/>
<path d="M65.4396 25.9008H55.4569C55.2636 25.9008 55.0782 25.824 54.9415 25.6873C54.8048 25.5506 54.728 25.3653 54.728 25.1719V23.9381L51.6914 21.1117H54.728V20.0355C54.728 19.8422 54.8048 19.6568 54.9415 19.5201C55.0782 19.3834 55.2636 19.3066 55.4569 19.3066H65.4487C65.6418 19.3072 65.8269 19.3842 65.9634 19.5208C66.1 19.6574 66.177 19.8424 66.1776 20.0355V25.1719C66.1773 25.2683 66.1579 25.3637 66.1206 25.4526C66.0833 25.5415 66.0288 25.6222 65.9602 25.6899C65.8916 25.7577 65.8103 25.8112 65.7209 25.8474C65.6316 25.8836 65.536 25.9017 65.4396 25.9008ZM54.9474 23.6708V25.1719C54.948 25.3045 55.0009 25.4314 55.0946 25.5251C55.1883 25.6188 55.3152 25.6717 55.4478 25.6723H65.4396C65.5721 25.6717 65.699 25.6188 65.7927 25.5251C65.8864 25.4314 65.9394 25.3045 65.94 25.1719V20.0355C65.9394 19.903 65.8864 19.7761 65.7927 19.6824C65.699 19.5886 65.5721 19.5357 65.4396 19.5351H55.4569C55.3244 19.5357 55.1974 19.5886 55.1037 19.6824C55.01 19.7761 54.9571 19.903 54.9565 20.0355V21.3882L54.8194 21.3402H52.2581L54.8217 23.7256L54.9474 23.6708Z" fill="#467BFF"/>
<path d="M58.3777 22.919L58.4325 22.8664L58.4622 22.839C58.4988 22.8063 58.5331 22.7712 58.5651 22.7339L58.5856 22.7111C58.6259 22.6622 58.6611 22.6093 58.6907 22.5534C58.7283 22.4851 58.7589 22.4131 58.7821 22.3386L58.7958 22.2838C58.8377 22.1089 58.8282 21.9256 58.7684 21.756L58.7479 21.7034C58.6851 21.5624 58.5785 21.4455 58.444 21.3698C58.2618 21.2851 58.0552 21.2689 57.8621 21.3243C57.669 21.3798 57.5024 21.503 57.3929 21.6714C57.2834 21.503 57.1168 21.3798 56.9237 21.3243C56.7306 21.2689 56.524 21.2851 56.3419 21.3698C56.2075 21.4449 56.1015 21.5621 56.0403 21.7034C56.0317 21.7205 56.0241 21.7381 56.0174 21.756C55.9573 21.9256 55.9485 22.1092 55.9923 22.2838C55.9947 22.3025 55.9993 22.321 56.006 22.3386C56.0274 22.4134 56.0573 22.4854 56.0951 22.5534C56.1256 22.6088 56.1608 22.6616 56.2002 22.7111L56.2185 22.7316C56.2522 22.7703 56.2888 22.8062 56.3282 22.839L56.3533 22.8664L56.4081 22.919L56.9542 23.4468L57.0091 23.4993L57.3998 23.8764L57.7859 23.4993L57.8408 23.4468L58.3777 22.919Z" fill="#263238"/>
<path d="M40.7305 1.12374V6.26016C40.7305 6.42317 40.6657 6.5795 40.5505 6.69477C40.4352 6.81003 40.2789 6.87479 40.1159 6.87479H36.476L35.1211 8.96774L33.6199 6.88165H30.1264C29.9635 6.88104 29.8075 6.81609 29.6924 6.70096C29.5773 6.58582 29.5123 6.42984 29.5117 6.26701V1.12374C29.5135 0.961704 29.579 0.806887 29.694 0.692735C29.809 0.578582 29.9643 0.514262 30.1264 0.513672H40.1159C40.2781 0.513667 40.4337 0.577796 40.5489 0.692076C40.664 0.806355 40.7293 0.961518 40.7305 1.12374Z" fill="white"/>
<path d="M35.1224 9.16392L33.5572 6.98871H30.1299C29.9382 6.9863 29.7551 6.90845 29.6204 6.77202C29.4857 6.63559 29.4101 6.45157 29.4102 6.25983V1.12341C29.4102 0.930098 29.4869 0.744705 29.6236 0.608014C29.7603 0.471323 29.9457 0.394531 30.139 0.394531H40.1286C40.3219 0.394531 40.5073 0.471323 40.6439 0.608014C40.7806 0.744705 40.8574 0.930098 40.8574 1.12341V6.25983C40.8574 6.45314 40.7806 6.63853 40.6439 6.77522C40.5073 6.91192 40.3219 6.98871 40.1286 6.98871H36.539L35.1224 9.16392ZM30.1276 0.62302C29.9969 0.626005 29.8725 0.680038 29.7811 0.773558C29.6898 0.867078 29.6386 0.992653 29.6386 1.12341V6.25983C29.6386 6.39254 29.6914 6.51982 29.7852 6.61366C29.879 6.7075 30.0063 6.76022 30.139 6.76022H33.6897L35.1292 8.75949L36.427 6.76022H40.1286C40.2613 6.76022 40.3885 6.7075 40.4824 6.61366C40.5762 6.51982 40.6289 6.39254 40.6289 6.25983V1.12341C40.6289 0.990697 40.5762 0.863421 40.4824 0.76958C40.3885 0.675739 40.2613 0.62302 40.1286 0.62302H30.1276Z" fill="#467BFF"/>
<path d="M60.6699 22.9555V23.2H59.6919V23.0058L60.19 22.5328C60.3066 22.4231 60.3271 22.3569 60.3271 22.2929C60.3271 22.1923 60.2563 22.1329 60.1192 22.1329C60.067 22.131 60.0152 22.1419 59.9682 22.1646C59.9212 22.1873 59.8805 22.2211 59.8496 22.2632L59.6211 22.1215C59.6816 22.0444 59.7601 21.9832 59.8497 21.9434C59.9394 21.9036 60.0374 21.8863 60.1352 21.893C60.4231 21.893 60.6173 22.0415 60.6173 22.2746C60.6154 22.355 60.5949 22.4338 60.5572 22.5048C60.5195 22.5758 60.4658 22.637 60.4002 22.6836L60.1009 22.9669L60.6699 22.9555Z" fill="#263238"/>
<path d="M61.7531 22.8023C61.7531 23.0307 61.5841 23.2204 61.2162 23.2204C61.0419 23.2234 60.8704 23.1758 60.7227 23.0833L60.8392 22.8548C60.9468 22.9325 61.0766 22.9733 61.2093 22.9713C61.3579 22.9713 61.4515 22.9096 61.4515 22.8045C61.4515 22.6994 61.3784 22.6469 61.2093 22.6469H61.0722V22.4481L61.3373 22.1465H60.7866V21.9043H61.7006V22.1008L61.399 22.4298C61.4947 22.434 61.5852 22.4751 61.6512 22.5446C61.7173 22.614 61.7538 22.7064 61.7531 22.8023Z" fill="#263238"/>
<path d="M62.8534 22.9555V23.2H61.8732V23.0058L62.3736 22.5328C62.4879 22.4231 62.5084 22.3569 62.5084 22.2929C62.5084 22.1923 62.4376 22.1329 62.3005 22.1329C62.2487 22.131 62.1972 22.1418 62.1505 22.1646C62.1039 22.1873 62.0636 22.2212 62.0332 22.2632L61.8047 22.1215C61.8652 22.0444 61.9437 21.9832 62.0334 21.9434C62.123 21.9036 62.221 21.8863 62.3188 21.893C62.609 21.893 62.8009 22.0415 62.8009 22.2746C62.7996 22.3551 62.7792 22.4341 62.7415 22.5052C62.7038 22.5763 62.6497 22.6374 62.5838 22.6836L62.2868 22.9669L62.8534 22.9555Z" fill="#263238"/>
<path d="M63.9328 22.8023C63.9328 23.0307 63.7637 23.2204 63.3959 23.2204C63.2217 23.2227 63.0504 23.1751 62.9023 23.0833L63.0189 22.8548C63.1267 22.9322 63.2564 22.973 63.389 22.9713C63.5398 22.9713 63.6312 22.9096 63.6312 22.8045C63.6312 22.6994 63.5604 22.6469 63.389 22.6469H63.2519V22.4481L63.5193 22.1465H62.9663V21.9043H63.8803V22.1008L63.5878 22.4321C63.6816 22.4385 63.7694 22.4803 63.8334 22.549C63.8975 22.6178 63.933 22.7083 63.9328 22.8023Z" fill="#263238"/>
<path d="M64.0703 22.5513C64.0703 22.124 64.2988 21.8818 64.6255 21.8818C64.9523 21.8818 65.1808 22.124 65.1808 22.5513C65.1808 22.9786 64.9523 23.2208 64.6255 23.2208C64.2988 23.2208 64.0703 22.9786 64.0703 22.5513ZM64.8792 22.5513C64.8792 22.2566 64.7763 22.1355 64.6255 22.1355C64.4747 22.1355 64.3742 22.2566 64.3742 22.5513C64.3742 22.8461 64.4793 22.9672 64.6255 22.9672C64.7718 22.9672 64.8792 22.8461 64.8792 22.5513Z" fill="#263238"/>
<path d="M32.2515 3.54696C32.6881 3.54696 33.0421 3.19301 33.0421 2.75639C33.0421 2.31977 32.6881 1.96582 32.2515 1.96582C31.8149 1.96582 31.4609 2.31977 31.4609 2.75639C31.4609 3.19301 31.8149 3.54696 32.2515 3.54696Z" fill="#263238"/>
<path d="M32.8793 3.71094H31.6569C31.4702 3.71094 31.2912 3.78508 31.1592 3.91706C31.0273 4.04904 30.9531 4.22804 30.9531 4.41468V4.97905H33.583V4.4124C33.5824 4.22615 33.508 4.04774 33.3761 3.91625C33.2442 3.78477 33.0655 3.71094 32.8793 3.71094Z" fill="#263238"/>
<path d="M36.3303 2.80859V4.65021H35.903V3.15133H35.5352V2.80859H36.3303Z" fill="#263238"/>
<path d="M39.1289 3.83942V4.65055H38.7177V3.90339C38.7177 3.67491 38.6148 3.5698 38.448 3.5698C38.2812 3.5698 38.135 3.68862 38.135 3.93995V4.65055H37.726V3.90339C37.726 3.67491 37.6278 3.5698 37.4564 3.5698C37.285 3.5698 37.1457 3.68862 37.1457 3.93995V4.65055H36.7344V3.23392H37.1274V3.39843C37.1837 3.33707 37.2528 3.28873 37.3297 3.25677C37.4067 3.2248 37.4897 3.20999 37.5729 3.21336C37.6621 3.21007 37.7508 3.22928 37.8306 3.2692C37.9105 3.30913 37.979 3.3685 38.0299 3.44185C38.0916 3.3672 38.1696 3.30776 38.258 3.26813C38.3464 3.22851 38.4427 3.20977 38.5394 3.21336C38.8867 3.21336 39.1289 3.40757 39.1289 3.83942Z" fill="#263238"/>
<path d="M23.6972 13.5052L23.1648 13.3682C23.0417 13.3389 22.9121 13.357 22.8016 13.4188C22.6912 13.4805 22.608 13.5815 22.5684 13.7017L21.8144 16.1283C21.7957 16.186 21.7891 16.247 21.7951 16.3074C21.801 16.3678 21.8194 16.4263 21.849 16.4793C21.8786 16.5322 21.9188 16.5785 21.9671 16.6152C22.0154 16.652 22.0708 16.6783 22.1297 16.6927L22.6621 16.8275C22.7853 16.8573 22.9151 16.8394 23.0257 16.7776C23.1363 16.7157 23.2194 16.6144 23.2585 16.4939L24.0125 14.0696C24.0312 14.0119 24.0378 13.9509 24.0318 13.8905C24.0259 13.8301 24.0075 13.7716 23.9779 13.7187C23.9483 13.6657 23.9081 13.6194 23.8598 13.5827C23.8115 13.5459 23.7561 13.5196 23.6972 13.5052Z" fill="#263238"/>
<path d="M23.6972 13.5052L23.1648 13.3682C23.0417 13.3389 22.9121 13.357 22.8016 13.4188C22.6912 13.4805 22.608 13.5815 22.5684 13.7017L21.8144 16.1283C21.7957 16.186 21.7891 16.247 21.7951 16.3074C21.801 16.3678 21.8194 16.4263 21.849 16.4793C21.8786 16.5322 21.9188 16.5785 21.9671 16.6152C22.0154 16.652 22.0708 16.6783 22.1297 16.6927L22.6621 16.8275C22.7853 16.8573 22.9151 16.8394 23.0257 16.7776C23.1363 16.7157 23.2194 16.6144 23.2585 16.4939L24.0125 14.0696C24.0312 14.0119 24.0378 13.9509 24.0318 13.8905C24.0259 13.8301 24.0075 13.7716 23.9779 13.7187C23.9483 13.6657 23.9081 13.6194 23.8598 13.5827C23.8115 13.5459 23.7561 13.5196 23.6972 13.5052Z" fill="#467BFF"/>
<path d="M27.8939 14.5744L26.3356 14.1791L26.8908 13.4479C26.952 13.3708 26.9908 13.2783 27.0028 13.1806L27.0942 12.518C27.1126 12.3888 27.0824 12.2574 27.0094 12.1493C26.9363 12.0411 26.8256 11.9641 26.6989 11.933L26.0774 11.7754L25.7712 12.7625L24.446 13.7724C24.3142 13.8719 24.2167 14.0101 24.1672 14.1677L23.468 16.4343C23.4448 16.5058 23.4367 16.5813 23.444 16.6562C23.4514 16.731 23.4741 16.8035 23.5108 16.8691C23.5475 16.9348 23.5973 16.9921 23.6572 17.0376C23.7171 17.0831 23.7857 17.1157 23.8588 17.1334L26.0385 17.6864C26.1347 17.7109 26.235 17.7147 26.3327 17.6973C26.4305 17.68 26.5233 17.642 26.6052 17.5859L26.8657 17.4122C26.968 17.3444 27.0514 17.2516 27.1079 17.1426L28.1269 15.1365L27.8939 14.5744Z" fill="white"/>
<path d="M26.2085 17.8235C26.1415 17.8231 26.0748 17.8146 26.0098 17.7984L23.83 17.2432C23.7422 17.2219 23.6597 17.1827 23.5877 17.1281C23.5158 17.0734 23.4559 17.0045 23.4118 16.9256C23.3678 16.8466 23.3405 16.7594 23.3314 16.6694C23.3224 16.5794 23.3319 16.4885 23.3593 16.4023L24.0653 14.1335C24.1217 13.9515 24.2336 13.7917 24.3852 13.6765L25.6807 12.6894L26.0098 11.6338L26.7341 11.8189C26.8882 11.8555 27.023 11.9485 27.1118 12.0797C27.2006 12.2108 27.2371 12.3705 27.2139 12.5272L27.1248 13.1921C27.1084 13.3093 27.062 13.4203 26.99 13.5142L26.533 14.106L27.9793 14.4739L28.2489 15.1365L27.2048 17.1929C27.1407 17.3204 27.0446 17.429 26.926 17.5082L26.6655 17.6819C26.5299 17.7719 26.3713 17.821 26.2085 17.8235ZM26.1628 11.9125L25.8772 12.8265L24.5223 13.8593C24.4093 13.9445 24.3255 14.0626 24.2824 14.1974L23.5786 16.464C23.5602 16.5208 23.5537 16.5808 23.5596 16.6401C23.5655 16.6995 23.5837 16.757 23.6129 16.8091C23.6415 16.861 23.6807 16.9064 23.7279 16.9422C23.7751 16.978 23.8294 17.0035 23.8871 17.017L26.0669 17.5722C26.148 17.5919 26.2323 17.5946 26.3145 17.58C26.3967 17.5655 26.475 17.534 26.5444 17.4877L26.8049 17.3117C26.8905 17.2542 26.9598 17.1755 27.006 17.0832L28.0022 15.1228L27.8171 14.6658L26.1469 14.2408L26.8072 13.3749C26.8557 13.3124 26.8872 13.2384 26.8986 13.1601L26.9877 12.4975C27.003 12.3962 26.9795 12.2928 26.9219 12.2081C26.8642 12.1234 26.7768 12.0635 26.6769 12.0405L26.1628 11.9125Z" fill="#467BFF"/>
<path d="M19.9784 41.8168L19.4506 41.9676C19.3294 42.0044 19.2266 42.0855 19.1626 42.1948C19.0986 42.3041 19.0783 42.4335 19.1056 42.5571L19.6837 45.0294C19.6968 45.0886 19.7221 45.1445 19.7577 45.1936C19.7934 45.2427 19.8388 45.284 19.8911 45.3148C19.9433 45.3457 20.0014 45.3654 20.0616 45.3729C20.1218 45.3804 20.1829 45.3755 20.2412 45.3584L20.769 45.2053C20.8911 45.1686 20.9947 45.0867 21.0588 44.9764C21.1229 44.8661 21.1426 44.7356 21.114 44.6112L20.5359 42.139C20.5223 42.0802 20.4967 42.0248 20.4607 41.9763C20.4248 41.9278 20.3793 41.8872 20.327 41.857C20.2748 41.8268 20.2169 41.8077 20.1569 41.8008C20.0969 41.7938 20.0362 41.7993 19.9784 41.8168Z" fill="#263238"/>
<path d="M19.9784 41.8168L19.4506 41.9676C19.3294 42.0044 19.2266 42.0855 19.1626 42.1948C19.0986 42.3041 19.0783 42.4335 19.1056 42.5571L19.6837 45.0294C19.6968 45.0886 19.7221 45.1445 19.7577 45.1936C19.7934 45.2427 19.8388 45.284 19.8911 45.3148C19.9433 45.3457 20.0014 45.3654 20.0616 45.3729C20.1218 45.3804 20.1829 45.3755 20.2412 45.3584L20.769 45.2053C20.8911 45.1686 20.9947 45.0867 21.0588 44.9764C21.1229 44.8661 21.1426 44.7356 21.114 44.6112L20.5359 42.139C20.5223 42.0802 20.4967 42.0248 20.4607 41.9763C20.4248 41.9278 20.3793 41.8872 20.327 41.857C20.2748 41.8268 20.2169 41.8077 20.1569 41.8008C20.0969 41.7938 20.0362 41.7993 19.9784 41.8168Z" fill="#467BFF"/>
<path d="M24.1529 40.6082L22.6083 41.0652L22.718 40.1513C22.7306 40.0535 22.7172 39.9542 22.6791 39.8634L22.421 39.2464C22.3723 39.1255 22.2801 39.0272 22.1625 38.9709C22.0449 38.9147 21.9105 38.9045 21.7858 38.9426L21.1711 39.1208L21.3996 40.1261L20.7667 41.6684C20.7038 41.8219 20.6902 41.9912 20.7279 42.1528L21.2671 44.4628C21.2835 44.5356 21.3145 44.6042 21.3585 44.6645C21.4024 44.7248 21.4581 44.7754 21.5224 44.8133C21.5866 44.8512 21.6579 44.8755 21.7319 44.8848C21.8059 44.8941 21.881 44.8881 21.9526 44.8673L24.1118 44.2412C24.207 44.2128 24.2952 44.1647 24.3707 44.1002C24.4463 44.0357 24.5075 43.9561 24.5505 43.8665L24.6876 43.5854C24.7416 43.4747 24.766 43.3519 24.7584 43.229L24.6213 40.983L24.1529 40.6082Z" fill="white"/>
<path d="M21.7983 44.9976C21.6819 44.9975 21.5677 44.9668 21.467 44.9085C21.3892 44.8622 21.3216 44.8007 21.2682 44.7277C21.2148 44.6547 21.1767 44.5716 21.1562 44.4835L20.617 42.1712C20.5745 41.9866 20.5905 41.7934 20.6627 41.6183L21.2796 40.1102L21.0283 39.034L21.748 38.8261C21.8994 38.7802 22.0625 38.7925 22.2054 38.8606C22.3482 38.9286 22.4605 39.0475 22.5203 39.194L22.783 39.8132C22.8285 39.9221 22.845 40.041 22.831 40.1582L22.7419 40.8985L24.1745 40.4827L24.7412 40.9168L24.8829 43.2154C24.8913 43.358 24.863 43.5004 24.8006 43.629L24.6635 43.91C24.6139 44.0141 24.5428 44.1066 24.455 44.1814C24.3672 44.2562 24.2647 44.3116 24.154 44.3441L21.9948 44.9702C21.9309 44.9888 21.8647 44.998 21.7983 44.9976ZM21.3002 39.194L21.5286 40.1285L20.8843 41.7051C20.8297 41.8358 20.8169 41.9803 20.8478 42.1186L21.3893 44.4309C21.4021 44.4889 21.4268 44.5436 21.4618 44.5916C21.4968 44.6396 21.5413 44.6799 21.5926 44.7099C21.6438 44.74 21.7007 44.7591 21.7597 44.7661C21.8187 44.7732 21.8785 44.768 21.9354 44.7508L24.0969 44.1248C24.1767 44.1011 24.2505 44.0608 24.3136 44.0064C24.3766 43.9521 24.4273 43.8849 24.4624 43.8095L24.5995 43.5284C24.6452 43.4356 24.6656 43.3323 24.6589 43.2291L24.5241 41.0356L24.1243 40.7271L22.4677 41.207L22.6003 40.1239C22.6093 40.0463 22.5983 39.9676 22.5683 39.8954L22.3101 39.2762C22.2696 39.1831 22.1961 39.1082 22.1037 39.066C22.0113 39.0238 21.9066 39.0173 21.8097 39.0478L21.3002 39.194Z" fill="#467BFF"/>
<path d="M10.155 27.089L9.60892 27.0273C9.48305 27.0137 9.35671 27.0484 9.25537 27.1243C9.15403 27.2002 9.08523 27.3117 9.06284 27.4363L8.64013 29.9497C8.62909 30.0095 8.63055 30.071 8.64444 30.1303C8.65833 30.1895 8.68434 30.2453 8.72082 30.294C8.75731 30.3427 8.80349 30.3834 8.85645 30.4134C8.90942 30.4434 8.96801 30.4621 9.02856 30.4683L9.57465 30.53C9.70016 30.543 9.82593 30.508 9.92677 30.4322C10.0276 30.3563 10.0961 30.2452 10.1185 30.121L10.5434 27.6077C10.5545 27.5478 10.553 27.4863 10.5391 27.427C10.5252 27.3678 10.4992 27.312 10.4628 27.2633C10.4263 27.2146 10.3801 27.1739 10.3271 27.1439C10.2742 27.1139 10.2156 27.0952 10.155 27.089Z" fill="#263238"/>
<path d="M10.155 27.089L9.60892 27.0273C9.48305 27.0137 9.35671 27.0484 9.25537 27.1243C9.15403 27.2002 9.08523 27.3117 9.06284 27.4363L8.64013 29.9497C8.62909 30.0095 8.63055 30.071 8.64444 30.1303C8.65833 30.1895 8.68434 30.2453 8.72082 30.294C8.75731 30.3427 8.80349 30.3834 8.85645 30.4134C8.90942 30.4434 8.96801 30.4621 9.02856 30.4683L9.57465 30.53C9.70016 30.543 9.82593 30.508 9.92677 30.4322C10.0276 30.3563 10.0961 30.2452 10.1185 30.121L10.5434 27.6077C10.5545 27.5478 10.553 27.4863 10.5391 27.427C10.5252 27.3678 10.4992 27.312 10.4628 27.2633C10.4263 27.2146 10.3801 27.1739 10.3271 27.1439C10.2742 27.1139 10.2156 27.0952 10.155 27.089Z" fill="#467BFF"/>
<path d="M14.4666 27.5896L12.8672 27.4045L13.3241 26.6071C13.373 26.5216 13.3982 26.4246 13.3972 26.3261V25.6475C13.3985 25.5169 13.3509 25.3907 13.2638 25.2934C13.1767 25.1962 13.0564 25.135 12.9266 25.1219L12.2914 25.0488L12.12 26.0656L10.9433 27.2469C10.824 27.3626 10.7441 27.5129 10.7148 27.6764L10.3172 30.0185C10.3039 30.0922 10.306 30.1679 10.3233 30.2407C10.3407 30.3136 10.3729 30.3821 10.4179 30.442C10.463 30.5018 10.5199 30.5517 10.5851 30.5886C10.6504 30.6254 10.7225 30.6483 10.7971 30.6559L13.0317 30.9164C13.1303 30.9274 13.2302 30.9174 13.3247 30.8871C13.4192 30.8568 13.5062 30.8068 13.58 30.7405L13.8085 30.5326C13.9011 30.4521 13.9712 30.3489 14.0119 30.2332L14.7545 28.1083L14.4666 27.5896Z" fill="white"/>
<path d="M13.1136 31.0414H13.0222L10.7875 30.7832C10.6976 30.7733 10.6107 30.7451 10.5322 30.7003C10.4536 30.6554 10.3851 30.5949 10.3309 30.5225C10.2767 30.4501 10.238 30.3673 10.2171 30.2793C10.1962 30.1913 10.1936 30.1 10.2095 30.0109L10.6048 27.6712C10.6378 27.4846 10.728 27.313 10.8629 27.18L12.0054 26.0261L12.1905 24.9385L12.9331 25.023C13.0908 25.0395 13.2367 25.1142 13.3423 25.2325C13.448 25.3508 13.5057 25.5042 13.5043 25.6628V26.3323C13.5054 26.4509 13.4746 26.5677 13.4152 26.6704L13.0473 27.317L14.5302 27.4884L14.8843 28.1099L14.1235 30.2828C14.0785 30.417 13.9998 30.5373 13.895 30.6324L13.6665 30.8381C13.5128 30.9705 13.3164 31.0427 13.1136 31.0414ZM12.3893 25.1898L12.2293 26.138L11.0229 27.3422C10.9224 27.442 10.8554 27.5705 10.831 27.71L10.4425 30.0429C10.4315 30.1014 10.4327 30.1616 10.4461 30.2196C10.4596 30.2777 10.4849 30.3323 10.5206 30.38C10.5563 30.4277 10.6015 30.4674 10.6533 30.4967C10.7052 30.526 10.7626 30.5442 10.8218 30.5502L13.0564 30.8083C13.1388 30.8168 13.2219 30.8079 13.3006 30.7824C13.3793 30.7568 13.4518 30.715 13.5134 30.6598L13.7419 30.4519C13.8198 30.3843 13.8788 30.2977 13.9133 30.2006L14.6376 28.1259L14.3954 27.7032L12.684 27.5044L13.2232 26.5562C13.2639 26.487 13.2844 26.4079 13.2826 26.3277V25.6468C13.2837 25.5447 13.2466 25.4459 13.1785 25.3698C13.1104 25.2937 13.0164 25.2458 12.9148 25.2355L12.3893 25.1898Z" fill="#467BFF"/>
<path d="M47.1546 17.5513L45.6466 17.6153C45.5682 17.62 45.4898 17.608 45.4165 17.58C45.3432 17.5519 45.2767 17.5086 45.2215 17.4527C45.1663 17.3969 45.1237 17.3299 45.0966 17.2563C45.0694 17.1827 45.0583 17.1041 45.0639 17.0258L45.2536 12.8536C45.2579 12.7823 45.2882 12.715 45.3387 12.6645C45.3892 12.614 45.4565 12.5837 45.5278 12.5794L47.3877 12.5017C47.4658 12.4977 47.544 12.5102 47.6169 12.5385C47.6899 12.5668 47.7561 12.6102 47.8111 12.6659C47.8661 12.7216 47.9087 12.7882 47.9362 12.8615C47.9636 12.9348 47.9753 13.0131 47.9703 13.0912L47.7944 16.9138C47.7831 17.0796 47.712 17.2356 47.5943 17.3528C47.4767 17.4701 47.3204 17.5406 47.1546 17.5513Z" fill="#467BFF"/>
<path opacity="0.2" d="M47.1546 17.5513L45.6466 17.6153C45.5682 17.62 45.4898 17.608 45.4165 17.58C45.3432 17.5519 45.2767 17.5086 45.2215 17.4527C45.1663 17.3969 45.1237 17.3299 45.0966 17.2563C45.0694 17.1827 45.0583 17.1041 45.0639 17.0258L45.2536 12.8536C45.2579 12.7823 45.2882 12.715 45.3387 12.6645C45.3892 12.614 45.4565 12.5837 45.5278 12.5794L47.3877 12.5017C47.4658 12.4977 47.544 12.5102 47.6169 12.5385C47.6899 12.5668 47.7561 12.6102 47.8111 12.6659C47.8661 12.7216 47.9087 12.7882 47.9362 12.8615C47.9636 12.9348 47.9753 13.0131 47.9703 13.0912L47.7944 16.9138C47.7831 17.0796 47.712 17.2356 47.5943 17.3528C47.4767 17.4701 47.3204 17.5406 47.1546 17.5513Z" fill="black"/>
<path d="M47.231 17.6268L45.7207 17.6885C45.6425 17.6932 45.5643 17.6812 45.4911 17.6533C45.418 17.6254 45.3516 17.5822 45.2965 17.5267C45.2413 17.4711 45.1987 17.4044 45.1714 17.331C45.144 17.2577 45.1327 17.1794 45.138 17.1013L45.3299 12.9268C45.3338 12.8559 45.3637 12.7889 45.4138 12.7388C45.464 12.6886 45.531 12.6587 45.6018 12.6549L47.4617 12.5772C47.5399 12.5724 47.6181 12.5844 47.6913 12.6123C47.7644 12.6402 47.8308 12.6834 47.8859 12.739C47.941 12.7945 47.9837 12.8612 48.011 12.9346C48.0383 13.008 48.0497 13.0863 48.0444 13.1644L47.8684 16.987C47.8578 17.1528 47.7872 17.309 47.67 17.4267C47.5527 17.5444 47.3967 17.6155 47.231 17.6268Z" fill="#467BFF"/>
<path opacity="0.5" d="M47.2327 17.6267L45.7521 17.6884C45.672 17.6931 45.5919 17.6808 45.517 17.6522C45.4421 17.6236 45.3741 17.5795 45.3175 17.5227C45.261 17.4659 45.2171 17.3977 45.1888 17.3227C45.1605 17.2477 45.1485 17.1675 45.1534 17.0875L45.3454 12.9404C45.3502 12.8657 45.3821 12.7952 45.4351 12.7422C45.4881 12.6893 45.5585 12.6574 45.6333 12.6525L47.4612 12.5771C47.5412 12.5725 47.6213 12.5848 47.6962 12.6134C47.7711 12.642 47.8391 12.6861 47.8957 12.7429C47.9523 12.7997 47.9962 12.8679 48.0245 12.9429C48.0528 13.0179 48.0648 13.098 48.0598 13.1781L47.8862 16.9755C47.8753 17.1451 47.8029 17.3048 47.6826 17.4247C47.5623 17.5447 47.4023 17.6165 47.2327 17.6267Z" fill="white"/>
<path opacity="0.3" d="M46.2482 13.8635L45.5856 13.8909C45.5487 13.8933 45.5117 13.8877 45.4771 13.8746C45.4425 13.8616 45.411 13.8413 45.3849 13.8151C45.3587 13.789 45.3384 13.7576 45.3254 13.723C45.3123 13.6883 45.3068 13.6514 45.3091 13.6144L45.3411 12.929C45.3454 12.8565 45.3762 12.7881 45.4276 12.7367C45.4789 12.6853 45.5474 12.6546 45.6199 12.6502L46.3053 12.6205C46.3423 12.6185 46.3792 12.6243 46.4137 12.6377C46.4482 12.651 46.4795 12.6716 46.5054 12.6979C46.5314 12.7243 46.5514 12.7559 46.5642 12.7906C46.5769 12.8253 46.5822 12.8624 46.5795 12.8993L46.5498 13.5573C46.5465 13.6367 46.5138 13.712 46.4581 13.7686C46.4023 13.8252 46.3275 13.859 46.2482 13.8635Z" fill="white"/>
<path d="M46.1865 13.8109L45.5856 13.8361C45.5485 13.8381 45.5115 13.8322 45.4769 13.8189C45.4423 13.8055 45.4109 13.785 45.3848 13.7587C45.3587 13.7324 45.3384 13.7008 45.3254 13.6661C45.3123 13.6314 45.3068 13.5943 45.3091 13.5573L45.3365 12.9541C45.3414 12.8757 45.3747 12.8018 45.4303 12.7462C45.4858 12.6907 45.5597 12.6573 45.6381 12.6525L46.2413 12.6274C46.2783 12.6253 46.3152 12.6312 46.3497 12.6445C46.3842 12.6579 46.4155 12.6784 46.4414 12.7048C46.4674 12.7311 46.4874 12.7627 46.5002 12.7975C46.5129 12.8322 46.5182 12.8692 46.5155 12.9061L46.4881 13.5093C46.4837 13.5879 46.4505 13.6621 46.3949 13.7177C46.3393 13.7734 46.2651 13.8065 46.1865 13.8109Z" fill="#263238"/>
<path opacity="0.1" d="M46.1865 13.8109L45.5856 13.8361C45.5485 13.8381 45.5115 13.8322 45.4769 13.8189C45.4423 13.8055 45.4109 13.785 45.3848 13.7587C45.3587 13.7324 45.3384 13.7008 45.3254 13.6661C45.3123 13.6314 45.3068 13.5943 45.3091 13.5573L45.3365 12.9541C45.3414 12.8757 45.3747 12.8018 45.4303 12.7462C45.4858 12.6907 45.5597 12.6573 45.6381 12.6525L46.2413 12.6274C46.2783 12.6253 46.3152 12.6312 46.3497 12.6445C46.3842 12.6579 46.4155 12.6784 46.4414 12.7048C46.4674 12.7311 46.4874 12.7627 46.5002 12.7975C46.5129 12.8322 46.5182 12.8692 46.5155 12.9061L46.4881 13.5093C46.4837 13.5879 46.4505 13.6621 46.3949 13.7177C46.3393 13.7734 46.2651 13.8065 46.1865 13.8109Z" fill="white"/>
<path d="M46.9042 15.1823C46.8993 15.2656 46.864 15.3441 46.8051 15.4031C46.7461 15.462 46.6675 15.4973 46.5843 15.5022C46.545 15.5045 46.5056 15.4985 46.4688 15.4845C46.432 15.4705 46.3986 15.4489 46.3707 15.421C46.3429 15.3932 46.3212 15.3598 46.3072 15.3229C46.2933 15.2861 46.2872 15.2468 46.2896 15.2074C46.2949 15.1238 46.3306 15.0449 46.3899 14.9856C46.4492 14.9263 46.528 14.8907 46.6117 14.8853C46.6511 14.8829 46.6906 14.889 46.7275 14.9031C46.7644 14.9172 46.7978 14.9391 46.8255 14.9673C46.8532 14.9954 46.8746 15.0292 46.8882 15.0663C46.9017 15.1034 46.9072 15.1429 46.9042 15.1823Z" fill="white"/>
<path d="M32.4111 13.729C32.3106 14.3094 31.7028 14.6933 31.2344 15.052C31.3143 15.3696 32.0387 15.3605 32.3425 15.2325C32.3791 15.7694 31.8559 16.6034 31.36 16.8182C31.7645 17.2752 32.5528 17.2066 32.9595 16.7588C33.0669 17.5265 32.5779 18.3811 31.9244 18.7969C31.9678 18.8221 32.0112 18.8426 32.0547 18.8632C33.0783 19.3202 34.271 18.8221 34.7759 17.8167C34.9184 17.5323 35.0302 17.2336 35.1095 16.9256C35.3604 15.9375 35.2998 14.8961 34.9359 13.9438C34.6114 13.103 33.1605 13.2264 32.4111 13.729Z" fill="#263238"/>
<path d="M38.7788 13.7378C38.9045 14.3182 39.6608 14.7021 40.2457 15.0608C40.1452 15.3784 39.2427 15.3692 38.8748 15.2413C38.8291 15.7782 39.4803 16.6122 40.0972 16.827C39.5945 17.284 38.612 17.2154 38.1048 16.7676C37.9723 17.5353 38.5823 18.3876 39.3958 18.8057C39.3432 18.8286 39.2884 18.8514 39.2312 18.872C37.9586 19.3289 36.4711 18.8308 35.845 17.8255C35.6682 17.5475 35.5277 17.2481 35.4269 16.9344C35.1146 15.9494 35.1923 14.882 35.644 13.9526C36.037 13.1118 37.8489 13.2352 38.7788 13.7378Z" fill="#263238"/>
<path d="M41.985 79.6642L43.8997 79.1684L42.835 74.7129L40.918 75.2064L41.985 79.6642Z" fill="#FF887B"/>
<path d="M43.8568 78.7496L41.7615 79.2911C41.7219 79.3042 41.6882 79.3309 41.6665 79.3664C41.6447 79.402 41.6363 79.4441 41.6427 79.4853L41.8209 81.5714C41.8248 81.6591 41.861 81.7423 41.9226 81.8047C41.9843 81.8672 42.0669 81.9046 42.1545 81.9096H42.2094C42.9611 81.6994 44.0373 81.3635 44.9855 81.119C46.0937 80.8311 46.2034 80.8791 47.4989 80.5432C48.2849 80.3399 48.2415 79.3528 47.8896 79.3551C46.2902 79.3551 45.9155 79.4099 44.3595 78.8067C44.2016 78.737 44.0262 78.717 43.8568 78.7496Z" fill="#263238"/>
<path opacity="0.2" d="M42.835 74.7148L43.3834 77.2396L41.4686 77.7355L40.918 75.2107L42.835 74.7148Z" fill="black"/>
<path d="M44.062 78.8209C44.0546 78.8224 44.0468 78.822 44.0396 78.8196C44.0324 78.8172 44.0259 78.8129 44.0209 78.8072C44.0125 78.7987 44.0078 78.7872 44.0078 78.7752C44.0078 78.7633 44.0125 78.7518 44.0209 78.7432C44.094 78.6747 44.7475 78.0943 45.0102 78.1652C45.0348 78.1715 45.0574 78.1838 45.0761 78.2009C45.0949 78.2181 45.1091 78.2395 45.1176 78.2634C45.1322 78.3006 45.1378 78.3407 45.1338 78.3804C45.1298 78.4201 45.1165 78.4584 45.0948 78.4919C44.983 78.6152 44.8321 78.6959 44.6675 78.7204C44.4693 78.773 44.2666 78.8066 44.062 78.8209ZM44.1831 78.7227C44.6195 78.6838 44.9257 78.5856 45.0102 78.4531C45.0258 78.4301 45.0352 78.4036 45.0376 78.376C45.04 78.3484 45.0353 78.3207 45.0239 78.2954C45.0211 78.286 45.016 78.2774 45.0093 78.2703C45.0026 78.2632 44.9943 78.2577 44.9851 78.2543C44.9557 78.2484 44.9254 78.2484 44.896 78.2543C44.6328 78.3675 44.3915 78.5261 44.1831 78.7227Z" fill="#467BFF"/>
<path d="M44.0313 78.8279C44.0243 78.8236 44.0183 78.818 44.0135 78.8113C44.0088 78.8046 44.0055 78.797 44.0039 78.789C44.0039 78.7685 43.9125 78.2475 44.0907 77.9916C44.1169 77.9537 44.1508 77.9217 44.1902 77.8976C44.2295 77.8736 44.2735 77.8582 44.3192 77.8522C44.4449 77.8317 44.5089 77.8842 44.5203 77.9322C44.614 78.1378 44.2918 78.6565 44.0816 78.8187H44.0633C44.0537 78.8247 44.0426 78.8278 44.0313 78.8279ZM44.1684 78.0464C44.0769 78.2473 44.0497 78.4716 44.0907 78.6885C44.2827 78.4897 44.4974 78.0921 44.4426 77.9711C44.4426 77.9711 44.4197 77.9231 44.3398 77.9436H44.3124C44.2531 77.9585 44.2017 77.9953 44.1684 78.0464Z" fill="#467BFF"/>
<path d="M23.3906 78.4165L25.2802 79.0083L26.7266 74.6579L24.837 74.0684L23.3906 78.4165Z" fill="#FF887B"/>
<path d="M25.4386 78.4278L23.3822 77.7834C23.3419 77.7735 23.2993 77.7781 23.2621 77.7965C23.2249 77.8149 23.1954 77.8459 23.1788 77.884L22.2397 79.7119C22.1972 79.7877 22.1846 79.8766 22.2045 79.9612C22.2244 80.0459 22.2753 80.1199 22.3471 80.1688L22.3974 80.1917C23.1468 80.4088 24.2253 80.6921 25.1735 80.9846C26.2657 81.3273 26.3342 81.4232 27.6138 81.8231C28.3906 82.0653 28.8705 81.2176 28.5689 81.0325C27.1979 80.194 26.862 80.0432 25.8544 78.7225C25.7491 78.5841 25.604 78.4813 25.4386 78.4278Z" fill="#263238"/>
<path opacity="0.2" d="M26.7281 74.6598L25.8896 77.1869L24 76.5951L24.8386 74.0703L26.7281 74.6598Z" fill="black"/>
<path d="M25.6036 78.7985C25.5967 78.7957 25.5907 78.7909 25.5862 78.7849C25.5818 78.7789 25.5791 78.7717 25.5784 78.7643C25.5771 78.7528 25.5801 78.7413 25.5869 78.732C25.5936 78.7226 25.6037 78.7162 25.615 78.714C25.7133 78.6957 26.5747 78.5472 26.7575 78.746C26.7753 78.764 26.7882 78.7862 26.795 78.8106C26.8018 78.835 26.8022 78.8607 26.7963 78.8854C26.7907 78.9267 26.7745 78.9659 26.7492 78.9991C26.724 79.0323 26.6906 79.0585 26.6523 79.075C26.4913 79.1229 26.3187 79.114 26.1634 79.0499C25.9693 78.9839 25.7818 78.8998 25.6036 78.7985ZM25.759 78.778C26.152 78.979 26.4627 79.0544 26.6044 78.9882C26.6299 78.977 26.652 78.9593 26.6685 78.9368C26.6849 78.9144 26.6951 78.8879 26.698 78.8602C26.7029 78.8519 26.7054 78.8424 26.7054 78.8328C26.7054 78.8232 26.7029 78.8137 26.698 78.8054C26.6753 78.7864 26.6488 78.7724 26.6204 78.7643C26.3331 78.719 26.0401 78.7236 25.7544 78.778H25.759Z" fill="#467BFF"/>
<path d="M25.5792 78.7889C25.5759 78.7818 25.5742 78.774 25.5742 78.7661C25.5742 78.7582 25.5759 78.7504 25.5792 78.7432C25.5792 78.7227 25.7871 78.2337 26.075 78.1103C26.1167 78.0917 26.1619 78.082 26.2075 78.082C26.2532 78.082 26.2984 78.0917 26.3401 78.1103C26.4589 78.1606 26.484 78.2383 26.4703 78.2863C26.4406 78.5148 25.8877 78.7752 25.6295 78.8072H25.6112L25.5792 78.7889ZM26.1047 78.1994C25.9213 78.3213 25.78 78.4968 25.7003 78.7021C25.9676 78.6359 26.3606 78.4097 26.3858 78.2794C26.3858 78.2657 26.3858 78.2269 26.3127 78.2017H26.2852C26.2569 78.1891 26.2263 78.1824 26.1952 78.182C26.1642 78.1816 26.1334 78.1875 26.1047 78.1994Z" fill="#467BFF"/>
<path d="M47.0381 18.772L47.0952 20.7759L45.3633 20.8079L45.4958 18.5801C45.4958 18.5801 47.0015 17.6067 47.0381 18.772Z" fill="#FF887B"/>
<path d="M46.1429 19.1149L47.0386 18.7721L47.4818 17.1042C47.5048 17.0135 47.5089 16.919 47.494 16.8267C47.479 16.7344 47.4454 16.646 47.395 16.5672L46.8718 15.7446C46.7808 15.6061 46.6427 15.5053 46.4831 15.4608C46.3234 15.4162 46.1531 15.431 46.0035 15.5024L45.6151 15.6967C45.4726 15.7663 45.3594 15.8841 45.2954 16.0292C45.2314 16.1743 45.2208 16.3374 45.2655 16.4895L45.494 17.2847C45.494 17.2847 45.197 19.1674 46.1429 19.1149Z" fill="#FF887B"/>
<path d="M37.5165 23.931C39.0016 25.0118 42.6232 29.0743 45.7032 29.0309C48.2006 29.0743 47.5174 19.5029 47.5174 19.5029L45.1754 19.2607C45.1754 19.2607 44.6636 25.3294 44.3071 25.1055C44.1358 24.9981 39.422 20.7642 39.422 20.7642C38.2385 19.832 36.3237 20.4832 35.4258 21.6941L37.5165 23.931Z" fill="#263238"/>
<g opacity="0.1">
<path d="M37.5165 23.931C39.0016 25.0118 42.6232 29.0743 45.7032 29.0309C48.2006 29.0743 47.5174 19.5029 47.5174 19.5029L45.1754 19.2607C45.1754 19.2607 44.6636 25.3294 44.3071 25.1055C44.1358 24.9981 39.422 20.7642 39.422 20.7642C38.2385 19.832 36.3237 20.4832 35.4258 21.6941L37.5165 23.931Z" fill="black"/>
</g>
<path d="M40.6363 38.3666L42.5145 61.5194L43.8055 75.6171C43.8299 75.8005 43.7821 75.9863 43.6721 76.1351C43.5621 76.2839 43.3985 76.3841 43.216 76.4145L40.874 76.643C40.6988 76.6508 40.5271 76.5928 40.3926 76.4803C40.2581 76.3678 40.1706 76.209 40.1474 76.0352C39.551 72.9004 37.9265 67.9993 37.8328 62.0426C37.8328 62.0426 34.5882 46.7042 34.0102 41.979L33.9805 37.7383L40.6363 38.3666Z" fill="#263238"/>
<path opacity="0.7" d="M40.6363 38.3666L42.5145 61.5194L43.8055 75.6171C43.8299 75.8005 43.7821 75.9863 43.6721 76.1351C43.5621 76.2839 43.3985 76.3841 43.216 76.4145L40.874 76.643C40.6988 76.6508 40.5271 76.5928 40.3926 76.4803C40.2581 76.3678 40.1706 76.209 40.1474 76.0352C39.551 72.9004 37.9265 67.9993 37.8328 62.0426C37.8328 62.0426 34.5882 46.7042 34.0102 41.979L33.9805 37.7383L40.6363 38.3666Z" fill="white"/>
<path opacity="0.2" d="M35.6553 43.3711C35.6553 43.3711 36.3111 47.2417 36.2905 53.6394C36.2905 53.6394 35.2509 49.0399 34.6797 46.5242L35.6553 43.3711Z" fill="black"/>
<path d="M37.1025 38.589L32.1215 62.2696L27.3232 76.068C27.2999 76.1507 27.2596 76.2277 27.2051 76.2942C27.1505 76.3607 27.0828 76.4151 27.0062 76.4542C26.9296 76.4932 26.8458 76.516 26.76 76.5211C26.6742 76.5262 26.5882 76.5135 26.5075 76.4838L24.0513 75.5813C23.8913 75.506 23.7627 75.3769 23.688 75.2166C23.6133 75.0563 23.5971 74.8749 23.6423 74.7039C24.3277 71.6787 24.9378 66.6543 27.2364 61.4676C27.2364 61.4676 28.6073 46.4467 30.4558 38.4131L37.1025 38.589Z" fill="#263238"/>
<path opacity="0.7" d="M37.1025 38.589L32.1215 62.2696L27.3232 76.068C27.2999 76.1507 27.2596 76.2277 27.2051 76.2942C27.1505 76.3607 27.0828 76.4151 27.0062 76.4542C26.9296 76.4932 26.8458 76.516 26.76 76.5211C26.6742 76.5262 26.5882 76.5135 26.5075 76.4838L24.0513 75.5813C23.8913 75.506 23.7627 75.3769 23.688 75.2166C23.6133 75.0563 23.5971 74.8749 23.6423 74.7039C24.3277 71.6787 24.9378 66.6543 27.2364 61.4676C27.2364 61.4676 28.6073 46.4467 30.4558 38.4131L37.1025 38.589Z" fill="white"/>
<path d="M34.074 19.7568C34.4761 18.5093 34.3916 16.7156 34.2568 15.5938L36.9644 18.2716C36.7922 18.7473 36.7335 19.2567 36.793 19.7591C36.8102 19.8761 36.8653 19.9842 36.95 20.0668C37.0346 20.1493 37.144 20.2018 37.2614 20.2161L38.4153 20.5771L38.5501 21.4682L37.8532 21.6487L36.969 22.8071L34.6635 21.6487L32.2461 20.5245C32.6113 20.4075 32.9897 20.3369 33.3725 20.3143C33.5252 20.2835 33.6684 20.2169 33.7904 20.12C33.9123 20.0231 34.0095 19.8986 34.074 19.7568Z" fill="#FF887B"/>
<path d="M41.3247 38.8191H29.2148L32.0641 20.4075C32.0641 20.4075 32.1464 20.3801 32.3109 20.3367L33.186 20.1813C33.3619 20.3001 35.103 21.8653 36.7938 21.9293C38.2264 21.9841 37.6392 20.1768 37.6392 20.1768L38.2538 20.3687C38.3338 20.3824 38.4138 20.3915 38.496 20.403L39.2341 20.9628C39.2341 20.9628 40.8129 24.3901 41.1922 32.9127L41.3247 38.8191Z" fill="#467BFF"/>
<path d="M36.9209 22.4158C36.8981 22.4478 36.809 22.4295 36.6719 22.3701L36.9209 22.4158Z" fill="#467BFF"/>
<path opacity="0.2" d="M35.3487 16.8916L36.9093 18.4225C36.8228 18.7043 36.7729 18.9961 36.7608 19.2907C36.1233 19.1445 35.3442 18.5459 35.1431 17.8238C35.022 17.3806 35.1888 16.9304 35.3487 16.8916Z" fill="black"/>
<path d="M33.849 13.5693C33.9656 15.6257 33.9313 16.8344 34.9663 17.8923C36.5201 19.4917 39.0631 18.5503 39.559 16.5054C40.0159 14.65 39.7395 11.6066 37.7311 10.7817C37.2889 10.5969 36.8068 10.5283 36.3306 10.5824C35.8544 10.6366 35.4001 10.8117 35.0107 11.0911C34.6214 11.3706 34.31 11.745 34.1062 12.1788C33.9025 12.6125 33.8132 13.0912 33.8467 13.5693H33.849Z" fill="#FF887B"/>
<path d="M34.5355 14.6795C34.4416 14.6304 34.3376 14.6038 34.2316 14.6018C34.1668 14.593 34.1007 14.6014 34.0401 14.6263C33.9795 14.6512 33.9266 14.6916 33.8866 14.7434C33.8551 14.8115 33.8375 14.8851 33.8347 14.96C33.832 15.035 33.8442 15.1097 33.8706 15.1799C34.0306 15.831 34.2065 16.48 34.4007 17.122C33.3698 16.0751 32.7363 14.7015 32.6094 13.2377C33.2194 13.1829 33.9392 13.1486 34.5492 13.0938" fill="#263238"/>
<path d="M37.1155 14.1103C37.1315 14.2794 37.2297 14.4051 37.344 14.3959C37.4582 14.3868 37.529 14.2428 37.513 14.0738C37.497 13.9047 37.3965 13.7813 37.2846 13.7927C37.1726 13.8041 37.0995 13.9458 37.1155 14.1103Z" fill="#263238"/>
<path d="M39.008 13.971C39.024 14.1378 39.1245 14.2634 39.2365 14.2543C39.3484 14.2452 39.4193 14.1012 39.4033 13.9344C39.3873 13.7676 39.289 13.6397 39.1748 13.6511C39.0605 13.6625 38.9851 13.8042 39.008 13.971Z" fill="#263238"/>
<path d="M36.3815 13.3357C36.3652 13.3317 36.3497 13.3247 36.3358 13.3152C36.3183 13.2962 36.3086 13.2713 36.3086 13.2455C36.3086 13.2196 36.3183 13.1948 36.3358 13.1758C36.4518 13.072 36.5908 12.9971 36.7413 12.9574C36.8919 12.9177 37.0497 12.9142 37.2018 12.9473C37.2142 12.9507 37.2259 12.9566 37.2361 12.9645C37.2463 12.9725 37.2548 12.9824 37.2612 12.9936C37.2676 13.0049 37.2716 13.0173 37.2732 13.0301C37.2748 13.0429 37.2738 13.0559 37.2703 13.0684C37.2672 13.081 37.2615 13.0929 37.2536 13.1032C37.2457 13.1136 37.2358 13.1222 37.2245 13.1287C37.2132 13.1351 37.2007 13.1391 37.1877 13.1405C37.1748 13.142 37.1617 13.1407 37.1492 13.1369C37.0279 13.1125 36.9026 13.1172 36.7835 13.1506C36.6643 13.1839 36.5548 13.245 36.4638 13.3289C36.4514 13.3359 36.4376 13.3402 36.4234 13.3413C36.4092 13.3425 36.3949 13.3406 36.3815 13.3357Z" fill="#263238"/>
<path d="M39.7127 13.1985C39.6985 13.207 39.6824 13.2114 39.6659 13.2114C39.6494 13.2114 39.6332 13.207 39.619 13.1985C39.5146 13.1341 39.3965 13.0951 39.2742 13.0848C39.152 13.0744 39.029 13.0931 38.9153 13.1391C38.9039 13.145 38.8915 13.1485 38.8787 13.1495C38.866 13.1504 38.8532 13.1489 38.841 13.1448C38.8289 13.1408 38.8177 13.1343 38.8081 13.1259C38.7985 13.1175 38.7906 13.1072 38.785 13.0957C38.7788 13.0842 38.775 13.0716 38.7738 13.0586C38.7727 13.0456 38.7741 13.0325 38.7782 13.0201C38.7823 13.0077 38.7888 12.9962 38.7975 12.9864C38.8061 12.9767 38.8166 12.9687 38.8285 12.9632C38.972 12.9015 39.1282 12.8751 39.2841 12.8863C39.4399 12.8974 39.5908 12.9457 39.7241 13.0271C39.7353 13.0331 39.7451 13.0412 39.753 13.0511C39.7609 13.0609 39.7668 13.0723 39.7702 13.0845C39.7736 13.0966 39.7745 13.1094 39.7729 13.1219C39.7713 13.1344 39.7671 13.1465 39.7607 13.1574C39.7499 13.1762 39.733 13.1908 39.7127 13.1985Z" fill="#263238"/>
<path d="M32.8389 15.482C32.9746 15.6994 33.1518 15.8881 33.3604 16.037C33.5689 16.186 33.8048 16.2924 34.0545 16.3502C34.7263 16.4988 35.0256 15.8933 34.8085 15.2786C34.6143 14.728 34.0317 13.9831 33.3736 14.1088C32.7156 14.2344 32.5076 14.9382 32.8389 15.482Z" fill="#FF887B"/>
<path d="M38.2812 14.0713C38.5492 14.5361 38.8815 14.9607 39.2683 15.3325C39.1703 15.4337 39.0515 15.5124 38.9202 15.5633C38.7888 15.6142 38.648 15.636 38.5075 15.6273L38.2812 14.0713Z" fill="#BA4D3C"/>
<path d="M37.6367 20.1816C37.6367 20.1816 39.3504 20.9059 39.981 25.5374C40.5933 29.8576 40.8227 34.2235 40.6665 38.5841C40.4951 42.6443 40.6413 45.2742 41.898 45.1029C41.898 45.1029 42.0123 42.9185 41.898 35.6572C41.7838 28.3958 42.1608 20.3142 37.6367 20.1816Z" fill="#263238"/>
<path d="M32.4933 20.1816C32.4933 20.1816 34.5497 21.3241 34.7782 28.5672C35.0066 35.8103 35.3517 45.2811 32.9114 45.5096C30.4711 45.7381 27.8047 44.3671 27.8047 44.3671C27.8047 44.3671 29.0385 36.6168 29.2899 33.9801C29.58 30.932 27.9189 22.5442 28.9837 21.7057C30.0484 20.8671 32.4933 20.1816 32.4933 20.1816Z" fill="#263238"/>
<g opacity="0.2">
<path d="M32.708 40.7846L30.7924 40.5093C30.5963 40.4811 30.4194 40.3761 30.3006 40.2175C30.1818 40.0589 30.131 39.8596 30.1592 39.6634L30.2209 39.2337L33.6134 39.7214L33.5516 40.1511C33.5234 40.3472 33.4185 40.5241 33.2598 40.6429C33.1012 40.7616 32.9019 40.8125 32.7058 40.7843L32.708 40.7846Z" fill="white"/>
</g>
<path d="M34.7188 31.8779L37.3258 30.9319L37.9496 29.6844C38.0213 29.5417 38.1399 29.4279 38.2855 29.3622L39.1811 28.9555C39.28 28.9114 39.3878 28.8907 39.496 28.8951C39.6041 28.8995 39.7099 28.9287 39.8049 28.9806L40.2002 29.2091C40.3362 29.2828 40.4433 29.4004 40.5041 29.5427L40.6869 29.97C40.7415 30.0945 40.7579 30.2325 40.7339 30.3664C40.7098 30.5002 40.6466 30.6239 40.5521 30.7217L39.3868 31.9533C39.2957 32.0492 39.1792 32.1174 39.0509 32.1498L37.881 32.4422L34.9107 33.8908L34.7188 31.8779Z" fill="#FF887B"/>
<path d="M36.92 32.5221C36.9789 32.6672 36.9849 32.8285 36.9369 32.9777C36.8888 33.1268 36.7898 33.2543 36.6572 33.3378C35.9306 33.7947 34.4614 34.5533 32.798 34.3363C30.4332 34.0301 28.1552 27.4816 27.8376 25.64C27.4857 23.5836 28.539 22.4023 28.539 22.4023C29.6815 20.6132 30.6206 22.2515 31.6008 24.397C32.581 26.5425 32.9488 30.4885 33.2962 31.0232C33.5246 31.3613 34.7813 30.9615 35.6564 30.6302C35.7513 30.592 35.8536 30.576 35.9555 30.5835C36.0575 30.591 36.1563 30.6217 36.2446 30.6733C36.3328 30.7249 36.408 30.7961 36.4645 30.8813C36.521 30.9665 36.5572 31.0635 36.5704 31.1648C36.631 31.6298 36.7484 32.0856 36.92 32.5221Z" fill="#263238"/>
<g opacity="0.1">
<path d="M36.92 32.523C36.9789 32.6682 36.9849 32.8295 36.9369 32.9786C36.8888 33.1278 36.7898 33.2553 36.6572 33.3387C35.9306 33.7957 34.4614 34.5543 32.798 34.3372C30.4332 34.0311 28.1552 27.4826 27.8376 25.641C27.4857 23.5846 28.539 22.4033 28.539 22.4033C29.6815 20.6142 30.6206 22.2525 31.6008 24.398C32.581 26.5435 32.9488 30.4895 33.2962 31.0241C33.5246 31.3623 34.7813 30.9625 35.6564 30.6311C35.7513 30.593 35.8536 30.577 35.9555 30.5845C36.0575 30.592 36.1563 30.6227 36.2446 30.6743C36.3328 30.7259 36.408 30.797 36.4645 30.8822C36.521 30.9674 36.5572 31.0644 36.5704 31.1658C36.631 31.6308 36.7484 32.0866 36.92 32.523Z" fill="white"/>
</g>
<path d="M38.0087 16.5257C37.8246 16.4842 37.6508 16.4057 37.498 16.2949C37.3452 16.1841 37.2166 16.0434 37.1198 15.8814C37.1166 15.8758 37.1145 15.8697 37.1137 15.8634C37.1129 15.857 37.1133 15.8506 37.115 15.8444C37.1167 15.8382 37.1196 15.8324 37.1236 15.8274C37.1276 15.8224 37.1325 15.8182 37.1381 15.8151C37.1498 15.8099 37.1629 15.8091 37.1751 15.8129C37.1873 15.8167 37.1977 15.8248 37.2044 15.8357C37.3118 16.0106 37.4583 16.1584 37.6323 16.2674C37.8063 16.3764 38.0031 16.4437 38.2075 16.464C38.2138 16.4643 38.2199 16.4659 38.2256 16.4685C38.2314 16.4712 38.2365 16.475 38.2407 16.4797C38.245 16.4843 38.2483 16.4898 38.2504 16.4957C38.2525 16.5017 38.2535 16.508 38.2532 16.5143C38.2529 16.5206 38.2513 16.5268 38.2486 16.5325C38.2459 16.5382 38.2422 16.5433 38.2375 16.5476C38.2328 16.5518 38.2274 16.5551 38.2214 16.5572C38.2155 16.5594 38.2092 16.5603 38.2029 16.56C38.1376 16.5521 38.0727 16.5407 38.0087 16.5257Z" fill="#263238"/>
<path d="M36.4028 13.0802C37.2048 12.9637 37.8034 12.1845 37.9062 11.3803C38.6237 11.5562 39.0898 12.2005 39.4622 12.8426C39.4881 12.8879 39.5238 12.9268 39.5667 12.9565C39.6095 12.9862 39.6585 13.0059 39.71 13.0143C39.7615 13.0226 39.8142 13.0193 39.8642 13.0046C39.9142 12.9899 39.9604 12.9642 39.9992 12.9294C40.0585 12.863 40.1009 12.7832 40.1228 12.6969C40.1447 12.6106 40.1454 12.5203 40.1249 12.4336C40.0801 12.2521 40.0027 12.0802 39.8964 11.9264C39.7593 11.6979 39.6199 11.4694 39.4668 11.2409C39.2464 10.9202 38.9503 10.6589 38.6047 10.4799C38.2592 10.301 37.8749 10.21 37.4858 10.215H37.4333C36.8522 9.91619 36.1925 9.80597 35.546 9.89966C34.8102 9.98877 34.3395 10.3292 33.7797 10.8136C33.0029 11.4991 32.9092 12.87 31.2344 13.8274L32.523 13.8457C33.8591 13.8665 35.1839 13.5992 36.4074 13.0619L36.4028 13.0802Z" fill="#263238"/>
<path d="M38.5352 13.6562C38.5352 13.6562 39.4491 13.3591 39.9655 13.6379C40.4819 13.9166 40.2808 14.8237 40.194 14.986C40.0066 15.3241 39.5382 15.395 39.1315 15.0911C38.7248 14.7872 38.5352 13.6562 38.5352 13.6562Z" fill="#263238"/>
<path d="M38.2237 13.6746C38.2237 13.6746 37.095 13.5009 36.5169 13.8459C35.9388 14.1909 36.2884 15.0638 36.4301 15.2169C36.6974 15.5276 37.2641 15.5367 37.7073 15.1803C38.1506 14.8239 38.2237 13.6746 38.2237 13.6746Z" fill="#263238"/>
<path d="M38.0672 13.8388C38.1493 13.7904 38.2414 13.7614 38.3364 13.7539C38.4314 13.7463 38.5269 13.7605 38.6156 13.7953L38.6933 13.672C38.5845 13.6232 38.4658 13.6007 38.3467 13.6063C38.2277 13.6119 38.1116 13.6453 38.0078 13.704L38.0672 13.8388Z" fill="#263238"/>
<path d="M36.6054 13.9665L36.5962 13.8203L36.1164 13.85L33.7881 13.7061L33.7812 13.8523L36.1164 13.994L36.6054 13.9665Z" fill="#263238"/>
<path d="M40.3272 13.6282L39.9258 13.6523L39.9346 13.7983L40.336 13.7742L40.3272 13.6282Z" fill="#263238"/>
<path d="M39.8365 13.7131C39.9709 13.8324 40.0737 13.9831 40.1358 14.1518C40.1986 14.351 40.1986 14.5648 40.1358 14.7641L39.5234 13.6833C39.5735 13.66 39.629 13.6505 39.684 13.6557C39.739 13.6609 39.7916 13.6807 39.8365 13.7131Z" fill="white"/>
<path d="M37.5605 13.7815C37.7134 13.9398 37.8372 14.1239 37.926 14.3253C37.9555 14.4095 37.9642 14.4996 37.9515 14.5879C37.9388 14.6762 37.905 14.7601 37.8529 14.8326L37.2383 13.7518C37.2895 13.7264 37.3467 13.7158 37.4036 13.721C37.4605 13.7263 37.5148 13.7472 37.5605 13.7815Z" fill="white"/>
<path d="M38.0568 13.8667L38.0089 14.1248C37.9445 13.9831 37.8555 13.854 37.7461 13.7433C37.7461 13.7433 38.1048 13.6816 38.0568 13.8667Z" fill="white"/>
</g>
<defs>
<clipPath id="clip0_9347_9105">
<rect width="77" height="83" fill="white"/>
</clipPath>
</defs>
</svg>
